<svg viewBox="0 0 566.929133858 113.1196" width="566.929133858pt" height="113.1196pt" xmlns="http://www.w3.org/2000/svg" xmlns:xlink="http://www.w3.org/1999/xlink" xmlns:h5="http://www.w3.org/1999/xhtml"><g transform="translate(28.346456693)"><g><path fill="none" stroke="#f0f6fc" stroke-width="0.75" stroke-linecap="butt" stroke-linejoin="miter" stroke-miterlimit="4" transform="translate(0 51.2528)" d="M 0 0h 510.236220472"/><path fill="#56b4e9" fill-rule="nonzero" stroke="#f0f6fc" stroke-width="0.75" stroke-linecap="butt" stroke-linejoin="miter" stroke-miterlimit="4" transform="translate(0 45.2528)" d="M 0 0h 12.1484092l 4.2 6l -4.2 6h -12.1484092Z "/><path fill="#c98ce6" fill-rule="nonzero" stroke="#f0f6fc" stroke-width="0.75" stroke-linecap="butt" stroke-linejoin="miter" stroke-miterlimit="4" transform="translate(21.1463119 45.2528)" d="M 0 0m 10.1289057 0h -5.9289057l -4.2 6l 4.2 6h 5.9289057Z "/><path fill="#56b4e9" fill-rule="nonzero" stroke="#f0f6fc" stroke-width="0.75" stroke-linecap="butt" stroke-linejoin="miter" stroke-miterlimit="4" transform="translate(22.3902126 45.2528)" d="M 0 0m 5.331003 0h -1.131003l -4.2 6l 4.2 6h 1.131003Z "/><path fill="#7ad598" fill-rule="nonzero" stroke="#f0f6fc" stroke-width="0.75" stroke-linecap="butt" stroke-linejoin="miter" stroke-miterlimit="4" transform="translate(31.689851167 45.2528)" d="M 0 0m 5.034836167 0h -0.834836167l -4.2 6l 4.2 6h 0.834836167Z "/><path fill="#7ad598" fill-rule="nonzero" stroke="#f0f6fc" stroke-width="0.75" stroke-linecap="butt" stroke-linejoin="miter" stroke-miterlimit="4" transform="translate(49.104460967 45.2528)" d="M 0 0m 5.034836167 0h -0.834836167l -4.2 6l 4.2 6h 0.834836167Z "/><path fill="#56b4e9" fill-rule="nonzero" stroke="#f0f6fc" stroke-width="0.75" stroke-linecap="butt" stroke-linejoin="miter" stroke-miterlimit="4" transform="translate(63.557402434 45.2528)" d="M 0 0m 49.933728101 0h -45.733728101l -4.2 6l 4.2 6h 45.733728101Z "/><path fill="#56b4e9" fill-rule="nonzero" stroke="#f0f6fc" stroke-width="0.75" stroke-linecap="butt" stroke-linejoin="miter" stroke-miterlimit="4" transform="translate(116.393565501 45.2528)" d="M 0 0m 27.1881153 0h -22.9881153l -4.2 6l 4.2 6h 22.9881153Z "/><path fill="#56b4e9" fill-rule="nonzero" stroke="#f0f6fc" stroke-width="0.75" stroke-linecap="butt" stroke-linejoin="miter" stroke-miterlimit="4" transform="translate(150.215817868 45.2528)" d="M 0 0h 49.465430201l 4.2 6l -4.2 6h -49.465430201Z "/><path fill="#56b4e9" fill-rule="nonzero" stroke="#f0f6fc" stroke-width="0.75" stroke-linecap="butt" stroke-linejoin="miter" stroke-miterlimit="4" transform="translate(209.271484436 45.2528)" d="M 0 0h 55.862633801l 4.2 6l -4.2 6h -55.862633801Z "/><path fill="#56b4e9" fill-rule="nonzero" stroke="#f0f6fc" stroke-width="0.75" stroke-linecap="butt" stroke-linejoin="miter" stroke-miterlimit="4" transform="translate(281.240024937 45.2528)" d="M 0 0h 49.643130301l 4.2 6l -4.2 6h -49.643130301Z "/><path fill="#56b4e9" fill-rule="nonzero" stroke="#f0f6fc" stroke-width="0.75" stroke-linecap="butt" stroke-linejoin="miter" stroke-miterlimit="4" transform="translate(343.553526671 45.2528)" d="M 0 0m 24.5226138 0h -20.3226138l -4.2 6l 4.2 6h 20.3226138Z "/><path fill="#56b4e9" fill-rule="nonzero" stroke="#f0f6fc" stroke-width="0.75" stroke-linecap="butt" stroke-linejoin="miter" stroke-miterlimit="4" transform="translate(403.853093938 45.2528)" d="M 0 0h 32.4062206l 4.2 6l -4.2 6h -32.4062206Z "/><path fill="#84848e" fill-rule="nonzero" stroke="#f0f6fc" stroke-width="0.75" stroke-linecap="butt" stroke-linejoin="miter" stroke-miterlimit="4" transform="translate(457.103890572 45.2528)" d="M 0 0m 53.132329901 0h -48.932329901l -4.2 6l 4.2 6h 48.932329901Z "/><path fill="none" stroke="#f0f6fc" stroke-width="0.75" stroke-linecap="round" stroke-linejoin="miter" stroke-miterlimit="4" transform="translate(0.375 41.833264)" d="M 0 0h 15.5984092"/><g transform="matrix(1 0 0 -1 0 38.8432)"><use xlink:href="#g4EDB453E5A519765AE2CD1DF1F94DE6F" x="0" y="0" fill="#f0f6fc" fill-rule="nonzero"/><use xlink:href="#g707A8ED56964983505B9ADF58767761E" x="4.0744" y="0" fill="#f0f6fc" fill-rule="nonzero"/><use xlink:href="#gCA6C629618CE52F7F60E0323B580F5B4" x="8.0872" y="0" fill="#f0f6fc" fill-rule="nonzero"/><use xlink:href="#g284EAF9614D338FAABA455B680095254" x="12.8744" y="0" fill="#f0f6fc" fill-rule="nonzero"/></g><path fill="none" stroke="#f0f6fc" stroke-width="0.75" stroke-linecap="round" stroke-linejoin="miter" stroke-miterlimit="4" transform="translate(22.7652126 8.798064)" d="M 0 0h 4.581003"/><path fill="none" stroke="#f0f6fc" stroke-width="0.75" stroke-linecap="round" stroke-linejoin="miter" stroke-miterlimit="4" transform="translate(25.0557141 8.798064)" d="M 0 0v 5.790136"/><path fill="none" stroke="#f0f6fc" stroke-width="0.75" stroke-linecap="round" stroke-linejoin="miter" stroke-miterlimit="4" transform="translate(25.0557141 26.1646)" d="M 0 0v 14.5882"/><g transform="matrix(1 0 0 -1 19.5997141 5.808)"><use xlink:href="#gDB5A204D66460B741C7D1E2F104C4236" x="0" y="0" fill="#f0f6fc" fill-rule="nonzero"/><use xlink:href="#gF1E4B05525243D22DA9E8A62ACD431A" x="2.9744" y="0" fill="#f0f6fc" fill-rule="nonzero"/><use xlink:href="#gD058DC99F421D147F94E6EFA894709D7" x="7.8584" y="0" fill="#f0f6fc" fill-rule="nonzero"/></g><path fill="none" stroke="#f0f6fc" stroke-width="0.75" stroke-linecap="round" stroke-linejoin="miter" stroke-miterlimit="4" transform="translate(21.5213119 25.315664)" d="M 0 0h 9.3789057"/><path fill="none" stroke="#f0f6fc" stroke-width="0.75" stroke-linecap="round" stroke-linejoin="miter" stroke-miterlimit="4" transform="translate(26.21076475 25.315664)" d="M 0 0v 5.790136"/><g transform="matrix(1 0 0 -1 19.29396475 22.3256)"><use xlink:href="#gD058DC99F421D147F94E6EFA894709D7" x="0" y="0" fill="#f0f6fc" fill-rule="nonzero"/><use xlink:href="#gDB5A204D66460B741C7D1E2F104C4236" x="3.0536" y="0" fill="#f0f6fc" fill-rule="nonzero"/><use xlink:href="#gDB5A204D66460B741C7D1E2F104C4236" x="5.852" y="0" fill="#f0f6fc" fill-rule="nonzero"/><use xlink:href="#g44BE9BC637AB96922F228395043856C4" x="8.8264" y="0" fill="#f0f6fc" fill-rule="nonzero"/></g><path fill="none" stroke="#f0f6fc" stroke-width="0.75" stroke-linecap="round" stroke-linejoin="miter" stroke-miterlimit="4" transform="translate(32.064851167 41.833264)" d="M 0 0h 4.284836167"/><g transform="matrix(1 0 0 -1 26.87246925 38.8432)"><use xlink:href="#gDB5A204D66460B741C7D1E2F104C4236" x="0" y="0" fill="#f0f6fc" fill-rule="nonzero"/><use xlink:href="#g4EDB453E5A519765AE2CD1DF1F94DE6F" x="2.9744" y="0" fill="#f0f6fc" fill-rule="nonzero"/><use xlink:href="#gD058DC99F421D147F94E6EFA894709D7" x="7.084" y="0" fill="#f0f6fc" fill-rule="nonzero"/><use xlink:href="#g51F6077E1A8348273F2985CCD6AEBD5" x="10.1376" y="0" fill="#f0f6fc" fill-rule="nonzero"/></g><path fill="none" stroke="#f0f6fc" stroke-width="0.75" stroke-linecap="round" stroke-linejoin="miter" stroke-miterlimit="4" transform="translate(49.479460967 41.833264)" d="M 0 0h 4.284836167"/><g transform="matrix(1 0 0 -1 44.194679051 38.8432)"><use xlink:href="#gDB5A204D66460B741C7D1E2F104C4236" x="0" y="0" fill="#f0f6fc" fill-rule="nonzero"/><use xlink:href="#g4EDB453E5A519765AE2CD1DF1F94DE6F" x="2.9744" y="0" fill="#f0f6fc" fill-rule="nonzero"/><use xlink:href="#gD058DC99F421D147F94E6EFA894709D7" x="7.084" y="0" fill="#f0f6fc" fill-rule="nonzero"/><use xlink:href="#g556474986B64BBC93B72BE0ACB6A67A7" x="10.1376" y="0" fill="#f0f6fc" fill-rule="nonzero"/></g><path fill="none" stroke="#f0f6fc" stroke-width="0.75" stroke-linecap="round" stroke-linejoin="miter" stroke-miterlimit="4" transform="translate(63.932402434 41.833264)" d="M 0 0h 49.183728101"/><g transform="matrix(1 0 0 -1 79.323866484 38.8432)"><use xlink:href="#gF1E4B05525243D22DA9E8A62ACD431A" x="0" y="0" fill="#f0f6fc" fill-rule="nonzero"/><use xlink:href="#g35CE3506E6F4DCF72ADA30CC9EB70462" x="4.884" y="0" fill="#f0f6fc" fill-rule="nonzero"/><use xlink:href="#gD058DC99F421D147F94E6EFA894709D7" x="9.6712" y="0" fill="#f0f6fc" fill-rule="nonzero"/><use xlink:href="#g37CFB4C68BDE4973F34398CE8CFDB38A" x="12.7248" y="0" fill="#f0f6fc" fill-rule="nonzero"/></g><path fill="none" stroke="#f0f6fc" stroke-width="0.75" stroke-linecap="round" stroke-linejoin="miter" stroke-miterlimit="4" transform="translate(116.768565501 41.833264)" d="M 0 0h 26.4381153"/><g transform="matrix(1 0 0 -1 121.438423151 38.8432)"><use xlink:href="#g4EDB453E5A519765AE2CD1DF1F94DE6F" x="0" y="0" fill="#f0f6fc" fill-rule="nonzero"/><use xlink:href="#g707A8ED56964983505B9ADF58767761E" x="4.0744" y="0" fill="#f0f6fc" fill-rule="nonzero"/><use xlink:href="#gCA6C629618CE52F7F60E0323B580F5B4" x="8.0872" y="0" fill="#f0f6fc" fill-rule="nonzero"/><use xlink:href="#gFA6EAA988D824441849E4BFFDE5DCBC" x="12.8744" y="0" fill="#f0f6fc" fill-rule="nonzero"/></g><path fill="none" stroke="#f0f6fc" stroke-width="0.75" stroke-linecap="round" stroke-linejoin="miter" stroke-miterlimit="4" transform="translate(150.590817868 41.833264)" d="M 0 0h 52.915430201"/><g transform="matrix(1 0 0 -1 169.458532969 38.8432)"><use xlink:href="#gD058DC99F421D147F94E6EFA894709D7" x="0" y="0" fill="#f0f6fc" fill-rule="nonzero"/><use xlink:href="#g998CF388D9BDC6A1A127C484CC777001" x="3.0184" y="0" fill="#f0f6fc" fill-rule="nonzero"/><use xlink:href="#g998CF388D9BDC6A1A127C484CC777001" x="6.7056" y="0" fill="#f0f6fc" fill-rule="nonzero"/><use xlink:href="#g559841ACD97AFBFB42B0D5739191C87F" x="10.3928" y="0" fill="#f0f6fc" fill-rule="nonzero"/></g><path fill="none" stroke="#f0f6fc" stroke-width="0.75" stroke-linecap="round" stroke-linejoin="miter" stroke-miterlimit="4" transform="translate(209.646484436 41.833264)" d="M 0 0h 59.312633801"/><g transform="matrix(1 0 0 -1 231.519201336 38.8432)"><use xlink:href="#gD058DC99F421D147F94E6EFA894709D7" x="0" y="0" fill="#f0f6fc" fill-rule="nonzero"/><use xlink:href="#g998CF388D9BDC6A1A127C484CC777001" x="3.0184" y="0" fill="#f0f6fc" fill-rule="nonzero"/><use xlink:href="#g998CF388D9BDC6A1A127C484CC777001" x="6.7056" y="0" fill="#f0f6fc" fill-rule="nonzero"/><use xlink:href="#g6BB9AB3D0BC300C987DA5204021C9674" x="10.3928" y="0" fill="#f0f6fc" fill-rule="nonzero"/></g><path fill="none" stroke="#f0f6fc" stroke-width="0.75" stroke-linecap="round" stroke-linejoin="miter" stroke-miterlimit="4" transform="translate(281.615024937 41.833264)" d="M 0 0h 53.093130301"/><g transform="matrix(1 0 0 -1 299.836790087 38.8432)"><use xlink:href="#g93616CB162666DE35163AAAE031C1CF1" x="0" y="0" fill="#f0f6fc" fill-rule="nonzero"/><use xlink:href="#g9E0ED89280E8CF4FA95BAEE834E1E785" x="4.2944" y="0" fill="#f0f6fc" fill-rule="nonzero"/><use xlink:href="#gEF93DDE713A183364119D15F7D027D13" x="8.7296" y="0" fill="#f0f6fc" fill-rule="nonzero"/><use xlink:href="#g37CFB4C68BDE4973F34398CE8CFDB38A" x="10.9736" y="0" fill="#f0f6fc" fill-rule="nonzero"/></g><path fill="none" stroke="#f0f6fc" stroke-width="0.75" stroke-linecap="round" stroke-linejoin="miter" stroke-miterlimit="4" transform="translate(343.928526671 41.833264)" d="M 0 0h 23.7726138"/><g transform="matrix(1 0 0 -1 349.170833571 38.8432)"><use xlink:href="#gCA6C629618CE52F7F60E0323B580F5B4" x="0" y="0" fill="#f0f6fc" fill-rule="nonzero"/><use xlink:href="#gBE74D710048B02CCFD41A4956D9686D6" x="4.7872" y="0" fill="#f0f6fc" fill-rule="nonzero"/><use xlink:href="#g998CF388D9BDC6A1A127C484CC777001" x="9.6008" y="0" fill="#f0f6fc" fill-rule="nonzero"/></g><path fill="none" stroke="#f0f6fc" stroke-width="0.75" stroke-linecap="round" stroke-linejoin="miter" stroke-miterlimit="4" transform="translate(404.228093938 41.833264)" d="M 0 0h 35.8562206"/><g transform="matrix(1 0 0 -1 416.110604238 38.8432)"><use xlink:href="#gDB5A204D66460B741C7D1E2F104C4236" x="0" y="0" fill="#f0f6fc" fill-rule="nonzero"/><use xlink:href="#g609C4F68352CE490598BB54C4A6AE86D" x="2.8512" y="0" fill="#f0f6fc" fill-rule="nonzero"/><use xlink:href="#g8B5773A78F3501234AE33C08E3F71E13" x="7.7352" y="0" fill="#f0f6fc" fill-rule="nonzero"/></g><path fill="none" stroke="#f0f6fc" stroke-width="0.75" stroke-linecap="round" stroke-linejoin="miter" stroke-miterlimit="4" transform="translate(457.478890572 41.833264)" d="M 0 0h 52.382329901"/><g transform="matrix(1 0 0 -1 475.965655522 38.8432)"><use xlink:href="#gC63BACFA2C92540C94A09F3C9A643304" x="0" y="0" fill="#f0f6fc" fill-rule="nonzero"/><use xlink:href="#gBE74D710048B02CCFD41A4956D9686D6" x="2.1648" y="0" fill="#f0f6fc" fill-rule="nonzero"/><use xlink:href="#g998CF388D9BDC6A1A127C484CC777001" x="6.9784" y="0" fill="#f0f6fc" fill-rule="nonzero"/><use xlink:href="#gE2C5615CF2FA8D0C4E1F4BF7BDA7BB2" x="10.6656" y="0" fill="#f0f6fc" fill-rule="nonzero"/></g><path fill="none" stroke="#000000" stroke-width="0.75" stroke-linecap="round" stroke-linejoin="miter" stroke-miterlimit="4" transform="translate(0.029616683 63.2528)" d="M 0 0h 510.176987106"/><path fill="none" stroke="#000000" stroke-width="0.75" stroke-linecap="round" stroke-linejoin="miter" stroke-miterlimit="4" transform="translate(15.252591917 63.2528)" d="M 0 0v 4.25"/><g transform="matrix(1 0 0 -1 0.029616683 75.8108)"><use xlink:href="#g57BB1B6BCF82837A1305832B66ABFFD0" x="0" y="0" fill="#f0f6fc" fill-rule="nonzero"/><use xlink:href="#g88F34A4182110391A3E2BC1B5B84F8D2" x="4.3736" y="0" fill="#f0f6fc" fill-rule="nonzero"/><use xlink:href="#gDEB5DBCAA2BCEE2853B31F2085524FBF" x="8.7472" y="0" fill="#f0f6fc" fill-rule="nonzero"/><use xlink:href="#g26727C6473216C3E0A4061A40A71CDEF" x="13.1208" y="0" fill="#f0f6fc" fill-rule="nonzero"/><use xlink:href="#g9909855E05B850768966CE44F3FB779C" x="17.4944" y="0" fill="#f0f6fc" fill-rule="nonzero"/><use xlink:href="#g26727C6473216C3E0A4061A40A71CDEF" x="21.868" y="0" fill="#f0f6fc" fill-rule="nonzero"/><use xlink:href="#g26727C6473216C3E0A4061A40A71CDEF" x="26.2416" y="0" fill="#f0f6fc" fill-rule="nonzero"/><use xlink:href="#g471D828FBA62BEE47E29DC73C8D00F20" x="32.3752" y="0" fill="#f0f6fc" fill-rule="nonzero"/><use xlink:href="#gF1E4B05525243D22DA9E8A62ACD431A" x="37.2416" y="0" fill="#f0f6fc" fill-rule="nonzero"/></g><path fill="none" stroke="#000000" stroke-width="0.75" stroke-linecap="round" stroke-linejoin="miter" stroke-miterlimit="4" transform="translate(66.311753984 63.2528)" d="M 0 0v 4.25"/><g transform="matrix(1 0 0 -1 45.248953984 75.8108)"><use xlink:href="#g57BB1B6BCF82837A1305832B66ABFFD0" x="0" y="0" fill="#f0f6fc" fill-rule="nonzero"/><use xlink:href="#g88F34A4182110391A3E2BC1B5B84F8D2" x="4.3736" y="0" fill="#f0f6fc" fill-rule="nonzero"/><use xlink:href="#gDEB5DBCAA2BCEE2853B31F2085524FBF" x="8.7472" y="0" fill="#f0f6fc" fill-rule="nonzero"/><use xlink:href="#gF6C2D4E25A3C86587C1136CB44234A98" x="13.1208" y="0" fill="#f0f6fc" fill-rule="nonzero"/><use xlink:href="#gDEB5DBCAA2BCEE2853B31F2085524FBF" x="17.4944" y="0" fill="#f0f6fc" fill-rule="nonzero"/><use xlink:href="#g88F34A4182110391A3E2BC1B5B84F8D2" x="21.868" y="0" fill="#f0f6fc" fill-rule="nonzero"/><use xlink:href="#gDEB5DBCAA2BCEE2853B31F2085524FBF" x="26.2416" y="0" fill="#f0f6fc" fill-rule="nonzero"/><use xlink:href="#g471D828FBA62BEE47E29DC73C8D00F20" x="32.3752" y="0" fill="#f0f6fc" fill-rule="nonzero"/><use xlink:href="#gF1E4B05525243D22DA9E8A62ACD431A" x="37.2416" y="0" fill="#f0f6fc" fill-rule="nonzero"/></g><path fill="none" stroke="#000000" stroke-width="0.75" stroke-linecap="round" stroke-linejoin="miter" stroke-miterlimit="4" transform="translate(117.370916051 63.2528)" d="M 0 0v 4.25"/><g transform="matrix(1 0 0 -1 96.308116051 75.8108)"><use xlink:href="#g57BB1B6BCF82837A1305832B66ABFFD0" x="0" y="0" fill="#f0f6fc" fill-rule="nonzero"/><use xlink:href="#g88F34A4182110391A3E2BC1B5B84F8D2" x="4.3736" y="0" fill="#f0f6fc" fill-rule="nonzero"/><use xlink:href="#gDEB5DBCAA2BCEE2853B31F2085524FBF" x="8.7472" y="0" fill="#f0f6fc" fill-rule="nonzero"/><use xlink:href="#gDEB5DBCAA2BCEE2853B31F2085524FBF" x="13.1208" y="0" fill="#f0f6fc" fill-rule="nonzero"/><use xlink:href="#g26727C6473216C3E0A4061A40A71CDEF" x="17.4944" y="0" fill="#f0f6fc" fill-rule="nonzero"/><use xlink:href="#g9909855E05B850768966CE44F3FB779C" x="21.868" y="0" fill="#f0f6fc" fill-rule="nonzero"/><use xlink:href="#gEA846406FDD1A82621172F011B04C464" x="26.2416" y="0" fill="#f0f6fc" fill-rule="nonzero"/><use xlink:href="#g471D828FBA62BEE47E29DC73C8D00F20" x="32.3752" y="0" fill="#f0f6fc" fill-rule="nonzero"/><use xlink:href="#gF1E4B05525243D22DA9E8A62ACD431A" x="37.2416" y="0" fill="#f0f6fc" fill-rule="nonzero"/></g><path fill="none" stroke="#000000" stroke-width="0.75" stroke-linecap="round" stroke-linejoin="miter" stroke-miterlimit="4" transform="translate(168.430078119 63.2528)" d="M 0 0v 4.25"/><g transform="matrix(1 0 0 -1 147.367278119 75.8108)"><use xlink:href="#g57BB1B6BCF82837A1305832B66ABFFD0" x="0" y="0" fill="#f0f6fc" fill-rule="nonzero"/><use xlink:href="#g88F34A4182110391A3E2BC1B5B84F8D2" x="4.3736" y="0" fill="#f0f6fc" fill-rule="nonzero"/><use xlink:href="#gDEB5DBCAA2BCEE2853B31F2085524FBF" x="8.7472" y="0" fill="#f0f6fc" fill-rule="nonzero"/><use xlink:href="#g9909855E05B850768966CE44F3FB779C" x="13.1208" y="0" fill="#f0f6fc" fill-rule="nonzero"/><use xlink:href="#gA2884EF0FC11133C107E99650AC778E2" x="17.4944" y="0" fill="#f0f6fc" fill-rule="nonzero"/><use xlink:href="#gA2884EF0FC11133C107E99650AC778E2" x="21.868" y="0" fill="#f0f6fc" fill-rule="nonzero"/><use xlink:href="#g88F34A4182110391A3E2BC1B5B84F8D2" x="26.2416" y="0" fill="#f0f6fc" fill-rule="nonzero"/><use xlink:href="#g471D828FBA62BEE47E29DC73C8D00F20" x="32.3752" y="0" fill="#f0f6fc" fill-rule="nonzero"/><use xlink:href="#gF1E4B05525243D22DA9E8A62ACD431A" x="37.2416" y="0" fill="#f0f6fc" fill-rule="nonzero"/></g><path fill="none" stroke="#000000" stroke-width="0.75" stroke-linecap="round" stroke-linejoin="miter" stroke-miterlimit="4" transform="translate(219.489240186 63.2528)" d="M 0 0v 4.25"/><g transform="matrix(1 0 0 -1 198.426440186 75.8108)"><use xlink:href="#g57BB1B6BCF82837A1305832B66ABFFD0" x="0" y="0" fill="#f0f6fc" fill-rule="nonzero"/><use xlink:href="#g88F34A4182110391A3E2BC1B5B84F8D2" x="4.3736" y="0" fill="#f0f6fc" fill-rule="nonzero"/><use xlink:href="#g9909855E05B850768966CE44F3FB779C" x="8.7472" y="0" fill="#f0f6fc" fill-rule="nonzero"/><use xlink:href="#gEA846406FDD1A82621172F011B04C464" x="13.1208" y="0" fill="#f0f6fc" fill-rule="nonzero"/><use xlink:href="#g67C34E9D9149550C1F8F2A5475AFAEA9" x="17.4944" y="0" fill="#f0f6fc" fill-rule="nonzero"/><use xlink:href="#g57BB1B6BCF82837A1305832B66ABFFD0" x="21.868" y="0" fill="#f0f6fc" fill-rule="nonzero"/><use xlink:href="#g67C34E9D9149550C1F8F2A5475AFAEA9" x="26.2416" y="0" fill="#f0f6fc" fill-rule="nonzero"/><use xlink:href="#g471D828FBA62BEE47E29DC73C8D00F20" x="32.3752" y="0" fill="#f0f6fc" fill-rule="nonzero"/><use xlink:href="#gF1E4B05525243D22DA9E8A62ACD431A" x="37.2416" y="0" fill="#f0f6fc" fill-rule="nonzero"/></g><path fill="none" stroke="#000000" stroke-width="0.75" stroke-linecap="round" stroke-linejoin="miter" stroke-miterlimit="4" transform="translate(270.548402253 63.2528)" d="M 0 0v 4.25"/><g transform="matrix(1 0 0 -1 249.485602253 75.8108)"><use xlink:href="#g57BB1B6BCF82837A1305832B66ABFFD0" x="0" y="0" fill="#f0f6fc" fill-rule="nonzero"/><use xlink:href="#g88F34A4182110391A3E2BC1B5B84F8D2" x="4.3736" y="0" fill="#f0f6fc" fill-rule="nonzero"/><use xlink:href="#g9909855E05B850768966CE44F3FB779C" x="8.7472" y="0" fill="#f0f6fc" fill-rule="nonzero"/><use xlink:href="#g57BB1B6BCF82837A1305832B66ABFFD0" x="13.1208" y="0" fill="#f0f6fc" fill-rule="nonzero"/><use xlink:href="#g88F34A4182110391A3E2BC1B5B84F8D2" x="17.4944" y="0" fill="#f0f6fc" fill-rule="nonzero"/><use xlink:href="#gF6C2D4E25A3C86587C1136CB44234A98" x="21.868" y="0" fill="#f0f6fc" fill-rule="nonzero"/><use xlink:href="#g26727C6473216C3E0A4061A40A71CDEF" x="26.2416" y="0" fill="#f0f6fc" fill-rule="nonzero"/><use xlink:href="#g471D828FBA62BEE47E29DC73C8D00F20" x="32.3752" y="0" fill="#f0f6fc" fill-rule="nonzero"/><use xlink:href="#gF1E4B05525243D22DA9E8A62ACD431A" x="37.2416" y="0" fill="#f0f6fc" fill-rule="nonzero"/></g><path fill="none" stroke="#000000" stroke-width="0.75" stroke-linecap="round" stroke-linejoin="miter" stroke-miterlimit="4" transform="translate(321.60756432 63.2528)" d="M 0 0v 4.25"/><g transform="matrix(1 0 0 -1 300.54476432 75.8108)"><use xlink:href="#g57BB1B6BCF82837A1305832B66ABFFD0" x="0" y="0" fill="#f0f6fc" fill-rule="nonzero"/><use xlink:href="#g88F34A4182110391A3E2BC1B5B84F8D2" x="4.3736" y="0" fill="#f0f6fc" fill-rule="nonzero"/><use xlink:href="#g9909855E05B850768966CE44F3FB779C" x="8.7472" y="0" fill="#f0f6fc" fill-rule="nonzero"/><use xlink:href="#g88F34A4182110391A3E2BC1B5B84F8D2" x="13.1208" y="0" fill="#f0f6fc" fill-rule="nonzero"/><use xlink:href="#g57BB1B6BCF82837A1305832B66ABFFD0" x="17.4944" y="0" fill="#f0f6fc" fill-rule="nonzero"/><use xlink:href="#gACB6E822F2354942238F353D3065C2DF" x="21.868" y="0" fill="#f0f6fc" fill-rule="nonzero"/><use xlink:href="#gDEB5DBCAA2BCEE2853B31F2085524FBF" x="26.2416" y="0" fill="#f0f6fc" fill-rule="nonzero"/><use xlink:href="#g471D828FBA62BEE47E29DC73C8D00F20" x="32.3752" y="0" fill="#f0f6fc" fill-rule="nonzero"/><use xlink:href="#gF1E4B05525243D22DA9E8A62ACD431A" x="37.2416" y="0" fill="#f0f6fc" fill-rule="nonzero"/></g><path fill="none" stroke="#000000" stroke-width="0.75" stroke-linecap="round" stroke-linejoin="miter" stroke-miterlimit="4" transform="translate(372.666726388 63.2528)" d="M 0 0v 4.25"/><g transform="matrix(1 0 0 -1 351.603926388 75.8108)"><use xlink:href="#g57BB1B6BCF82837A1305832B66ABFFD0" x="0" y="0" fill="#f0f6fc" fill-rule="nonzero"/><use xlink:href="#g88F34A4182110391A3E2BC1B5B84F8D2" x="4.3736" y="0" fill="#f0f6fc" fill-rule="nonzero"/><use xlink:href="#g9909855E05B850768966CE44F3FB779C" x="8.7472" y="0" fill="#f0f6fc" fill-rule="nonzero"/><use xlink:href="#gACB6E822F2354942238F353D3065C2DF" x="13.1208" y="0" fill="#f0f6fc" fill-rule="nonzero"/><use xlink:href="#gEA846406FDD1A82621172F011B04C464" x="17.4944" y="0" fill="#f0f6fc" fill-rule="nonzero"/><use xlink:href="#gEA846406FDD1A82621172F011B04C464" x="21.868" y="0" fill="#f0f6fc" fill-rule="nonzero"/><use xlink:href="#gEA846406FDD1A82621172F011B04C464" x="26.2416" y="0" fill="#f0f6fc" fill-rule="nonzero"/><use xlink:href="#g471D828FBA62BEE47E29DC73C8D00F20" x="32.3752" y="0" fill="#f0f6fc" fill-rule="nonzero"/><use xlink:href="#gF1E4B05525243D22DA9E8A62ACD431A" x="37.2416" y="0" fill="#f0f6fc" fill-rule="nonzero"/></g><path fill="none" stroke="#000000" stroke-width="0.75" stroke-linecap="round" stroke-linejoin="miter" stroke-miterlimit="4" transform="translate(423.725888455 63.2528)" d="M 0 0v 4.25"/><g transform="matrix(1 0 0 -1 402.663088455 75.8108)"><use xlink:href="#g57BB1B6BCF82837A1305832B66ABFFD0" x="0" y="0" fill="#f0f6fc" fill-rule="nonzero"/><use xlink:href="#g88F34A4182110391A3E2BC1B5B84F8D2" x="4.3736" y="0" fill="#f0f6fc" fill-rule="nonzero"/><use xlink:href="#g9909855E05B850768966CE44F3FB779C" x="8.7472" y="0" fill="#f0f6fc" fill-rule="nonzero"/><use xlink:href="#gACB6E822F2354942238F353D3065C2DF" x="13.1208" y="0" fill="#f0f6fc" fill-rule="nonzero"/><use xlink:href="#gDEB5DBCAA2BCEE2853B31F2085524FBF" x="17.4944" y="0" fill="#f0f6fc" fill-rule="nonzero"/><use xlink:href="#g26727C6473216C3E0A4061A40A71CDEF" x="21.868" y="0" fill="#f0f6fc" fill-rule="nonzero"/><use xlink:href="#g88F34A4182110391A3E2BC1B5B84F8D2" x="26.2416" y="0" fill="#f0f6fc" fill-rule="nonzero"/><use xlink:href="#g471D828FBA62BEE47E29DC73C8D00F20" x="32.3752" y="0" fill="#f0f6fc" fill-rule="nonzero"/><use xlink:href="#gF1E4B05525243D22DA9E8A62ACD431A" x="37.2416" y="0" fill="#f0f6fc" fill-rule="nonzero"/></g><path fill="none" stroke="#000000" stroke-width="0.75" stroke-linecap="round" stroke-linejoin="miter" stroke-miterlimit="4" transform="translate(474.785050522 63.2528)" d="M 0 0v 4.25"/><g transform="matrix(1 0 0 -1 453.722250522 75.8108)"><use xlink:href="#g57BB1B6BCF82837A1305832B66ABFFD0" x="0" y="0" fill="#f0f6fc" fill-rule="nonzero"/><use xlink:href="#g88F34A4182110391A3E2BC1B5B84F8D2" x="4.3736" y="0" fill="#f0f6fc" fill-rule="nonzero"/><use xlink:href="#g9909855E05B850768966CE44F3FB779C" x="8.7472" y="0" fill="#f0f6fc" fill-rule="nonzero"/><use xlink:href="#g67C34E9D9149550C1F8F2A5475AFAEA9" x="13.1208" y="0" fill="#f0f6fc" fill-rule="nonzero"/><use xlink:href="#gF6C2D4E25A3C86587C1136CB44234A98" x="17.4944" y="0" fill="#f0f6fc" fill-rule="nonzero"/><use xlink:href="#g88F34A4182110391A3E2BC1B5B84F8D2" x="21.868" y="0" fill="#f0f6fc" fill-rule="nonzero"/><use xlink:href="#g67C34E9D9149550C1F8F2A5475AFAEA9" x="26.2416" y="0" fill="#f0f6fc" fill-rule="nonzero"/><use xlink:href="#g471D828FBA62BEE47E29DC73C8D00F20" x="32.3752" y="0" fill="#f0f6fc" fill-rule="nonzero"/><use xlink:href="#gF1E4B05525243D22DA9E8A62ACD431A" x="37.2416" y="0" fill="#f0f6fc" fill-rule="nonzero"/></g></g></g><path fill="#56b4e9" fill-rule="nonzero" stroke="#f0f6fc" stroke-width="0.7" stroke-linecap="butt" stroke-linejoin="miter" stroke-miterlimit="4" transform="translate(165.984566929 102.8796)" d="M 0 0m 0 4.62c 0 -2.54924208 2.07075792 -4.62 4.62 -4.62c 2.54924208 0 4.62 2.07075792 4.62 4.62c 0 2.54924208 -2.07075792 4.62 -4.62 4.62c -2.54924208 0 -4.62 -2.07075792 -4.62 -4.62"/><g transform="matrix(1 0 0 -1 180.174566929 110.4696)"><use xlink:href="#gBB8027237AF3D1BA2291050A51A0C752" x="0" y="0" fill="#f0f6fc" fill-rule="nonzero"/><use xlink:href="#gD05E2F67A834D8E6349C25DC095E0700" x="5.4" y="0" fill="#f0f6fc" fill-rule="nonzero"/><use xlink:href="#g36419E8EB6816FD73F5DEF4772DCD16E" x="10.8" y="0" fill="#f0f6fc" fill-rule="nonzero"/></g><path fill="#7ad598" fill-rule="nonzero" stroke="#f0f6fc" stroke-width="0.7" stroke-linecap="butt" stroke-linejoin="miter" stroke-miterlimit="4" transform="translate(216.174566929 102.8796)" d="M 0 0m 0 4.62c 0 -2.54924208 2.07075792 -4.62 4.62 -4.62c 2.54924208 0 4.62 2.07075792 4.62 4.62c 0 2.54924208 -2.07075792 4.62 -4.62 4.62c -2.54924208 0 -4.62 -2.07075792 -4.62 -4.62"/><g transform="matrix(1 0 0 -1 230.364566929 110.4696)"><use xlink:href="#g289DE0BEC1D9638E461EE12D12238AD6" x="0" y="0" fill="#f0f6fc" fill-rule="nonzero"/><use xlink:href="#gC26575EA3946169553831169C1DB5BBE" x="5.4" y="0" fill="#f0f6fc" fill-rule="nonzero"/><use xlink:href="#gEE750FCF8B456577190EFA3DFDAB9723" x="10.8" y="0" fill="#f0f6fc" fill-rule="nonzero"/><use xlink:href="#g95499300297AFE7CD5AA5D10B56E875A" x="16.2" y="0" fill="#f0f6fc" fill-rule="nonzero"/></g><path fill="#c98ce6" fill-rule="nonzero" stroke="#f0f6fc" stroke-width="0.7" stroke-linecap="butt" stroke-linejoin="miter" stroke-miterlimit="4" transform="translate(271.764566929 102.8796)" d="M 0 0m 0 4.62c 0 -2.54924208 2.07075792 -4.62 4.62 -4.62c 2.54924208 0 4.62 2.07075792 4.62 4.62c 0 2.54924208 -2.07075792 4.62 -4.62 4.62c -2.54924208 0 -4.62 -2.07075792 -4.62 -4.62"/><g transform="matrix(1 0 0 -1 285.954566929 110.4696)"><use xlink:href="#gCEC3D3FB4A5C985EB61FB35C27852968" x="0" y="0" fill="#f0f6fc" fill-rule="nonzero"/><use xlink:href="#g1F7415284BE21D6DB2D2CB4C9165CD86" x="5.4" y="0" fill="#f0f6fc" fill-rule="nonzero"/><use xlink:href="#gC26575EA3946169553831169C1DB5BBE" x="10.8" y="0" fill="#f0f6fc" fill-rule="nonzero"/><use xlink:href="#gEE750FCF8B456577190EFA3DFDAB9723" x="16.2" y="0" fill="#f0f6fc" fill-rule="nonzero"/><use xlink:href="#g95499300297AFE7CD5AA5D10B56E875A" x="21.6" y="0" fill="#f0f6fc" fill-rule="nonzero"/></g><path fill="#84848e" fill-rule="nonzero" stroke="#f0f6fc" stroke-width="0.7" stroke-linecap="butt" stroke-linejoin="miter" stroke-miterlimit="4" transform="translate(332.754566929 102.8796)" d="M 0 0m 0 4.62c 0 -2.54924208 2.07075792 -4.62 4.62 -4.62c 2.54924208 0 4.62 2.07075792 4.62 4.62c 0 2.54924208 -2.07075792 4.62 -4.62 4.62c -2.54924208 0 -4.62 -2.07075792 -4.62 -4.62"/><g transform="matrix(1 0 0 -1 346.944566929 110.4696)"><use xlink:href="#gE39933C183C9E05A8D7DDA57DDD095F2" x="0" y="0" fill="#f0f6fc" fill-rule="nonzero"/><use xlink:href="#g5DB30F223BF9499E85DAC202D05E3CA9" x="5.4" y="0" fill="#f0f6fc" fill-rule="nonzero"/><use xlink:href="#g9E705747B6C3A61035CF3BCB01F3DAB8" x="10.8" y="0" fill="#f0f6fc" fill-rule="nonzero"/><use xlink:href="#gE4D8F329E947F79A4F8BD618295DA" x="16.2" y="0" fill="#f0f6fc" fill-rule="nonzero"/><use xlink:href="#gAF79852A019E293EC2FB72A49ED6B007" x="21.6" y="0" fill="#f0f6fc" fill-rule="nonzero"/><use xlink:href="#gA5E824DA8D0C22EDBB5C7DED6347A9DE" x="27" y="0" fill="#f0f6fc" fill-rule="nonzero"/><use xlink:href="#gDC12D884AD9961D3DAE0E694887A6A95" x="32.4" y="0" fill="#f0f6fc" fill-rule="nonzero"/><use xlink:href="#g9E705747B6C3A61035CF3BCB01F3DAB8" x="37.8" y="0" fill="#f0f6fc" fill-rule="nonzero"/><use xlink:href="#gCEC3D3FB4A5C985EB61FB35C27852968" x="43.2" y="0" fill="#f0f6fc" fill-rule="nonzero"/><use xlink:href="#g9E705747B6C3A61035CF3BCB01F3DAB8" x="48.6" y="0" fill="#f0f6fc" fill-rule="nonzero"/></g><defs><symbol id="g4EDB453E5A519765AE2CD1DF1F94DE6F" overflow="visible"><path d="M 0 0m 0.792 -1.8392c 0.8624 0 1.3024 0.6424 1.6016 1.4872l 1.6104 4.6288h -0.704l -0.7656 -2.3672c -0.1144 -0.3784 -0.2376 -0.8184 -0.3608 -1.2056h -0.0352c -0.132 0.396 -0.2816 0.836 -0.4136 1.2056l -0.8712 2.3672h -0.748l 1.716 -4.2856l -0.0968 -0.3168c -0.176 -0.528 -0.484 -0.9152 -0.968 -0.9152c -0.0968 0 -0.2024 0.0176 -0.308 0.0528l -0.1584 -0.5632c 0.1408 -0.0528 0.308 -0.088 0.5016 -0.088Z "/></symbol><symbol id="g707A8ED56964983505B9ADF58767761E" overflow="visible"><path d="M 0 0m 2.42 -0.1056c 0.5456 0 1.0208 0.22 1.3728 0.5632l -0.3168 0.44c -0.2552 -0.2376 -0.6072 -0.4048 -0.9944 -0.4048c -0.792 0 -1.3288 0.66 -1.3288 1.6368c 0 0.9856 0.572 1.6544 1.3376 1.6544c 0.3696 0 0.6424 -0.1408 0.8624 -0.3432l 0.3608 0.44c -0.2904 0.2904 -0.6864 0.5016 -1.2496 0.5016c -1.1 0 -2.0592 -0.8184 -2.0592 -2.2528c 0 -1.4168 0.8712 -2.2352 2.0152 -2.2352Z "/></symbol><symbol id="gCA6C629618CE52F7F60E0323B580F5B4" overflow="visible"><path d="M 0 0m 0.7216 0h 0.7216v 3.0976c 0.4312 0.4312 0.7304 0.66 1.1704 0.66c 0.5632 0 0.8096 -0.3432 0.8096 -1.144v -2.6136h 0.7216v 2.7104c 0 1.0912 -0.4048 1.672 -1.3024 1.672c -0.5896 0 -1.0208 -0.3168 -1.4256 -0.704l 0.0264 0.88v 1.7072h -0.7216Z "/></symbol><symbol id="g284EAF9614D338FAABA455B680095254" overflow="visible"><path d="M 0 0m 2.3936 -0.1056c 1.2232 0 1.9624 0.7304 1.9624 1.6456c 0 0.8536 -0.5016 1.2496 -1.188 1.54l -0.8184 0.352c -0.4576 0.1936 -0.9592 0.4048 -0.9592 0.9592c 0 0.5192 0.4312 0.8448 1.0736 0.8448c 0.5104 0 0.9504 -0.2112 1.3112 -0.528l 0.396 0.4752c -0.4048 0.4048 -1.0032 0.6952 -1.7072 0.6952c -1.056 0 -1.8128 -0.6512 -1.8128 -1.5312c 0 -0.836 0.616 -1.2496 1.1704 -1.4872l 0.8272 -0.3608c 0.5456 -0.2464 0.9592 -0.4312 0.9592 -1.0208c 0 -0.5632 -0.4488 -0.9416 -1.2056 -0.9416c -0.616 0 -1.2056 0.264 -1.6192 0.6952l -0.4136 -0.4752c 0.5016 -0.5368 1.1968 -0.8624 2.024 -0.8624Z "/></symbol><symbol id="gDB5A204D66460B741C7D1E2F104C4236" overflow="visible"><path d="M 0 0m 2.068 -0.0792c 0.2904 0 0.572 0.0704 0.8008 0.1848l -0.1496 0.5104c -0.1672 -0.0792 -0.3344 -0.1056 -0.484 -0.1056c -0.4928 0 -0.66 0.2992 -0.66 0.8184v 2.3584h 1.1528v 0.5896h -1.1528v 1.3728h -0.6072l -0.088 -1.3728l -0.6688 -0.044v -0.5456h 0.6336v -2.3408c 0 -0.8536 0.308 -1.4256 1.2232 -1.4256Z "/></symbol><symbol id="gF1E4B05525243D22DA9E8A62ACD431A" overflow="visible"><path d="M 0 0m 0.7216 -1.804h 0.7216v 1.4432l -0.0176 0.748c 0.396 -0.308 0.792 -0.4928 1.188 -0.4928c 0.9768 0 1.848 0.8536 1.848 2.3056c 0 1.3288 -0.5896 2.1824 -1.6896 2.1824c -0.5016 0 -0.9768 -0.2728 -1.364 -0.5984h -0.0264l -0.0616 0.4928h -0.5984Z m 1.7688 2.3056c -0.2816 0 -0.66 0.1232 -1.0472 0.4488v 2.244c 0.4224 0.3784 0.7832 0.5808 1.144 0.5808c 0.8096 0 1.1264 -0.6336 1.1264 -1.5752c 0 -1.056 -0.5192 -1.6984 -1.2232 -1.6984Z "/></symbol><symbol id="gD058DC99F421D147F94E6EFA894709D7" overflow="visible"><path d="M 0 0m 0.7216 0h 0.7216v 2.7456c 0.2904 0.7216 0.7216 0.9856 1.0824 0.9856c 0.176 0 0.264 -0.0176 0.396 -0.0528l 0.1584 0.616c -0.1408 0.0616 -0.2728 0.088 -0.4576 0.088c -0.4928 0 -0.9328 -0.3432 -1.2144 -0.88h -0.0264l -0.0616 0.7744h -0.5984Z "/></symbol><symbol id="g44BE9BC637AB96922F228395043856C4" overflow="visible"><path d="M 0 0m 0.792 0h 0.7304v 2.4376h 1.0472l 1.3904 -2.4376h 0.8272l -1.4696 2.5168c 0.792 0.1936 1.3024 0.7392 1.3024 1.6368c 0 1.1968 -0.8448 1.6192 -2.024 1.6192h -1.804Z m 0.7304 3.036v 2.1472h 0.968c 0.8976 0 1.3992 -0.2728 1.3992 -1.0296c 0 -0.748 -0.5016 -1.1176 -1.3992 -1.1176Z "/></symbol><symbol id="g51F6077E1A8348273F2985CCD6AEBD5" overflow="visible"><path d="M 0 0m 1.8128 0h 0.8536l 1.8656 5.7728h -0.748l -0.9592 -3.1152c -0.2112 -0.6952 -0.352 -1.2232 -0.5544 -1.9096h -0.0352c -0.2024 0.6864 -0.3608 1.2144 -0.5632 1.9096l -0.8888 3.1152h -0.7832Z "/></symbol><symbol id="g556474986B64BBC93B72BE0ACB6A67A7" overflow="visible"><path d="M 0 0m 1.9888 0h 0.7392v 5.1568h 1.7424v 0.616h -4.224v -0.616h 1.7424Z "/></symbol><symbol id="g35CE3506E6F4DCF72ADA30CC9EB70462" overflow="visible"><path d="M 0 0m 1.9712 -0.1056c 0.5896 0 1.012 0.308 1.408 0.7744h 0.0264l 0.0616 -0.6688h 0.5984v 4.2768h -0.7216v -3.036c -0.4048 -0.5016 -0.7128 -0.7216 -1.1528 -0.7216c -0.5632 0 -0.8008 0.3432 -0.8008 1.144v 2.6136h -0.7304v -2.7104c 0 -1.0912 0.4048 -1.672 1.3112 -1.672Z "/></symbol><symbol id="g37CFB4C68BDE4973F34398CE8CFDB38A" overflow="visible"><path d="M 0 0m 2.8424 -0.1056c 1.1792 0 2.068 0.6248 2.068 2.4552v 3.4232h -0.704v -3.4408c 0 -1.364 -0.5984 -1.7952 -1.364 -1.7952c -0.7568 0 -1.3464 0.4312 -1.3464 1.7952v 3.4408h -0.7304v -3.4232c 0 -1.8304 0.8976 -2.4552 2.0768 -2.4552Z "/></symbol><symbol id="gFA6EAA988D824441849E4BFFDE5DCBC" overflow="visible"><path d="M 0 0m 1.8216 -0.1056c 1.1616 0 1.6368 0.8096 1.6368 1.8216v 4.0568h -0.7392v -3.9864c 0 -0.8888 -0.308 -1.2496 -0.9416 -1.2496c -0.4224 0 -0.748 0.1936 -0.9944 0.616l -0.4928 -0.3256c 0.3168 -0.6248 0.836 -0.9328 1.5312 -0.9328Z "/></symbol><symbol id="g998CF388D9BDC6A1A127C484CC777001" overflow="visible"><path d="M 0 0m 1.8392 -0.1056c 1.012 0 1.5664 0.5808 1.5664 1.276c 0 0.7744 -0.6512 1.0648 -1.32 1.3024c -0.528 0.1848 -0.9064 0.3432 -0.9064 0.7304c 0 0.3256 0.2464 0.616 0.7832 0.616c 0.3872 0 0.6952 -0.1232 0.9944 -0.3344l 0.3344 0.4136c -0.3344 0.2816 -0.8008 0.484 -1.3288 0.484c -0.9328 0 -1.4784 -0.528 -1.4784 -1.2144c 0 -0.704 0.616 -1.012 1.2584 -1.2408c 0.484 -0.176 0.968 -0.3608 0.968 -0.8008c 0 -0.3696 -0.2816 -0.6688 -0.8448 -0.6688c -0.528 0 -0.9152 0.1672 -1.2848 0.4752l -0.3344 -0.4224c 0.396 -0.3872 0.968 -0.616 1.5928 -0.616Z "/></symbol><symbol id="g559841ACD97AFBFB42B0D5739191C87F" overflow="visible"><path d="M 0 0m 1.7864 3.2296c 0.2112 0.6424 0.396 1.276 0.572 1.9448h 0.0352c 0.1848 -0.6688 0.3696 -1.3024 0.5808 -1.9448l 0.2728 -0.88h -1.7336Z m -1.76 -3.2296h 0.748l 0.5544 1.76h 2.1032l 0.5456 -1.76h 0.7832l -1.9536 5.7728h -0.8272Z "/></symbol><symbol id="g6BB9AB3D0BC300C987DA5204021C9674" overflow="visible"><path d="M 0 0m 0.792 0h 1.8392c 1.2936 0 2.1912 0.5632 2.1912 1.716c 0 0.7744 -0.4576 1.2232 -1.1792 1.3552v 0.0352c 0.5456 0.176 0.8448 0.66 0.8448 1.2584c 0 1.012 -0.8096 1.408 -1.98 1.408h -1.716Z m 0.7304 3.3176v 1.8744h 0.8888c 0.8976 0 1.3552 -0.2552 1.3552 -0.924c 0 -0.5896 -0.4048 -0.9504 -1.3904 -0.9504Z m 0 -2.7368v 2.1736h 1.0032c 1.012 0 1.5752 -0.3256 1.5752 -1.0384c 0 -0.7744 -0.5808 -1.1352 -1.5752 -1.1352Z "/></symbol><symbol id="g93616CB162666DE35163AAAE031C1CF1" overflow="visible"><path d="M 0 0m 2.1648 -1.9712c 1.3288 0 2.1648 0.6864 2.1648 1.4784c 0 0.7128 -0.5016 1.0208 -1.496 1.0208h -0.8272c -0.5808 0 -0.7568 0.1936 -0.7568 0.4664c 0 0.2376 0.1232 0.3784 0.2728 0.5104c 0.1936 -0.0968 0.4312 -0.1496 0.6424 -0.1496c 0.8712 0 1.5664 0.572 1.5664 1.4784c 0 0.3872 -0.1584 0.6688 -0.3608 0.8536v 0.0352h 0.8888v 0.5544h -1.4872c -0.1584 0.0616 -0.3696 0.1056 -0.6072 0.1056c -0.8712 0 -1.6104 -0.5896 -1.6104 -1.5224c 0 -0.5104 0.2728 -0.924 0.5544 -1.1528v -0.0352c -0.22 -0.1496 -0.4664 -0.4312 -0.4664 -0.792c 0 -0.3344 0.1672 -0.5632 0.3784 -0.6952v -0.0352c -0.3872 -0.264 -0.6248 -0.6072 -0.6248 -0.968c 0 -0.7392 0.7216 -1.1528 1.7688 -1.1528Z m 0 3.8104c -0.4928 0 -0.9064 0.396 -0.9064 1.0208c 0 0.6248 0.4048 0.9944 0.9064 0.9944c 0.5016 0 0.9064 -0.3696 0.9064 -0.9944c 0 -0.6248 -0.4136 -1.0208 -0.9064 -1.0208Z m 0.1056 -3.3088c -0.7744 0 -1.2408 0.2904 -1.2408 0.748c 0 0.2464 0.132 0.5016 0.44 0.7216c 0.1848 -0.0528 0.3872 -0.0704 0.5544 -0.0704h 0.7392c 0.5544 0 0.8624 -0.132 0.8624 -0.528c 0 -0.4488 -0.5368 -0.8712 -1.3552 -0.8712Z "/></symbol><symbol id="g9E0ED89280E8CF4FA95BAEE834E1E785" overflow="visible"><path d="M 0 0m 1.7072 -0.1056c 0.5368 0 0.9944 0.2728 1.4168 0.616h 0.0264l 0.0616 -0.5104h 0.5984v 2.6224c 0 1.0648 -0.4488 1.76 -1.4872 1.76c -0.6864 0 -1.2848 -0.2904 -1.6808 -0.5544l 0.2816 -0.4928c 0.3344 0.2112 0.7832 0.44 1.276 0.44c 0.6952 0 0.88 -0.5192 0.8888 -1.056c -1.8304 -0.2024 -2.64 -0.6512 -2.64 -1.6104c 0 -0.7744 0.5456 -1.2144 1.2584 -1.2144Z m 0.2024 0.5984c -0.4136 0 -0.748 0.1848 -0.748 0.66c 0 0.5544 0.484 0.88 1.9272 1.0472v -1.1528c -0.4136 -0.3696 -0.7656 -0.5544 -1.1792 -0.5544Z "/></symbol><symbol id="gEF93DDE713A183364119D15F7D027D13" overflow="visible"><path d="M 0 0m 1.4872 -0.0792c 0.176 0 0.3168 0.0264 0.4136 0.0704l -0.0968 0.5456c -0.0704 -0.0176 -0.1056 -0.0176 -0.1496 -0.0176c -0.1144 0 -0.2112 0.0792 -0.2112 0.308v 5.4384h -0.7216v -5.3856c 0 -0.616 0.22 -0.9592 0.7656 -0.9592Z "/></symbol><symbol id="gBE74D710048B02CCFD41A4956D9686D6" overflow="visible"><path d="M 0 0m 0.7216 0h 0.7216v 3.0976c 0.4312 0.4312 0.7304 0.66 1.1704 0.66c 0.5632 0 0.8096 -0.3432 0.8096 -1.144v -2.6136h 0.7216v 2.7104c 0 1.0912 -0.4048 1.672 -1.3024 1.672c -0.5896 0 -1.0296 -0.3168 -1.4344 -0.7216h -0.0264l -0.0616 0.616h -0.5984Z "/></symbol><symbol id="g609C4F68352CE490598BB54C4A6AE86D" overflow="visible"><path d="M 0 0m 2.1824 -0.1056c 0.5016 0 0.9592 0.2816 1.2936 0.6072h 0.0264l 0.0616 -0.5016h 0.5984v 6.2656h -0.7304v -1.6456l 0.0352 -0.7304c -0.3784 0.308 -0.704 0.4928 -1.1968 0.4928c -0.9768 0 -1.8568 -0.8624 -1.8568 -2.2528c 0 -1.4256 0.6952 -2.2352 1.7688 -2.2352Z m 0.1584 0.6072c -0.748 0 -1.1792 0.616 -1.1792 1.6368c 0 0.9768 0.5456 1.6368 1.232 1.6368c 0.352 0 0.6776 -0.1232 1.0384 -0.4488v -2.2352c -0.352 -0.396 -0.6952 -0.5896 -1.0912 -0.5896Z "/></symbol><symbol id="g8B5773A78F3501234AE33C08E3F71E13" overflow="visible"><path d="M 0 0m 0.7216 0h 0.7216v 1.1264l 0.792 0.9328l 1.2496 -2.0592h 0.792l -1.6192 2.552l 1.4256 1.7248h -0.8096l -1.8128 -2.244h -0.0176v 4.2328h -0.7216Z "/></symbol><symbol id="gC63BACFA2C92540C94A09F3C9A643304" overflow="visible"><path d="M 0 0m 0.7216 0h 0.7216v 4.2768h -0.7216Z m 0.3608 5.1568c 0.2816 0 0.484 0.1848 0.484 0.4752c 0 0.2816 -0.2024 0.4752 -0.484 0.4752c -0.2816 0 -0.484 -0.1936 -0.484 -0.4752c 0 -0.2904 0.2024 -0.4752 0.484 -0.4752Z "/></symbol><symbol id="gE2C5615CF2FA8D0C4E1F4BF7BDA7BB2" overflow="visible"><path d="M 0 0m 0.396 0h 3.9776v 0.6248h -3.0712l 3.0448 4.7168v 0.4312h -3.6784v -0.616h 2.7632l -3.036 -4.7168Z "/></symbol><symbol id="g57BB1B6BCF82837A1305832B66ABFFD0" overflow="visible"><path d="M 0 0m 0.6952 0h 3.168v 0.5984h -1.1616v 5.016h -0.5544c -0.308 -0.1848 -0.6776 -0.3256 -1.188 -0.4136v -0.4664h 1.0208v -4.136h -1.2848Z "/></symbol><symbol id="g88F34A4182110391A3E2BC1B5B84F8D2" overflow="visible"><path d="M 0 0m 0.352 0h 3.6256v 0.6248h -1.6896c -0.2904 0 -0.6336 -0.0264 -0.9416 -0.0528c 1.364 1.3992 2.3496 2.4112 2.3496 3.5024c 0 0.9856 -0.6424 1.6456 -1.6808 1.6456c -0.7216 0 -1.2232 -0.3432 -1.6896 -0.8712l 0.4048 -0.396c 0.3256 0.3784 0.7304 0.6776 1.1968 0.6776c 0.7128 0 1.0648 -0.4576 1.0648 -1.1c 0 -0.9064 -0.9592 -1.9448 -2.64 -3.5904Z "/></symbol><symbol id="gDEB5DBCAA2BCEE2853B31F2085524FBF" overflow="visible"><path d="M 0 0m 2.2 -0.1056c 1.0912 0 1.8128 0.66 1.8128 1.496c 0 0.7568 -0.4752 1.1528 -0.9768 1.4432v 0.0352c 0.3432 0.264 0.7744 0.7656 0.7744 1.3552c 0 0.8712 -0.6072 1.496 -1.584 1.496c -0.9064 0 -1.5928 -0.5808 -1.5928 -1.4432c 0 -0.5896 0.3696 -1.0032 0.7832 -1.2936v -0.0352c -0.528 -0.2816 -1.056 -0.7832 -1.056 -1.5136c 0 -0.8888 0.7832 -1.54 1.8392 -1.54Z m 0.396 3.168c -0.6776 0.264 -1.2936 0.5456 -1.2936 1.2144c 0 0.5456 0.3872 0.9064 0.9064 0.9064c 0.616 0 0.9768 -0.44 0.9768 -0.9944c 0 -0.4136 -0.2112 -0.792 -0.5896 -1.1264Z m -0.3784 -2.6312c -0.6864 0 -1.2056 0.4488 -1.2056 1.0736c 0 0.5104 0.3344 0.924 0.7832 1.2232c 0.8096 -0.3256 1.5224 -0.5896 1.5224 -1.3112c 0 -0.5808 -0.4488 -0.9856 -1.1 -0.9856Z "/></symbol><symbol id="g26727C6473216C3E0A4061A40A71CDEF" overflow="visible"><path d="M 0 0m 2.2968 2.8864c 0.6952 0 1.0384 -0.4576 1.0384 -1.188c 0 -0.7392 -0.4224 -1.232 -0.9768 -1.232c -0.7128 0 -1.144 0.5896 -1.232 1.6808c 0.352 0.5192 0.8096 0.7392 1.1704 0.7392Z m 0.0616 -2.992c 0.9064 0 1.6632 0.7304 1.6632 1.804c 0 1.1528 -0.6336 1.7336 -1.6016 1.7336c -0.4576 0 -0.9592 -0.2728 -1.3112 -0.704c 0.0352 1.7776 0.6952 2.3848 1.4784 2.3848c 0.352 0 0.6952 -0.1672 0.924 -0.44l 0.4048 0.4488c -0.3168 0.3432 -0.748 0.5984 -1.3552 0.5984c -1.1176 0 -2.1384 -0.8712 -2.1384 -3.124c 0 -1.804 0.836 -2.7016 1.936 -2.7016Z "/></symbol><symbol id="g9909855E05B850768966CE44F3FB779C" overflow="visible"><path d="M 0 0m 1.0296 3.916c 0 0.7392 0.4312 1.232 0.9768 1.232c 0.7128 0 1.144 -0.5808 1.2408 -1.672c -0.3608 -0.528 -0.8096 -0.748 -1.1792 -0.748c -0.6952 0 -1.0384 0.4576 -1.0384 1.188Z m 0.7744 -4.0216c 1.1176 0 2.1384 0.8712 2.1384 3.124c 0 1.804 -0.8272 2.7016 -1.936 2.7016c -0.8976 0 -1.6544 -0.7304 -1.6544 -1.804c 0 -1.1528 0.6248 -1.7336 1.5928 -1.7336c 0.4664 0 0.968 0.2728 1.32 0.7216c -0.0264 -1.7952 -0.6952 -2.4112 -1.4872 -2.4112c -0.352 0 -0.6952 0.176 -0.924 0.4488l -0.4048 -0.4576c 0.308 -0.3344 0.7568 -0.5896 1.3552 -0.5896Z "/></symbol><symbol id="g471D828FBA62BEE47E29DC73C8D00F20" overflow="visible"><path d="M 0 0m 2.6136 -0.1056c 0.9768 0 1.848 0.8536 1.848 2.3144c 0 1.32 -0.5896 2.1736 -1.6984 2.1736c -0.4752 0 -0.9504 -0.2552 -1.3376 -0.5984l 0.0176 0.7744v 1.7072h -0.7216v -6.2656h 0.5808l 0.0616 0.44h 0.0264c 0.3784 -0.3432 0.8272 -0.5456 1.2232 -0.5456Z m -0.1232 0.6072c -0.2816 0 -0.6688 0.1232 -1.0472 0.4488v 2.244c 0.4048 0.3784 0.7832 0.5808 1.144 0.5808c 0.8096 0 1.1264 -0.6336 1.1264 -1.5752c 0 -1.056 -0.5192 -1.6984 -1.2232 -1.6984Z "/></symbol><symbol id="gF6C2D4E25A3C86587C1136CB44234A98" overflow="visible"><path d="M 0 0m 1.5048 0h 0.748c 0.0968 2.1912 0.396 3.4584 1.7512 5.1656v 0.4488h -3.6168v -0.6248h 2.8072c -1.144 -1.5488 -1.5928 -2.8776 -1.6896 -4.9896Z "/></symbol><symbol id="gEA846406FDD1A82621172F011B04C464" overflow="visible"><path d="M 0 0m 2.1912 -0.1056c 1.1176 0 1.7952 1.0472 1.7952 2.9304c 0 1.8832 -0.6776 2.8952 -1.7952 2.8952c -1.1264 0 -1.804 -1.012 -1.804 -2.8952c 0 -1.8832 0.6776 -2.9304 1.804 -2.9304Z m 0 0.5808c -0.66 0 -1.1 0.704 -1.1 2.3496c 0 1.6456 0.44 2.3144 1.1 2.3144c 0.6512 0 1.0912 -0.6688 1.0912 -2.3144c 0 -1.6456 -0.44 -2.3496 -1.0912 -2.3496Z "/></symbol><symbol id="gA2884EF0FC11133C107E99650AC778E2" overflow="visible"><path d="M 0 0m 2.0592 -0.1056c 0.9768 0 1.892 0.6864 1.892 1.9008c 0 1.2144 -0.7832 1.76 -1.7424 1.76c -0.3432 0 -0.5984 -0.088 -0.8624 -0.2288l 0.1496 1.6632h 2.1736v 0.6248h -2.8072l -0.1848 -2.7016l 0.3872 -0.2464c 0.3344 0.22 0.572 0.3432 0.9592 0.3432c 0.7216 0 1.1968 -0.4576 1.1968 -1.232c 0 -0.7832 -0.5456 -1.2848 -1.232 -1.2848c -0.66 0 -1.0824 0.308 -1.4168 0.6424l -0.352 -0.4752c 0.3872 -0.3872 0.9416 -0.7656 1.8392 -0.7656Z "/></symbol><symbol id="g67C34E9D9149550C1F8F2A5475AFAEA9" overflow="visible"><path d="M 0 0m 0.9152 2.1296l 1.3112 1.9184c 0.1584 0.2728 0.3168 0.5192 0.4576 0.792h 0.0352c -0.0176 -0.2992 -0.044 -0.7832 -0.044 -1.0824v -1.628Z m 1.76 -2.1296h 0.6864v 1.5488h 0.7656v 0.5808h -0.7656v 3.4848h -0.8096l -2.4024 -3.5904v -0.4752h 2.5256Z "/></symbol><symbol id="gACB6E822F2354942238F353D3065C2DF" overflow="visible"><path d="M 0 0m 2.0768 -0.1056c 1.0296 0 1.848 0.6072 1.848 1.6016c 0 0.7744 -0.5368 1.2672 -1.2144 1.4256v 0.0352c 0.6072 0.2288 1.0208 0.66 1.0208 1.3376c 0 0.9064 -0.704 1.4256 -1.6808 1.4256c -0.66 0 -1.1792 -0.2992 -1.6104 -0.704l 0.3872 -0.4576c 0.3344 0.3344 0.7304 0.572 1.1968 0.572c 0.5984 0 0.968 -0.3432 0.968 -0.8888c 0 -0.5896 -0.396 -1.0472 -1.5928 -1.0472v -0.5544c 1.3376 0 1.7952 -0.4488 1.7952 -1.1176c 0 -0.6248 -0.484 -1.0296 -1.1616 -1.0296c -0.66 0 -1.1 0.3168 -1.4344 0.6688l -0.3696 -0.4752c 0.3784 -0.4136 0.9504 -0.792 1.848 -0.792Z "/></symbol><symbol id="gBB8027237AF3D1BA2291050A51A0C752" overflow="visible"><path d="M 0 0m 3.159 -0.108c 0.783 0 1.359 0.315 1.827 0.855l -0.423 0.459c -0.378 -0.423 -0.792 -0.657 -1.332 -0.657c -1.134 0 -1.872 0.936 -1.872 2.421c 0 1.467 0.738 2.385 1.872 2.385c 0.495 0 0.882 -0.216 1.188 -0.54l 0.423 0.477c -0.342 0.378 -0.909 0.72 -1.611 0.72c -1.539 0 -2.646 -1.161 -2.646 -3.06c 0 -1.926 1.116 -3.06 2.574 -3.06Z "/></symbol><symbol id="gD05E2F67A834D8E6349C25DC095E0700" overflow="visible"><path d="M 0 0m 0.783 0h 1.494c 1.737 0 2.7 1.098 2.7 2.979c 0 1.872 -0.963 2.925 -2.736 2.925h -1.458Z m 0.747 0.612v 4.68h 0.657c 1.35 0 2.016 -0.828 2.016 -2.313c 0 -1.494 -0.666 -2.367 -2.016 -2.367Z "/></symbol><symbol id="g36419E8EB6816FD73F5DEF4772DCD16E" overflow="visible"><path d="M 0 0m 2.745 -0.108c 1.296 0 2.088 0.747 2.088 1.683c 0 0.873 -0.576 1.278 -1.305 1.575l -0.828 0.36c -0.504 0.207 -1.053 0.414 -1.053 0.981c 0 0.531 0.459 0.864 1.143 0.864c 0.612 0 1.062 -0.216 1.449 -0.558l 0.396 0.486c -0.432 0.432 -1.08 0.729 -1.818 0.729c -1.125 0 -1.935 -0.666 -1.935 -1.566c 0 -0.864 0.684 -1.287 1.278 -1.521l 0.846 -0.369c 0.603 -0.261 1.062 -0.441 1.062 -1.071c 0 -0.549 -0.477 -0.936 -1.287 -0.936c -0.675 0 -1.287 0.297 -1.728 0.738l -0.45 -0.522c 0.531 -0.531 1.278 -0.873 2.142 -0.873Z "/></symbol><symbol id="g289DE0BEC1D9638E461EE12D12238AD6" overflow="visible"><path d="M 0 0m 3.546 -0.108c 0.549 0 0.972 0.117 1.368 0.261l -0.162 0.54c -0.315 -0.117 -0.639 -0.198 -1.053 -0.198c -0.846 0 -1.107 0.414 -1.107 1.197v 2.079h 2.151v 0.603h -2.151v 1.404h -0.612l -0.099 -1.404l -1.26 -0.045v -0.558h 1.233v -2.07c 0 -1.08 0.414 -1.809 1.692 -1.809Z "/></symbol><symbol id="gC26575EA3946169553831169C1DB5BBE" overflow="visible"><path d="M 0 0m 0.9 0h 0.747v 2.493h 1.053l 1.422 -2.493h 0.855l -1.503 2.574c 0.801 0.207 1.323 0.756 1.323 1.674c 0 1.224 -0.864 1.656 -2.061 1.656h -1.836Z m 0.747 3.105v 2.196h 0.981c 0.918 0 1.422 -0.279 1.422 -1.053c 0 -0.765 -0.504 -1.143 -1.422 -1.143Z "/></symbol><symbol id="gEE750FCF8B456577190EFA3DFDAB9723" overflow="visible"><path d="M 0 0m 0.738 0h 0.72v 3.087c 0 0.612 -0.072 1.242 -0.099 1.845h 0.018l 0.567 -1.224l 1.89 -3.708h 0.828v 5.904h -0.72v -3.06c 0 -0.621 0.072 -1.287 0.099 -1.872h -0.018l -0.567 1.224l -1.89 3.708h -0.828Z "/></symbol><symbol id="g95499300297AFE7CD5AA5D10B56E875A" overflow="visible"><path d="M 0 0m 2.088 3.303c 0.207 0.657 0.396 1.305 0.585 1.989h 0.036c 0.18 -0.684 0.378 -1.332 0.585 -1.989l 0.279 -0.9h -1.764Z m -1.8 -3.303h 0.765l 0.567 1.8h 2.142l 0.558 -1.8h 0.792l -1.989 5.904h -0.846Z "/></symbol><symbol id="gCEC3D3FB4A5C985EB61FB35C27852968" overflow="visible"><path d="M 0 0m 0.837 0h 0.738v 3.051c 0.513 0.531 0.864 0.792 1.386 0.792c 0.72 0 1.008 -0.396 1.008 -1.224v -2.619h 0.738v 2.718c 0 1.152 -0.477 1.764 -1.512 1.764c -0.684 0 -1.188 -0.369 -1.647 -0.855h -0.036l -0.063 0.747h -0.612Z "/></symbol><symbol id="g1F7415284BE21D6DB2D2CB4C9165CD86" overflow="visible"><path d="M 0 0m 3.114 -0.108c 0.648 0 1.251 0.252 1.737 0.684l -0.333 0.477c -0.36 -0.306 -0.81 -0.549 -1.35 -0.549c -1.008 0 -1.683 0.675 -1.683 1.674c 0 1.008 0.693 1.692 1.701 1.692c 0.459 0 0.837 -0.189 1.197 -0.504l 0.369 0.477c -0.36 0.351 -0.882 0.639 -1.593 0.639c -1.323 0 -2.439 -0.837 -2.439 -2.304c 0 -1.449 1.026 -2.286 2.394 -2.286Z "/></symbol><symbol id="gE39933C183C9E05A8D7DDA57DDD095F2" overflow="visible"><path d="M 0 0m 0.837 -1.845h 0.738v 1.476l -0.036 0.828h 0.027c 0.387 -0.36 0.9 -0.567 1.305 -0.567c 1.053 0 1.989 0.873 1.989 2.358c 0 1.359 -0.63 2.232 -1.809 2.232c -0.54 0 -1.107 -0.279 -1.512 -0.666h -0.027l -0.063 0.558h -0.612Z m 1.908 2.358c -0.297 0 -0.756 0.144 -1.17 0.513v 2.178c 0.45 0.45 0.9 0.657 1.287 0.657c 0.873 0 1.233 -0.648 1.233 -1.611c 0 -1.08 -0.567 -1.737 -1.35 -1.737Z "/></symbol><symbol id="g5DB30F223BF9499E85DAC202D05E3CA9" overflow="visible"><path d="M 0 0m 2.79 -0.108c 1.251 0 1.944 0.594 1.944 1.305c 0 0.666 -0.351 1.035 -1.809 1.35c -0.891 0.189 -1.269 0.351 -1.269 0.729c 0 0.333 0.261 0.63 1.008 0.63c 0.558 0 1.062 -0.18 1.467 -0.459l 0.36 0.477c -0.432 0.297 -1.098 0.558 -1.764 0.558c -1.197 0 -1.818 -0.54 -1.818 -1.242c 0 -0.657 0.576 -1.044 1.71 -1.278c 1.188 -0.243 1.368 -0.477 1.368 -0.81c 0 -0.369 -0.369 -0.684 -1.107 -0.684c -0.81 0 -1.395 0.234 -1.899 0.594l -0.342 -0.486c 0.531 -0.369 1.296 -0.684 2.151 -0.684Z "/></symbol><symbol id="g9E705747B6C3A61035CF3BCB01F3DAB8" overflow="visible"><path d="M 0 0m 2.862 3.897c 0.747 0 1.242 -0.441 1.305 -1.341h -2.79c 0.135 0.864 0.765 1.341 1.485 1.341Z m 0.108 -4.005c 0.702 0 1.26 0.234 1.692 0.522l -0.27 0.486c -0.396 -0.252 -0.81 -0.414 -1.332 -0.414c -0.909 0 -1.611 0.504 -1.701 1.494h 3.447c 0.018 0.117 0.036 0.279 0.036 0.45c 0 1.233 -0.738 2.052 -1.998 2.052c -1.17 0 -2.232 -0.864 -2.232 -2.286c 0 -1.458 1.044 -2.304 2.358 -2.304Z "/></symbol><symbol id="gE4D8F329E947F79A4F8BD618295DA" overflow="visible"><path d="M 0 0m 2.214 -0.108c 0.675 0 1.188 0.36 1.629 0.873h 0.036l 0.063 -0.765h 0.603v 4.374h -0.738v -3.033c -0.486 -0.567 -0.855 -0.81 -1.359 -0.81c -0.729 0 -1.008 0.396 -1.008 1.224v 2.619h -0.747v -2.718c 0 -1.152 0.477 -1.764 1.521 -1.764Z "/></symbol><symbol id="gAF79852A019E293EC2FB72A49ED6B007" overflow="visible"><path d="M 0 0m 2.439 -0.108c 0.54 0 1.062 0.315 1.422 0.684h 0.027l 0.063 -0.576h 0.612v 6.408h -0.738v -1.683l 0.036 -0.81h -0.027c -0.378 0.36 -0.783 0.567 -1.305 0.567c -1.035 0 -1.989 -0.882 -1.989 -2.304c 0 -1.458 0.756 -2.286 1.899 -2.286Z m 0.153 0.621c -0.81 0 -1.287 0.63 -1.287 1.674c 0 0.999 0.612 1.674 1.368 1.674c 0.378 0 0.756 -0.144 1.152 -0.513v -2.178c -0.387 -0.432 -0.801 -0.657 -1.233 -0.657Z "/></symbol><symbol id="gA5E824DA8D0C22EDBB5C7DED6347A9DE" overflow="visible"><path d="M 0 0m 2.7 -0.108c 1.152 0 2.16 0.837 2.16 2.286c 0 1.467 -1.008 2.304 -2.16 2.304c -1.152 0 -2.16 -0.837 -2.16 -2.304c 0 -1.449 1.008 -2.286 2.16 -2.286Z m 0 0.612c -0.837 0 -1.395 0.675 -1.395 1.674c 0 1.008 0.558 1.692 1.395 1.692c 0.837 0 1.395 -0.684 1.395 -1.692c 0 -0.999 -0.558 -1.674 -1.395 -1.674Z "/></symbol><symbol id="gDC12D884AD9961D3DAE0E694887A6A95" overflow="visible"><path d="M 0 0m 2.664 -2.016c 1.485 0 2.43 0.711 2.43 1.53c 0 0.738 -0.54 1.026 -1.665 1.026h -0.981c -0.576 0 -0.909 0.162 -0.909 0.504c 0 0.207 0.126 0.369 0.342 0.504c 0.243 -0.108 0.513 -0.162 0.738 -0.162c 0.945 0 1.692 0.567 1.692 1.503c 0 0.351 -0.171 0.675 -0.369 0.882h 1.134v 0.603h -1.809c -0.189 0.072 -0.396 0.108 -0.648 0.108c -0.927 0 -1.719 -0.612 -1.719 -1.566c 0 -0.522 0.243 -0.909 0.54 -1.134v -0.036c -0.333 -0.225 -0.522 -0.54 -0.522 -0.819c 0 -0.369 0.216 -0.594 0.45 -0.72v -0.036c -0.468 -0.27 -0.72 -0.621 -0.72 -0.972c 0 -0.774 0.738 -1.215 2.016 -1.215Z m -0.045 3.897c -0.549 0 -1.008 0.405 -1.008 1.035c 0 0.612 0.459 1.026 1.008 1.026c 0.558 0 1.008 -0.414 1.008 -1.026c 0 -0.63 -0.45 -1.035 -1.008 -1.035Z m 0.099 -3.357c -0.936 0 -1.431 0.288 -1.431 0.747c 0 0.252 0.144 0.504 0.558 0.729c 0.189 -0.054 0.414 -0.072 0.666 -0.072h 0.855c 0.666 0 0.999 -0.117 0.999 -0.531c 0 -0.45 -0.63 -0.873 -1.647 -0.873Z "/></symbol></defs></svg>