<svg viewBox="0 0 566.929133858 46.2868" width="566.929133858pt" height="46.2868pt" xmlns="http://www.w3.org/2000/svg" xmlns:xlink="http://www.w3.org/1999/xlink" xmlns:h5="http://www.w3.org/1999/xhtml"><g transform="translate(56.692913386)"><g><path fill="none" stroke="#000000" stroke-width="3" stroke-linecap="butt" stroke-linejoin="miter" stroke-miterlimit="4" transform="translate(0 18.2088)" d="M 0 0h 453.543307087"/><path fill="#56b4e9" fill-rule="nonzero" stroke="#000000" stroke-width="3" stroke-linecap="butt" stroke-linejoin="miter" stroke-miterlimit="4" transform="translate(0 12.2088)" d="M 0 0h 101.626771654l 4.2 6l -4.2 6h -101.626771654Z "/><path fill="oklch(85% 0.012 -95.5)" fill-rule="nonzero" stroke="#000000" stroke-width="3" stroke-linecap="butt" stroke-linejoin="miter" stroke-miterlimit="4" transform="translate(109.102362205 12.2088)" d="M 0 0h 71.474540682l 4.2 6l -4.2 6h -71.474540682Z "/><path fill="#e69f00" fill-rule="nonzero" stroke="#000000" stroke-width="3" stroke-linecap="butt" stroke-linejoin="miter" stroke-miterlimit="4" transform="translate(188.892388451 12.2088)" d="M 0 0m 101.711286089 0h -97.511286089l -4.2 6l 4.2 6h 97.511286089Z "/><path fill="oklch(85% 0.012 -95.5)" fill-rule="nonzero" stroke="#000000" stroke-width="3" stroke-linecap="butt" stroke-linejoin="miter" stroke-miterlimit="4" transform="translate(293.879265092 12.2088)" d="M 0 0h 25.280839895v 12h -25.280839895Z "/><path fill="oklch(85% 0.012 -95.5)" fill-rule="nonzero" stroke="#000000" stroke-width="3" stroke-linecap="butt" stroke-linejoin="miter" stroke-miterlimit="4" transform="translate(323.275590551 12.2088)" d="M 0 0h 126.067716535l 4.2 6l -4.2 6h -126.067716535Z "/><path fill="none" stroke="#000000" stroke-width="3" stroke-linecap="round" stroke-linejoin="miter" stroke-miterlimit="4" transform="translate(0.375 8.788032)" d="M 0 0h 105.076771654"/><g transform="matrix(1 0 0 -1 50.524185827 5.808)"><use xlink:href="#gEE59D5B149EB05D7412F7DB72F7627D7" x="0" y="0" fill="#000000" fill-rule="nonzero"/></g><path fill="none" stroke="#000000" stroke-width="3" stroke-linecap="round" stroke-linejoin="miter" stroke-miterlimit="4" transform="translate(109.477362205 8.788032)" d="M 0 0h 74.924540682"/><g transform="matrix(1 0 0 -1 144.352432546 5.808)"><use xlink:href="#g41FA2C8E6FD95E61EF60DEFFED895E39" x="0" y="0" fill="#000000" fill-rule="nonzero"/></g><path fill="none" stroke="#000000" stroke-width="3" stroke-linecap="round" stroke-linejoin="miter" stroke-miterlimit="4" transform="translate(189.267388451 8.788032)" d="M 0 0h 100.961286089"/><g transform="matrix(1 0 0 -1 237.235631496 5.808)"><use xlink:href="#g7F9883F315CB8730A3D3B930048F1E08" x="0" y="0" fill="#000000" fill-rule="nonzero"/></g><path fill="none" stroke="#000000" stroke-width="3" stroke-linecap="round" stroke-linejoin="miter" stroke-miterlimit="4" transform="translate(294.254265092 8.788032)" d="M 0 0h 24.530839895"/><g transform="matrix(1 0 0 -1 303.813685039 5.808)"><use xlink:href="#gAC353D4DCA3A2D121355EF8A23EC7468" x="0" y="0" fill="#000000" fill-rule="nonzero"/></g><path fill="none" stroke="#000000" stroke-width="3" stroke-linecap="round" stroke-linejoin="miter" stroke-miterlimit="4" transform="translate(323.650590551 8.788032)" d="M 0 0h 129.517716535"/><g transform="matrix(1 0 0 -1 386.090648819 5.808)"><use xlink:href="#g9AB75BB72B6C0034A52F8898C32C3AB9" x="0" y="0" fill="#000000" fill-rule="nonzero"/></g><path fill="none" stroke="#000000" stroke-width="3" stroke-linecap="round" stroke-linejoin="miter" stroke-miterlimit="4" transform="translate(0.041994751 30.2088)" d="M 0 0h 453.459317585"/><path fill="none" stroke="#000000" stroke-width="3" stroke-linecap="round" stroke-linejoin="miter" stroke-miterlimit="4" transform="translate(45.312335958 30.2088)" d="M 0 0v 4.25"/><g transform="matrix(1 0 0 -1 38.751935958 42.7668)"><use xlink:href="#g76CABA7F6AC06257DF7ED9F49260BBAE" x="0" y="0" fill="#000000" fill-rule="nonzero"/><use xlink:href="#gF38068F90D6FF1476639852E65B961DC" x="4.3736" y="0" fill="#000000" fill-rule="nonzero"/><use xlink:href="#g116B1A5BDE639C6BF08543F6BCEAB53D" x="8.7472" y="0" fill="#000000" fill-rule="nonzero"/></g><path fill="none" stroke="#000000" stroke-width="3" stroke-linecap="round" stroke-linejoin="miter" stroke-miterlimit="4" transform="translate(90.666666667 30.2088)" d="M 0 0v 4.25"/><g transform="matrix(1 0 0 -1 81.919466667 42.7668)"><use xlink:href="#gEAA0F99083B4E2EA3A3B7DDA29958DDA" x="0" y="0" fill="#000000" fill-rule="nonzero"/><use xlink:href="#g116B1A5BDE639C6BF08543F6BCEAB53D" x="4.3736" y="0" fill="#000000" fill-rule="nonzero"/><use xlink:href="#g8657FE68FAF235B9BD51E3D9A93E6BBC" x="8.7472" y="0" fill="#000000" fill-rule="nonzero"/><use xlink:href="#g116B1A5BDE639C6BF08543F6BCEAB53D" x="13.1208" y="0" fill="#000000" fill-rule="nonzero"/></g><path fill="none" stroke="#000000" stroke-width="3" stroke-linecap="round" stroke-linejoin="miter" stroke-miterlimit="4" transform="translate(136.020997375 30.2088)" d="M 0 0v 4.25"/><g transform="matrix(1 0 0 -1 127.273797375 42.7668)"><use xlink:href="#gEAA0F99083B4E2EA3A3B7DDA29958DDA" x="0" y="0" fill="#000000" fill-rule="nonzero"/><use xlink:href="#g771AF755FF06E3AF8E3D64ED55DC7B9C" x="4.3736" y="0" fill="#000000" fill-rule="nonzero"/><use xlink:href="#g57A5B988B5E066FAA465E53939CD0EF2" x="8.7472" y="0" fill="#000000" fill-rule="nonzero"/><use xlink:href="#g116B1A5BDE639C6BF08543F6BCEAB53D" x="13.1208" y="0" fill="#000000" fill-rule="nonzero"/></g><path fill="none" stroke="#000000" stroke-width="3" stroke-linecap="round" stroke-linejoin="miter" stroke-miterlimit="4" transform="translate(181.375328084 30.2088)" d="M 0 0v 4.25"/><g transform="matrix(1 0 0 -1 172.628128084 42.7668)"><use xlink:href="#g57A5B988B5E066FAA465E53939CD0EF2" x="0" y="0" fill="#000000" fill-rule="nonzero"/><use xlink:href="#gEAA0F99083B4E2EA3A3B7DDA29958DDA" x="4.3736" y="0" fill="#000000" fill-rule="nonzero"/><use xlink:href="#g771AF755FF06E3AF8E3D64ED55DC7B9C" x="8.7472" y="0" fill="#000000" fill-rule="nonzero"/><use xlink:href="#g116B1A5BDE639C6BF08543F6BCEAB53D" x="13.1208" y="0" fill="#000000" fill-rule="nonzero"/></g><path fill="none" stroke="#000000" stroke-width="3" stroke-linecap="round" stroke-linejoin="miter" stroke-miterlimit="4" transform="translate(226.729658793 30.2088)" d="M 0 0v 4.25"/><g transform="matrix(1 0 0 -1 217.982458793 42.7668)"><use xlink:href="#g57A5B988B5E066FAA465E53939CD0EF2" x="0" y="0" fill="#000000" fill-rule="nonzero"/><use xlink:href="#g9A599C9D9E5645A6A6E93CF0349FDB40" x="4.3736" y="0" fill="#000000" fill-rule="nonzero"/><use xlink:href="#g116B1A5BDE639C6BF08543F6BCEAB53D" x="8.7472" y="0" fill="#000000" fill-rule="nonzero"/><use xlink:href="#g116B1A5BDE639C6BF08543F6BCEAB53D" x="13.1208" y="0" fill="#000000" fill-rule="nonzero"/></g><path fill="none" stroke="#000000" stroke-width="3" stroke-linecap="round" stroke-linejoin="miter" stroke-miterlimit="4" transform="translate(272.083989501 30.2088)" d="M 0 0v 4.25"/><g transform="matrix(1 0 0 -1 263.336789501 42.7668)"><use xlink:href="#gE86E1D4A122E99D5F5FB206E83B1B7FD" x="0" y="0" fill="#000000" fill-rule="nonzero"/><use xlink:href="#g57A5B988B5E066FAA465E53939CD0EF2" x="4.3736" y="0" fill="#000000" fill-rule="nonzero"/><use xlink:href="#gF38068F90D6FF1476639852E65B961DC" x="8.7472" y="0" fill="#000000" fill-rule="nonzero"/><use xlink:href="#g116B1A5BDE639C6BF08543F6BCEAB53D" x="13.1208" y="0" fill="#000000" fill-rule="nonzero"/></g><path fill="none" stroke="#000000" stroke-width="3" stroke-linecap="round" stroke-linejoin="miter" stroke-miterlimit="4" transform="translate(317.43832021 30.2088)" d="M 0 0v 4.25"/><g transform="matrix(1 0 0 -1 308.69112021 42.7668)"><use xlink:href="#gE86E1D4A122E99D5F5FB206E83B1B7FD" x="0" y="0" fill="#000000" fill-rule="nonzero"/><use xlink:href="#g9A599C9D9E5645A6A6E93CF0349FDB40" x="4.3736" y="0" fill="#000000" fill-rule="nonzero"/><use xlink:href="#g8657FE68FAF235B9BD51E3D9A93E6BBC" x="8.7472" y="0" fill="#000000" fill-rule="nonzero"/><use xlink:href="#g116B1A5BDE639C6BF08543F6BCEAB53D" x="13.1208" y="0" fill="#000000" fill-rule="nonzero"/></g><path fill="none" stroke="#000000" stroke-width="3" stroke-linecap="round" stroke-linejoin="miter" stroke-miterlimit="4" transform="translate(362.792650919 30.2088)" d="M 0 0v 4.25"/><g transform="matrix(1 0 0 -1 354.045450919 42.7668)"><use xlink:href="#gF38068F90D6FF1476639852E65B961DC" x="0" y="0" fill="#000000" fill-rule="nonzero"/><use xlink:href="#gE86E1D4A122E99D5F5FB206E83B1B7FD" x="4.3736" y="0" fill="#000000" fill-rule="nonzero"/><use xlink:href="#g57A5B988B5E066FAA465E53939CD0EF2" x="8.7472" y="0" fill="#000000" fill-rule="nonzero"/><use xlink:href="#g116B1A5BDE639C6BF08543F6BCEAB53D" x="13.1208" y="0" fill="#000000" fill-rule="nonzero"/></g><path fill="none" stroke="#000000" stroke-width="3" stroke-linecap="round" stroke-linejoin="miter" stroke-miterlimit="4" transform="translate(408.146981627 30.2088)" d="M 0 0v 4.25"/><g transform="matrix(1 0 0 -1 399.399781627 42.7668)"><use xlink:href="#gF38068F90D6FF1476639852E65B961DC" x="0" y="0" fill="#000000" fill-rule="nonzero"/><use xlink:href="#g8657FE68FAF235B9BD51E3D9A93E6BBC" x="4.3736" y="0" fill="#000000" fill-rule="nonzero"/><use xlink:href="#g771AF755FF06E3AF8E3D64ED55DC7B9C" x="8.7472" y="0" fill="#000000" fill-rule="nonzero"/><use xlink:href="#g116B1A5BDE639C6BF08543F6BCEAB53D" x="13.1208" y="0" fill="#000000" fill-rule="nonzero"/></g><path fill="none" stroke="#000000" stroke-width="3" stroke-linecap="round" stroke-linejoin="miter" stroke-miterlimit="4" transform="translate(453.501312336 30.2088)" d="M 0 0v 4.25"/><g transform="matrix(1 0 0 -1 436.006912336 42.7668)"><use xlink:href="#g76CABA7F6AC06257DF7ED9F49260BBAE" x="0" y="0" fill="#000000" fill-rule="nonzero"/><use xlink:href="#gF38068F90D6FF1476639852E65B961DC" x="4.3736" y="0" fill="#000000" fill-rule="nonzero"/><use xlink:href="#g116B1A5BDE639C6BF08543F6BCEAB53D" x="8.7472" y="0" fill="#000000" fill-rule="nonzero"/><use xlink:href="#g116B1A5BDE639C6BF08543F6BCEAB53D" x="13.1208" y="0" fill="#000000" fill-rule="nonzero"/></g></g></g><defs><symbol id="gEE59D5B149EB05D7412F7DB72F7627D7" overflow="visible"><path d="M 0 0m 0.023232716 0l 1.952662694 5.775616602h 0.829305469l 1.952662744 -5.775616602h -0.774159912l -1.009303711 3.225730933q -0.157813745 0.484821777 -0.299024634 0.967120483q -0.141210889 0.482298438 -0.278021777 0.981317627h -0.0352q -0.131413611 -0.504416602 -0.2726245 -0.984016602q -0.141210889 -0.479599731 -0.2990245 -0.964421509l -1.021506299 -3.225730933h -0.745765575Z m 1.02713455 1.758360876v 0.586428235h 2.6593591v -0.586428235h -2.6593591Z "/></symbol><symbol id="g41FA2C8E6FD95E61EF60DEFFED895E39" overflow="visible"><path d="M 0 0m 0.789329492 0v 5.775617676h 1.71437041q 0.587276465 0 1.035582324 -0.142665918q 0.448305859 -0.142666455 0.699773486 -0.45344707q 0.251467627 -0.310781152 0.251467627 -0.818363477q 0 -0.44464707 -0.217008838 -0.78344707q -0.217008838 -0.3388 -0.626950049 -0.4708v -0.0352q 0.538702979 -0.097714697 0.856701538 -0.434685303q 0.31799856 -0.336970605 0.31799856 -0.921502979q 0 -0.577067627 -0.277410547 -0.958705859q -0.27741001 -0.381638232 -0.771124707 -0.569219116q -0.493714697 -0.187580884 -1.137523535 -0.187580884h -1.84587627Z m 0.734952539 3.317946973h 0.85522959q 0.73667666 0 1.062844385 0.255730933q 0.326167725 0.255730933 0.326167725 0.692145728q 0 0.508717773 -0.342853027 0.717667822q -0.342853027 0.208950049 -1.012788477 0.208950049h -0.888600195v -1.874494531Z m 0 -2.734770801h 1.00532373q 0.743573682 0 1.156616431 0.275197119q 0.413042749 0.275197119 0.413042749 0.858961963q 0 0.533708936 -0.404700098 0.785286938q -0.404700098 0.251578003 -1.164959082 0.251578003h -1.00532373v -2.171024023Z "/></symbol><symbol id="g7F9883F315CB8730A3D3B930048F1E08" overflow="visible"><path d="M 0 0m 2.983551001 -0.1056q -0.723594556 0 -1.297178223 0.355109528q -0.573583667 0.355109528 -0.902468695 1.026314972q -0.328884995 0.671205444 -0.328884995 1.60799469q 0 0.697194556 0.190490439 1.252591699q 0.190490472 0.555397412 0.54037829 0.946q 0.349887683 0.390602588 0.814879517 0.59470415q 0.464991699 0.204101563 1.013994556 0.204101563q 0.525183667 0 0.932271216 -0.210496387q 0.407087817 -0.21049585 0.659471484 -0.502890137l -0.4026854 -0.451261035q -0.226805444 0.249216602 -0.520725928 0.383328516q -0.293920483 0.134112451 -0.652139673 0.134112451q -0.539265332 0 -0.948700854 -0.285824365q -0.409435388 -0.285824902 -0.639350293 -0.80837002q -0.229915039 -0.522544849 -0.229915039 -1.239804736q 0 -0.728054443 0.222816333 -1.256700854q 0.222816333 -0.528646344 0.633248999 -0.815174994q 0.410432666 -0.286528616 0.964481934 -0.286528616q 0.40702981 0 0.726352881 0.158106839q 0.31932334 0.158106805 0.590950562 0.452144916l 0.383090845 -0.430258179q -0.341791699 -0.394591833 -0.766479248 -0.610895917q -0.424687817 -0.216304083 -0.983898706 -0.216304083Z "/></symbol><symbol id="gAC353D4DCA3A2D121355EF8A23EC7468" overflow="visible"><path d="M 0 0m 0.788246344 0v 5.775616602h 1.448126434q 0.886805444 0 1.492890405 -0.333813477q 0.606084961 -0.333814014 0.918367334 -0.974219458q 0.312282373 -0.640405444 0.312282373 -1.556778223q 0 -0.916372778 -0.309583398 -1.568276794q -0.309583936 -0.651904083 -0.910271753 -0.997216367q -0.600687817 -0.345312283 -1.471301294 -0.345312283h -1.480510101Z m 0.734971002 0.602620068h 0.656366321q 0.676076221 0 1.126109155 0.273739539q 0.450032666 0.273739539 0.673141992 0.787484521q 0.223109595 0.513744983 0.223109595 1.246961316q 0 0.727819189 -0.223109595 1.234465601q -0.223109326 0.506646143 -0.673141992 0.767186084q -0.450032935 0.260539404 -1.126109155 0.260539404h -0.656366321v -4.570376465Z "/></symbol><symbol id="g9AB75BB72B6C0034A52F8898C32C3AB9" overflow="visible"><path d="M 0 0m 0.789329492 0v 5.775617676h 3.32892334v -0.622034961h -2.593970801v -1.809729883h 2.18818252v -0.622034961h -2.18818252v -2.09978291h 2.681970801v -0.622034961h -3.41692334Z "/></symbol><symbol id="g76CABA7F6AC06257DF7ED9F49260BBAE" overflow="visible"><path d="M 0 0m 2.061870508 -0.1056q -0.452038232 0 -0.795448511 0.109542651q -0.343410278 0.109542651 -0.599277905 0.287161768q -0.255867627 0.177619116 -0.451297021 0.373048511l 0.357341016 0.472087988q 0.2552 -0.247808838 0.588475024 -0.443522095q 0.333275024 -0.195713257 0.82713689 -0.195713257q 0.341864746 0 0.621214795 0.157064746q 0.279350049 0.157064746 0.44289126 0.4433854q 0.163541211 0.286320654 0.163541211 0.677326611q 0 0.583270703 -0.325216235 0.90827666q -0.325216235 0.325005957 -0.865401636 0.325005957q -0.286741211 0 -0.497520654 -0.086170605q -0.210779443 -0.086170605 -0.465979443 -0.255694141l -0.384235156 0.244423438l 0.185294141 2.701946973h 2.808240918v -0.622034961h -2.173253027l -0.148264746 -1.666112207q 0.199655908 0.108417676 0.401882422 0.170511816q 0.202226514 0.062094141 0.459823633 0.062094141q 0.478438232 0 0.873733813 -0.187580884q 0.395295581 -0.187580884 0.630572046 -0.575942651q 0.235276465 -0.388361768 0.235276465 -0.99464707q 0 -0.608114697 -0.26815293 -1.034210278q -0.26815293 -0.426095581 -0.700477905 -0.648172046q -0.432324976 -0.222076465 -0.920898462 -0.222076465Z "/></symbol><symbol id="gF38068F90D6FF1476639852E65B961DC" overflow="visible"><path d="M 0 0m 2.674358887 0v 3.76135332q 0 0.220420557 0.016438232 0.537641113q 0.016438232 0.317220557 0.025238232 0.537641113h -0.0352q -0.1056 -0.196344092 -0.22 -0.388745532q -0.1144 -0.19240144 -0.2376 -0.4031073l -1.311294531 -1.918147559h 3.212641309v -0.576699707h -3.970829199v 0.477576172l 2.401359082 3.585058984h 0.80421709v -5.612570605h -0.684970215Z "/></symbol><symbol id="g116B1A5BDE639C6BF08543F6BCEAB53D" overflow="visible"><path d="M 0 0m 2.186899902 -0.1056q -0.840573486 0 -1.319642554 0.760285303q -0.479069067 0.760285303 -0.479069067 2.172438232q 0 1.41215293 0.479069067 2.1516q 0.479069067 0.73944707 1.319642554 0.73944707q 0.840573486 0 1.319642554 -0.741065918q 0.479069067 -0.741066455 0.479069067 -2.149981152q 0 -1.41215293 -0.479069067 -2.172438232q -0.479069067 -0.760285303 -1.319642554 -0.760285303Z m 0 0.583176172q 0.326167725 0 0.573098657 0.243235352q 0.246930933 0.243235352 0.384986841 0.763460425q 0.138055908 0.520225073 0.138055908 1.342851587q 0 0.822626514 -0.138055908 1.332432471q -0.138055908 0.509805957 -0.384986841 0.742621924q -0.246930933 0.232816504 -0.573098657 0.232816504q -0.326167725 0 -0.573098657 -0.232816504q -0.246930933 -0.232815967 -0.384986841 -0.742621924q -0.138055908 -0.509805957 -0.138055908 -1.332432471q 0 -0.822626514 0.138055908 -1.342851587q 0.138055908 -0.520225073 0.384986841 -0.763460425q 0.246930933 -0.243235352 0.573098657 -0.243235352Z "/></symbol><symbol id="gEAA0F99083B4E2EA3A3B7DDA29958DDA" overflow="visible"><path d="M 0 0m 0.692035352 0v 0.602605566h 1.285788281v 4.132235938h -1.022629395v 0.465611523q 0.386211719 0.068991162 0.673336694 0.171563477q 0.287124976 0.102571777 0.520498462 0.240554102h 0.552623242v -5.009965039h 1.158929492v -0.602605566h -3.168546777Z "/></symbol><symbol id="g8657FE68FAF235B9BD51E3D9A93E6BBC" overflow="visible"><path d="M 0 0m 2.202670508 -0.1056q -0.529829395 0 -0.946877905 0.199161768q -0.417048511 0.199161768 -0.657182324 0.547923535q -0.240133813 0.348761768 -0.240133813 0.795238232q 0 0.364532373 0.154951489 0.651026514q 0.154951489 0.286494141 0.397902979 0.501883862q 0.242951489 0.215389722 0.506951489 0.356189722v 0.0352q -0.308914697 0.221829395 -0.546304419 0.538629395q -0.237389722 0.3168 -0.237389722 0.759123535q 0 0.431620557 0.209791162 0.757430566q 0.209791162 0.325810547 0.568230835 0.503887012q 0.358439673 0.178076465 0.809489624 0.178076465q 0.738705859 0 1.162688184 -0.418q 0.423982324 -0.418 0.423982324 -1.075182324q 0 -0.294132373 -0.121827954 -0.553064746q -0.121827954 -0.258932373 -0.299694141 -0.463902979q -0.177866187 -0.204970605 -0.352457349 -0.336970605v -0.0352q 0.25055293 -0.146361768 0.474495581 -0.337638232q 0.223942651 -0.191276465 0.362666187 -0.460133813q 0.138723535 -0.268857349 0.138723535 -0.644019116q 0 -0.420991162 -0.224610278 -0.759086743q -0.224610278 -0.338095581 -0.63215437 -0.539333813q -0.407544092 -0.201238232 -0.951241113 -0.201238232Z m 0.390017676 3.165035156q 0.290053027 0.259426514 0.440641309 0.539480981q 0.150588281 0.280054468 0.150588281 0.587213354q 0 0.277026514 -0.113275024 0.502414795q -0.113275024 0.225388281 -0.332644189 0.358586572q -0.219369165 0.133198828 -0.528851587 0.133198828q -0.391500098 0 -0.651173682 -0.247177734q -0.259673584 -0.247178271 -0.259673584 -0.654375391q 0 -0.334967725 0.183007397 -0.555956006q 0.183007397 -0.220988281 0.479042749 -0.375482422q 0.296035352 -0.154494141 0.63233833 -0.287902979Z m -0.377064746 -2.627194238q 0.32849126 0 0.576126611 0.123941211q 0.247635352 0.123941211 0.386853027 0.34609126q 0.139217676 0.222150049 0.139217676 0.511214795q 0 0.36369126 -0.209407397 0.594641309q -0.209407397 0.230950049 -0.556623633 0.392625073q -0.347216235 0.161675024 -0.753919214 0.324722095q -0.334547168 -0.218664746 -0.559972241 -0.52673833q -0.225425073 -0.308073584 -0.225425073 -0.697250146q 0 -0.308988281 0.156817676 -0.550357446q 0.156817676 -0.241369165 0.42969126 -0.380129492q 0.272873584 -0.138760327 0.616641309 -0.138760327Z "/></symbol><symbol id="g771AF755FF06E3AF8E3D64ED55DC7B9C" overflow="visible"><path d="M 0 0m 2.361070508 -0.1056q -0.415923535 0 -0.76975293 0.167904419q -0.353829395 0.167904419 -0.613392603 0.505085303q -0.259563208 0.337180884 -0.407049951 0.84455293q -0.147486743 0.507372046 -0.147486743 1.180745532q 0 0.845788281 0.175295581 1.442358887q 0.175295581 0.596570605 0.475867627 0.966170605q 0.300572046 0.3696 0.683582324 0.543276465q 0.383010278 0.173676465 0.80400144 0.173676465q 0.453794043 0 0.786501343 -0.169487012q 0.3327073 -0.169486475 0.566574927 -0.423277637l -0.40267627 -0.452658594q -0.170932373 0.205217676 -0.414094141 0.324017676q -0.243161768 0.1188 -0.508570605 0.1188q -0.401635352 0 -0.739347168 -0.239502979q -0.337711816 -0.239502979 -0.540853027 -0.790775122q -0.203141211 -0.551272144 -0.203141211 -1.492598755q 0 -0.689638232 0.14544707 -1.164454468q 0.14544707 -0.474816235 0.425958887 -0.719213354q 0.280511816 -0.244397119 0.681306055 -0.244397119q 0.275197119 0 0.497804517 0.153826514q 0.222607397 0.153826514 0.350701538 0.431100098q 0.128094141 0.277273584 0.128094141 0.64553833q 0 0.367350049 -0.115808838 0.633289819q -0.115808838 0.265939771 -0.345597119 0.412128052q -0.229788281 0.146188281 -0.577288379 0.146188281q -0.271464746 0 -0.594604517 -0.179979443q -0.323139771 -0.179979443 -0.61178396 -0.6149854l -0.025905859 0.572199805q 0.269141211 0.358055908 0.632511816 0.562569165q 0.363370605 0.204513257 0.721005957 0.204513257q 0.486323535 0 0.846876465 -0.194304419q 0.36055293 -0.194304419 0.557144092 -0.579885303q 0.196591162 -0.385580884 0.196591162 -0.961733813q 0 -0.537220557 -0.227848511 -0.941773486q -0.227848511 -0.40455293 -0.603888184 -0.631733813q -0.376039673 -0.227180884 -0.826174927 -0.227180884Z "/></symbol><symbol id="g57A5B988B5E066FAA465E53939CD0EF2" overflow="visible"><path d="M 0 0m 0.350170605 0v 0.443364453q 0.840300098 0.821364844 1.431098657 1.462466382q 0.59079856 0.641101538 0.900417676 1.157804517q 0.309619116 0.516702979 0.309619116 0.969729492q 0 0.484073584 -0.261502979 0.789613086q -0.261502979 0.305540039 -0.803097217 0.305540039q -0.350664746 0 -0.651310376 -0.193389453q -0.30064563 -0.19338999 -0.541978003 -0.479216504l -0.40732334 0.396199805q 0.350097021 0.391773486 0.749545532 0.628916406q 0.399448511 0.237142383 0.9399073 0.237142383q 0.518705859 0 0.897069067 -0.204934082q 0.378363208 -0.204933545 0.583049951 -0.575201172q 0.204686743 -0.370267627 0.204686743 -0.865811719q 0 -0.542855908 -0.304094141 -1.081101538q -0.304094141 -0.53824563 -0.835195679 -1.127956006q -0.531101538 -0.589710376 -1.214904614 -1.289284058q 0.227885303 0.020838232 0.476819116 0.034495581q 0.248933813 0.013657349 0.467104419 0.013657349h 1.685394434v -0.622034961h -3.625305664Z "/></symbol><symbol id="g9A599C9D9E5645A6A6E93CF0349FDB40" overflow="visible"><path d="M 0 0m 1.505441309 0q 0.038438232 0.793482422 0.144742651 1.45633689q 0.106304419 0.662854468 0.307332373 1.250661865q 0.201027954 0.587807397 0.504417676 1.146186841q 0.303389722 0.558379443 0.730436792 1.137350049h -2.805170801v 0.622034961h 3.616999805v -0.443364453q -0.503923535 -0.638741211 -0.832551489 -1.222148608q -0.328627954 -0.583407397 -0.516455908 -1.181633911q -0.187827954 -0.598226514 -0.276532373 -1.269844189q -0.088704419 -0.671617676 -0.127142651 -1.495579443h -0.746076074Z "/></symbol><symbol id="gE86E1D4A122E99D5F5FB206E83B1B7FD" overflow="visible"><path d="M 0 0m 2.075811719 -0.1056q -0.4488 0 -0.794991162 0.113485303q -0.346191162 0.113485303 -0.603220557 0.292266187q -0.257029395 0.178780884 -0.445982324 0.386248511l 0.36381748 0.472087988q 0.2552 -0.25984707 0.597275024 -0.460664746q 0.342075024 -0.200817676 0.83593689 -0.200817676q 0.514205957 0 0.839879541 0.279386841q 0.325673584 0.279386841 0.325673584 0.749172241q 0 0.333558887 -0.169560327 0.583270703q -0.169560327 0.249711816 -0.56169126 0.39009126q -0.392130933 0.140379443 -1.059595679 0.140379443v 0.555440918q 0.594320654 0 0.941747168 0.140379443q 0.347426514 0.140379443 0.499139771 0.375729492q 0.151713257 0.235350049 0.151713257 0.529061865q 0 0.410929492 -0.260835352 0.649764844q -0.260835352 0.238835352 -0.709288379 0.238835352q -0.350664746 0 -0.650148608 -0.158894141q -0.299483862 -0.158894141 -0.54679856 -0.409941211l -0.38972334 0.459135059q 0.330173486 0.304267627 0.724517578 0.501810547q 0.394344092 0.197542383 0.888058789 0.197542383q 0.488079346 0 0.866195483 -0.168114697q 0.378116138 -0.168114697 0.595545532 -0.485125244q 0.217429395 -0.31701001 0.217429395 -0.771792334q 0 -0.504911816 -0.280017676 -0.834701538q -0.280017676 -0.329789722 -0.739941211 -0.498819116v -0.0352q 0.33904707 -0.080114697 0.614417676 -0.268857349q 0.275370605 -0.188742651 0.439579443 -0.480551489q 0.164208838 -0.291808838 0.164208838 -0.677179443q 0 -0.500191162 -0.249144092 -0.859829395q -0.249144092 -0.359638232 -0.669641113 -0.551619116q -0.420497021 -0.191980884 -0.934555811 -0.191980884Z "/></symbol></defs></svg>