<svg viewBox="0 0 566.929133858 60" width="566.929133858pt" height="60pt" xmlns="http://www.w3.org/2000/svg" xmlns:xlink="http://www.w3.org/1999/xlink" xmlns:h5="http://www.w3.org/1999/xhtml"><g><g transform="translate(0 38.863093343)"><g transform="matrix(2.498497778 0 0 -1.096880696 0 7.854762663)"><use xlink:href="#g299E107F8E293C761D775199AA0A8010" x="0" y="0" fill="#4d78ff" fill-rule="nonzero"/></g></g><g transform="translate(0 46.967856006)"><g transform="matrix(2.574890696 0 0 -0.411330261 0 2.945535999)"><use xlink:href="#g59E945FF00FA2E92A7739B56D389448C" x="0" y="0" fill="#4d78ff" fill-rule="nonzero"/></g></g><g transform="translate(0 50.163392004)"><g transform="matrix(2.574890696 0 0 -0.411330261 0 2.945535999)"><use xlink:href="#g121D4D89741CBC8EE74AA1E08FA4E2AA" x="0" y="0" fill="#00c990" fill-rule="nonzero"/></g></g><g transform="translate(0 53.358928003)"><g transform="matrix(2.574890696 0 0 -0.264470123 0 1.928780609)"><use xlink:href="#g4C2A99F1EE03426ECE624E4E887A0064" x="0" y="0" fill="#00c990" fill-rule="nonzero"/></g></g><g transform="translate(0 55.572618669)"><g transform="matrix(2.40207924 0 0 -0.274220174 0 1.963690666)"><use xlink:href="#gEB136198160995B24917E13DCF0086D9" x="0" y="0" fill="#d9de09" fill-rule="nonzero"/></g></g><g transform="translate(0 57.786309334)"><g transform="matrix(2.335463665 0 0 -0.137110087 0 0.981845333)"><use xlink:href="#gE176EFA5006630A06D33BDA271C8647" x="0" y="0" fill="#e44356" fill-rule="nonzero"/></g></g><g transform="translate(0 59.018154667)"><g transform="matrix(2.243948632 0 0 -0.132235062 0 0.964390305)"><use xlink:href="#g4FC30F1339117D02576C048DD8D5DD8A" x="0" y="0" fill="#f59116" fill-rule="nonzero"/></g></g><g transform="translate(15.748031496 7.487822302)"><g transform="matrix(2.243948632 0 0 -6.334809418 0 46.199765085)"><use xlink:href="#g4FC30F1339117D02576C048DD8D5DD8A" x="0" y="0" fill="#f59116" fill-rule="nonzero"/></g></g><g transform="translate(15.748031496 54.77378223)"><g transform="matrix(2.574890696 0 0 -0.703867713 0 5.133307232)"><use xlink:href="#g4C2A99F1EE03426ECE624E4E887A0064" x="0" y="0" fill="#00c990" fill-rule="nonzero"/></g></g><g transform="translate(31.496062992 11.834182852)"><g transform="matrix(2.335463665 0 0 -5.657861273 0 40.515944576)"><use xlink:href="#gE176EFA5006630A06D33BDA271C8647" x="0" y="0" fill="#e44356" fill-rule="nonzero"/></g></g><g transform="translate(31.496062992 52.600127428)"><g transform="matrix(2.612480341 0 0 -0.665630738 0 4.766581715)"><use xlink:href="#g2A78A62D00879D5B71DD36D68D78AE17" x="0" y="0" fill="#ff07b8" fill-rule="nonzero"/></g></g><g transform="translate(31.496062992 57.616709143)"><g transform="matrix(2.574890696 0 0 -0.332815369 0 2.383290857)"><use xlink:href="#g121D4D89741CBC8EE74AA1E08FA4E2AA" x="0" y="0" fill="#00c990" fill-rule="nonzero"/></g></g><g transform="translate(47.244094488 47.307203287)"><g transform="matrix(2.726931861 0 0 -0.364571872 0 2.610699178)"><use xlink:href="#g5011A37DF7F6B8A06CC1AC0B2F129E79" x="0" y="0" fill="#bac1d2" fill-rule="nonzero"/></g></g><g transform="translate(47.244094488 50.167902465)"><g transform="matrix(2.574890696 0 0 -0.291657498 0 2.088559343)"><use xlink:href="#g59E945FF00FA2E92A7739B56D389448C" x="0" y="0" fill="#4d78ff" fill-rule="nonzero"/></g></g><g transform="translate(47.244094488 52.506461808)"><g transform="matrix(4.756276501 0 0 -0.218743123 0 1.566419507)"><use xlink:href="#g5E642DDC4B5B96B6B96BB32B7B35A636" x="0" y="0" fill="#4d78ff" fill-rule="nonzero"/></g></g><g transform="translate(47.244094488 54.322881315)"><g transform="matrix(2.612480341 0 0 -0.145828749 0 1.044279671)"><use xlink:href="#g2A78A62D00879D5B71DD36D68D78AE17" x="0" y="0" fill="#ff07b8" fill-rule="nonzero"/></g></g><g transform="translate(47.244094488 55.617160986)"><g transform="matrix(1.878791636 0 0 -0.072914374 0 0.522139836)"><use xlink:href="#gE1207787609A5CBBC607A037B6B2D099" x="0" y="0" fill="#4d78ff" fill-rule="nonzero"/></g></g><g transform="translate(47.244094488 56.389300822)"><g transform="matrix(2.763782291 0 0 -0.072914374 0 0.522139836)"><use xlink:href="#gC332FE52893696B12EBDD5B945B5AE66" x="0" y="0" fill="#4d78ff" fill-rule="nonzero"/></g></g><g transform="translate(47.244094488 57.161440657)"><g transform="matrix(2.331659979 0 0 -0.072914374 0 0.522139836)"><use xlink:href="#gE5765198907F7711F508F04B639DE070" x="0" y="0" fill="#e44356" fill-rule="nonzero"/></g></g><g transform="translate(47.244094488 57.933580493)"><g transform="matrix(2.124093808 0 0 -0.072914374 0 0.522139836)"><use xlink:href="#g4BAB23A808A992CAAA4FBE755BACBC23" x="0" y="0" fill="#4d78ff" fill-rule="nonzero"/></g></g><g transform="translate(47.244094488 58.705720329)"><g transform="matrix(2.732135929 0 0 -0.072914374 0 0.522139836)"><use xlink:href="#g76462530CF443880BAC9AE951AF166E9" x="0" y="0" fill="#bac1d2" fill-rule="nonzero"/></g></g><g transform="translate(47.244094488 59.477860164)"><g transform="matrix(2.498497778 0 0 -0.072914374 0 0.522139836)"><use xlink:href="#g299E107F8E293C761D775199AA0A8010" x="0" y="0" fill="#4d78ff" fill-rule="nonzero"/></g></g><g transform="translate(62.992125984 45.616981356)"><g transform="matrix(2.612480341 0 0 -0.352828338 0 2.526603729)"><use xlink:href="#g2A78A62D00879D5B71DD36D68D78AE17" x="0" y="0" fill="#ff07b8" fill-rule="nonzero"/></g></g><g transform="translate(62.992125984 48.393585085)"><g transform="matrix(2.574890696 0 0 -0.264621254 0 1.894952797)"><use xlink:href="#g59E945FF00FA2E92A7739B56D389448C" x="0" y="0" fill="#4d78ff" fill-rule="nonzero"/></g></g><g transform="translate(62.992125984 50.538537881)"><g transform="matrix(2.335463665 0 0 -0.264621254 0 1.894952797)"><use xlink:href="#gE176EFA5006630A06D33BDA271C8647" x="0" y="0" fill="#e44356" fill-rule="nonzero"/></g></g><g transform="translate(62.992125984 52.683490678)"><g transform="matrix(4.756276501 0 0 -0.264621254 0 1.894952797)"><use xlink:href="#g5E642DDC4B5B96B6B96BB32B7B35A636" x="0" y="0" fill="#4d78ff" fill-rule="nonzero"/></g></g><g transform="translate(62.992125984 54.828443475)"><g transform="matrix(2.243948632 0 0 -0.255212498 0 1.861264747)"><use xlink:href="#g4FC30F1339117D02576C048DD8D5DD8A" x="0" y="0" fill="#f59116" fill-rule="nonzero"/></g></g><g transform="translate(62.992125984 56.973396271)"><g transform="matrix(2.254549964 0 0 -0.176414169 0 1.263301864)"><use xlink:href="#gC989FCE3D905A8E717322010EEB7B642" x="0" y="0" fill="#ff07b8" fill-rule="nonzero"/></g></g><g transform="translate(62.992125984 58.486698136)"><g transform="matrix(2.726931861 0 0 -0.088207085 0 0.631650932)"><use xlink:href="#g5011A37DF7F6B8A06CC1AC0B2F129E79" x="0" y="0" fill="#bac1d2" fill-rule="nonzero"/></g></g><g transform="translate(62.992125984 59.368349068)"><g transform="matrix(2.574890696 0 0 -0.085070833 0 0.620421582)"><use xlink:href="#g4C2A99F1EE03426ECE624E4E887A0064" x="0" y="0" fill="#00c990" fill-rule="nonzero"/></g></g><g transform="translate(78.74015748 43.634727782)"><g transform="matrix(4.756276501 0 0 -0.601812829 0 4.309581666)"><use xlink:href="#g5E642DDC4B5B96B6B96BB32B7B35A636" x="0" y="0" fill="#4d78ff" fill-rule="nonzero"/></g></g><g transform="translate(78.74015748 48.194309447)"><g transform="matrix(2.335463665 0 0 -0.50151069 0 3.591318055)"><use xlink:href="#gE176EFA5006630A06D33BDA271C8647" x="0" y="0" fill="#e44356" fill-rule="nonzero"/></g></g><g transform="translate(78.74015748 52.035627502)"><g transform="matrix(2.763782291 0 0 -0.200604276 0 1.436527222)"><use xlink:href="#gC332FE52893696B12EBDD5B945B5AE66" x="0" y="0" fill="#4d78ff" fill-rule="nonzero"/></g></g><g transform="translate(78.74015748 53.722154724)"><g transform="matrix(2.612480341 0 0 -0.200604276 0 1.436527222)"><use xlink:href="#g2A78A62D00879D5B71DD36D68D78AE17" x="0" y="0" fill="#ff07b8" fill-rule="nonzero"/></g></g><g transform="translate(78.74015748 55.408681945)"><g transform="matrix(2.726931861 0 0 -0.100302138 0 0.718263611)"><use xlink:href="#g5011A37DF7F6B8A06CC1AC0B2F129E79" x="0" y="0" fill="#bac1d2" fill-rule="nonzero"/></g></g><g transform="translate(78.74015748 56.376945556)"><g transform="matrix(2.574890696 0 0 -0.100302138 0 0.718263611)"><use xlink:href="#g121D4D89741CBC8EE74AA1E08FA4E2AA" x="0" y="0" fill="#00c990" fill-rule="nonzero"/></g></g><g transform="translate(78.74015748 57.345209167)"><g transform="matrix(2.574890696 0 0 -0.09673584 0 0.70549448)"><use xlink:href="#g4C2A99F1EE03426ECE624E4E887A0064" x="0" y="0" fill="#00c990" fill-rule="nonzero"/></g></g><g transform="translate(78.74015748 58.313472778)"><g transform="matrix(2.732135929 0 0 -0.100302138 0 0.718263611)"><use xlink:href="#g76462530CF443880BAC9AE951AF166E9" x="0" y="0" fill="#bac1d2" fill-rule="nonzero"/></g></g><g transform="translate(78.74015748 59.281736389)"><g transform="matrix(2.254549964 0 0 -0.100302138 0 0.718263611)"><use xlink:href="#gC989FCE3D905A8E717322010EEB7B642" x="0" y="0" fill="#ff07b8" fill-rule="nonzero"/></g></g><g transform="translate(94.488188976 43.011994282)"><g transform="matrix(4.756276501 0 0 -0.627901371 0 4.496401716)"><use xlink:href="#g5E642DDC4B5B96B6B96BB32B7B35A636" x="0" y="0" fill="#4d78ff" fill-rule="nonzero"/></g></g><g transform="translate(94.488188976 47.758395997)"><g transform="matrix(2.763782291 0 0 -0.523251142 0 3.74700143)"><use xlink:href="#gC332FE52893696B12EBDD5B945B5AE66" x="0" y="0" fill="#4d78ff" fill-rule="nonzero"/></g></g><g transform="translate(94.488188976 51.755397427)"><g transform="matrix(2.574890696 0 0 -0.313950685 0 2.248200858)"><use xlink:href="#g59E945FF00FA2E92A7739B56D389448C" x="0" y="0" fill="#4d78ff" fill-rule="nonzero"/></g></g><g transform="translate(94.488188976 54.253598284)"><g transform="matrix(2.726931861 0 0 -0.104650228 0 0.749400286)"><use xlink:href="#g5011A37DF7F6B8A06CC1AC0B2F129E79" x="0" y="0" fill="#bac1d2" fill-rule="nonzero"/></g></g><g transform="translate(94.488188976 55.25299857)"><g transform="matrix(2.335463665 0 0 -0.104650228 0 0.749400286)"><use xlink:href="#gE176EFA5006630A06D33BDA271C8647" x="0" y="0" fill="#e44356" fill-rule="nonzero"/></g></g><g transform="translate(94.488188976 56.252398856)"><g transform="matrix(1.878791636 0 0 -0.104650228 0 0.749400286)"><use xlink:href="#gE1207787609A5CBBC607A037B6B2D099" x="0" y="0" fill="#4d78ff" fill-rule="nonzero"/></g></g><g transform="translate(94.488188976 57.251799142)"><g transform="matrix(2.331659979 0 0 -0.104650228 0 0.749400286)"><use xlink:href="#gE5765198907F7711F508F04B639DE070" x="0" y="0" fill="#e44356" fill-rule="nonzero"/></g></g><g transform="translate(94.488188976 58.251199428)"><g transform="matrix(2.732135929 0 0 -0.104650228 0 0.749400286)"><use xlink:href="#g76462530CF443880BAC9AE951AF166E9" x="0" y="0" fill="#bac1d2" fill-rule="nonzero"/></g></g><g transform="translate(94.488188976 59.250599714)"><g transform="matrix(2.612480341 0 0 -0.104650228 0 0.749400286)"><use xlink:href="#g2A78A62D00879D5B71DD36D68D78AE17" x="0" y="0" fill="#ff07b8" fill-rule="nonzero"/></g></g><g transform="translate(110.236220472 40.300467192)"><g transform="matrix(2.335463665 0 0 -0.865079805 0 6.194836483)"><use xlink:href="#gE176EFA5006630A06D33BDA271C8647" x="0" y="0" fill="#e44356" fill-rule="nonzero"/></g></g><g transform="translate(110.236220472 46.745303675)"><g transform="matrix(2.612480341 0 0 -0.741496976 0 5.309859842)"><use xlink:href="#g2A78A62D00879D5B71DD36D68D78AE17" x="0" y="0" fill="#ff07b8" fill-rule="nonzero"/></g></g><g transform="translate(110.236220472 52.305163517)"><g transform="matrix(2.40207924 0 0 -0.123582829 0 0.88497664)"><use xlink:href="#gEB136198160995B24917E13DCF0086D9" x="0" y="0" fill="#d9de09" fill-rule="nonzero"/></g></g><g transform="translate(110.236220472 53.440140158)"><g transform="matrix(2.152840943 0 0 -0.123582829 0 0.88497664)"><use xlink:href="#gCE56F1DE108F514D8C8A0E6945120B44" x="0" y="0" fill="#00c990" fill-rule="nonzero"/></g></g><g transform="translate(110.236220472 54.575116798)"><g transform="matrix(2.763782291 0 0 -0.123582829 0 0.88497664)"><use xlink:href="#gC332FE52893696B12EBDD5B945B5AE66" x="0" y="0" fill="#4d78ff" fill-rule="nonzero"/></g></g><g transform="translate(110.236220472 55.710093438)"><g transform="matrix(2.331659979 0 0 -0.123582829 0 0.88497664)"><use xlink:href="#gE5765198907F7711F508F04B639DE070" x="0" y="0" fill="#e44356" fill-rule="nonzero"/></g></g><g transform="translate(110.236220472 56.845070079)"><g transform="matrix(2.124093808 0 0 -0.123582829 0 0.88497664)"><use xlink:href="#g4BAB23A808A992CAAA4FBE755BACBC23" x="0" y="0" fill="#4d78ff" fill-rule="nonzero"/></g></g><g transform="translate(110.236220472 57.980046719)"><g transform="matrix(2.254549964 0 0 -0.123582829 0 0.88497664)"><use xlink:href="#gC989FCE3D905A8E717322010EEB7B642" x="0" y="0" fill="#ff07b8" fill-rule="nonzero"/></g></g><g transform="translate(110.236220472 59.11502336)"><g transform="matrix(2.498497778 0 0 -0.123582829 0 0.88497664)"><use xlink:href="#g299E107F8E293C761D775199AA0A8010" x="0" y="0" fill="#4d78ff" fill-rule="nonzero"/></g></g><g transform="translate(125.984251969 29.884469018)"><g transform="matrix(1.878791636 0 0 -1.435265444 0 10.277935844)"><use xlink:href="#gE1207787609A5CBBC607A037B6B2D099" x="0" y="0" fill="#4d78ff" fill-rule="nonzero"/></g></g><g transform="translate(125.984251969 40.412404862)"><g transform="matrix(2.763782291 0 0 -1.435265444 0 10.277935844)"><use xlink:href="#gC332FE52893696B12EBDD5B945B5AE66" x="0" y="0" fill="#4d78ff" fill-rule="nonzero"/></g></g><g transform="translate(125.984251969 50.940340705)"><g transform="matrix(2.574890696 0 0 -0.820151682 0 5.873106196)"><use xlink:href="#g59E945FF00FA2E92A7739B56D389448C" x="0" y="0" fill="#4d78ff" fill-rule="nonzero"/></g></g><g transform="translate(125.984251969 57.063446902)"><g transform="matrix(4.756276501 0 0 -0.410075841 0 2.936553098)"><use xlink:href="#g5E642DDC4B5B96B6B96BB32B7B35A636" x="0" y="0" fill="#4d78ff" fill-rule="nonzero"/></g></g><g transform="translate(141.732283465 47.483984018)"><g transform="matrix(2.732135929 0 0 -0.243277284 0 1.742108628)"><use xlink:href="#g76462530CF443880BAC9AE951AF166E9" x="0" y="0" fill="#bac1d2" fill-rule="nonzero"/></g></g><g transform="translate(141.732283465 49.476092646)"><g transform="matrix(2.726931861 0 0 -0.182457963 0 1.306581471)"><use xlink:href="#g5011A37DF7F6B8A06CC1AC0B2F129E79" x="0" y="0" fill="#bac1d2" fill-rule="nonzero"/></g></g><g transform="translate(141.732283465 51.032674117)"><g transform="matrix(2.763782291 0 0 -0.182457963 0 1.306581471)"><use xlink:href="#gC332FE52893696B12EBDD5B945B5AE66" x="0" y="0" fill="#4d78ff" fill-rule="nonzero"/></g></g><g transform="translate(141.732283465 52.589255587)"><g transform="matrix(2.124093808 0 0 -0.182457963 0 1.306581471)"><use xlink:href="#g4BAB23A808A992CAAA4FBE755BACBC23" x="0" y="0" fill="#4d78ff" fill-rule="nonzero"/></g></g><g transform="translate(141.732283465 54.145837058)"><g transform="matrix(2.152840943 0 0 -0.121638642 0 0.871054314)"><use xlink:href="#gCE56F1DE108F514D8C8A0E6945120B44" x="0" y="0" fill="#00c990" fill-rule="nonzero"/></g></g><g transform="translate(141.732283465 55.266891372)"><g transform="matrix(1.760933858 0 0 -0.060819321 0 0.435527157)"><use xlink:href="#g16895E3248943340EE3D89A2B8356084" x="0" y="0" fill="#bac1d2" fill-rule="nonzero"/></g></g><g transform="translate(141.732283465 55.952418529)"><g transform="matrix(2.574890696 0 0 -0.060819321 0 0.435527157)"><use xlink:href="#g121D4D89741CBC8EE74AA1E08FA4E2AA" x="0" y="0" fill="#00c990" fill-rule="nonzero"/></g></g><g transform="translate(141.732283465 56.637945686)"><g transform="matrix(2.335463665 0 0 -0.060819321 0 0.435527157)"><use xlink:href="#gE176EFA5006630A06D33BDA271C8647" x="0" y="0" fill="#e44356" fill-rule="nonzero"/></g></g><g transform="translate(141.732283465 58.878945686)"><g transform="matrix(2.093039805 0 0 -0.046911585 0 0.342126191)"><use xlink:href="#g99F7A5B9463B24346207D7827E6B3035" x="0" y="0" fill="#00c990" fill-rule="nonzero"/></g></g><g transform="translate(141.732283465 59.564472843)"><g transform="matrix(2.40207924 0 0 -0.060819321 0 0.435527157)"><use xlink:href="#gEB136198160995B24917E13DCF0086D9" x="0" y="0" fill="#d9de09" fill-rule="nonzero"/></g></g><g transform="translate(157.480314961 18.912505105)"><g transform="matrix(2.40207924 0 0 -4.22470621 0 30.253121171)"><use xlink:href="#gEB136198160995B24917E13DCF0086D9" x="0" y="0" fill="#d9de09" fill-rule="nonzero"/></g></g><g transform="translate(157.480314961 49.415626276)"><g transform="matrix(2.574890696 0 0 -0.563294161 0 4.03374949)"><use xlink:href="#g121D4D89741CBC8EE74AA1E08FA4E2AA" x="0" y="0" fill="#00c990" fill-rule="nonzero"/></g></g><g transform="translate(157.480314961 53.699375766)"><g transform="matrix(2.243948632 0 0 -0.543265925 0 3.962038387)"><use xlink:href="#g4FC30F1339117D02576C048DD8D5DD8A" x="0" y="0" fill="#f59116" fill-rule="nonzero"/></g></g><g transform="translate(157.480314961 57.983125255)"><g transform="matrix(2.124093808 0 0 -0.281647081 0 2.016874745)"><use xlink:href="#g4BAB23A808A992CAAA4FBE755BACBC23" x="0" y="0" fill="#4d78ff" fill-rule="nonzero"/></g></g><g transform="translate(173.228346457 32.681226761)"><g transform="matrix(2.763782291 0 0 -1.470117204 0 10.527509296)"><use xlink:href="#gC332FE52893696B12EBDD5B945B5AE66" x="0" y="0" fill="#4d78ff" fill-rule="nonzero"/></g></g><g transform="translate(173.228346457 43.458736057)"><g transform="matrix(2.732135929 0 0 -0.918823252 0 6.57969331)"><use xlink:href="#g76462530CF443880BAC9AE951AF166E9" x="0" y="0" fill="#bac1d2" fill-rule="nonzero"/></g></g><g transform="translate(173.228346457 50.288429366)"><g transform="matrix(1.878791636 0 0 -0.735058602 0 5.263754648)"><use xlink:href="#gE1207787609A5CBBC607A037B6B2D099" x="0" y="0" fill="#4d78ff" fill-rule="nonzero"/></g></g><g transform="translate(173.228346457 55.802184014)"><g transform="matrix(2.459861215 0 0 -0.354461592 0 2.585088394)"><use xlink:href="#gD313BA69C0D48F5D3027C8CF7C587B9A" x="0" y="0" fill="#494e5b" fill-rule="nonzero"/></g></g><g transform="translate(173.228346457 58.684061338)"><g transform="matrix(1.760933858 0 0 -0.18376465 0 1.315938662)"><use xlink:href="#g16895E3248943340EE3D89A2B8356084" x="0" y="0" fill="#bac1d2" fill-rule="nonzero"/></g></g><g transform="translate(188.976377953 30.395408833)"><g transform="matrix(2.574890696 0 0 -2.271078074 0 16.562972395)"><use xlink:href="#g4C2A99F1EE03426ECE624E4E887A0064" x="0" y="0" fill="#00c990" fill-rule="nonzero"/></g></g><g transform="translate(188.976377953 47.508163533)"><g transform="matrix(2.254549964 0 0 -0.588701114 0 4.215688675)"><use xlink:href="#gC989FCE3D905A8E717322010EEB7B642" x="0" y="0" fill="#ff07b8" fill-rule="nonzero"/></g></g><g transform="translate(188.976377953 51.973852208)"><g transform="matrix(2.574890696 0 0 -0.196233705 0 1.405229558)"><use xlink:href="#g121D4D89741CBC8EE74AA1E08FA4E2AA" x="0" y="0" fill="#00c990" fill-rule="nonzero"/></g></g><g transform="translate(188.976377953 53.629081767)"><g transform="matrix(2.152840943 0 0 -0.196233705 0 1.405229558)"><use xlink:href="#gCE56F1DE108F514D8C8A0E6945120B44" x="0" y="0" fill="#00c990" fill-rule="nonzero"/></g></g><g transform="translate(188.976377953 55.284311325)"><g transform="matrix(2.763782291 0 0 -0.196233705 0 1.405229558)"><use xlink:href="#gC332FE52893696B12EBDD5B945B5AE66" x="0" y="0" fill="#4d78ff" fill-rule="nonzero"/></g></g><g transform="translate(188.976377953 56.939540883)"><g transform="matrix(2.243948632 0 0 -0.189256506 0 1.3802477)"><use xlink:href="#g4FC30F1339117D02576C048DD8D5DD8A" x="0" y="0" fill="#f59116" fill-rule="nonzero"/></g></g><g transform="translate(188.976377953 58.594770442)"><g transform="matrix(2.498497778 0 0 -0.196233705 0 1.405229558)"><use xlink:href="#g299E107F8E293C761D775199AA0A8010" x="0" y="0" fill="#4d78ff" fill-rule="nonzero"/></g></g><g transform="translate(204.724409449 31.018142333)"><g transform="matrix(2.732135929 0 0 -2.302627371 0 16.4891146)"><use xlink:href="#g76462530CF443880BAC9AE951AF166E9" x="0" y="0" fill="#bac1d2" fill-rule="nonzero"/></g></g><g transform="translate(204.724409449 47.757256933)"><g transform="matrix(2.093039805 0 0 -0.296013116 0 2.158823653)"><use xlink:href="#g99F7A5B9463B24346207D7827E6B3035" x="0" y="0" fill="#00c990" fill-rule="nonzero"/></g></g><g transform="translate(204.724409449 50.7554427)"><g transform="matrix(2.763782291 0 0 -0.383771228 0 2.748185767)"><use xlink:href="#gC332FE52893696B12EBDD5B945B5AE66" x="0" y="0" fill="#4d78ff" fill-rule="nonzero"/></g></g><g transform="translate(204.724409449 53.753628467)"><g transform="matrix(2.574890696 0 0 -0.191885614 0 1.374092883)"><use xlink:href="#g59E945FF00FA2E92A7739B56D389448C" x="0" y="0" fill="#4d78ff" fill-rule="nonzero"/></g></g><g transform="translate(204.724409449 55.37772135)"><g transform="matrix(1.878791636 0 0 -0.191885614 0 1.374092883)"><use xlink:href="#gE1207787609A5CBBC607A037B6B2D099" x="0" y="0" fill="#4d78ff" fill-rule="nonzero"/></g></g><g transform="translate(204.724409449 57.001814233)"><g transform="matrix(4.756276501 0 0 -0.191885614 0 1.374092883)"><use xlink:href="#g5E642DDC4B5B96B6B96BB32B7B35A636" x="0" y="0" fill="#4d78ff" fill-rule="nonzero"/></g></g><g transform="translate(204.724409449 58.625907117)"><g transform="matrix(2.498497778 0 0 -0.191885614 0 1.374092883)"><use xlink:href="#g299E107F8E293C761D775199AA0A8010" x="0" y="0" fill="#4d78ff" fill-rule="nonzero"/></g></g><g transform="translate(220.472440945 53.173543332)"><g transform="matrix(2.612480341 0 0 -0.05286216 0 0.378545926)"><use xlink:href="#g2A78A62D00879D5B71DD36D68D78AE17" x="0" y="0" fill="#ff07b8" fill-rule="nonzero"/></g></g><g transform="translate(220.472440945 53.802089258)"><g transform="matrix(2.574890696 0 0 -0.025491308 0 0.18590811)"><use xlink:href="#g4C2A99F1EE03426ECE624E4E887A0064" x="0" y="0" fill="#00c990" fill-rule="nonzero"/></g></g><g transform="translate(220.472440945 54.241362221)"><g transform="matrix(2.335463665 0 0 -0.02643108 0 0.189272963)"><use xlink:href="#gE176EFA5006630A06D33BDA271C8647" x="0" y="0" fill="#e44356" fill-rule="nonzero"/></g></g><g transform="translate(220.472440945 54.680635184)"><g transform="matrix(2.331659979 0 0 -0.02643108 0 0.189272963)"><use xlink:href="#gE5765198907F7711F508F04B639DE070" x="0" y="0" fill="#e44356" fill-rule="nonzero"/></g></g><g transform="translate(220.472440945 55.119908147)"><g transform="matrix(2.254549964 0 0 -0.02643108 0 0.189272963)"><use xlink:href="#gC989FCE3D905A8E717322010EEB7B642" x="0" y="0" fill="#ff07b8" fill-rule="nonzero"/></g></g><g transform="translate(220.472440945 55.559181111)"><g transform="matrix(1.760933858 0 0 -0.01321554 0 0.094636482)"><use xlink:href="#g16895E3248943340EE3D89A2B8356084" x="0" y="0" fill="#bac1d2" fill-rule="nonzero"/></g></g><g transform="translate(220.472440945 55.903817592)"><g transform="matrix(2.574890696 0 0 -0.01321554 0 0.094636482)"><use xlink:href="#g59E945FF00FA2E92A7739B56D389448C" x="0" y="0" fill="#4d78ff" fill-rule="nonzero"/></g></g><g transform="translate(220.472440945 58.144817592)"><g transform="matrix(2.093039805 0 0 -0.010193503 0 0.074341217)"><use xlink:href="#g99F7A5B9463B24346207D7827E6B3035" x="0" y="0" fill="#00c990" fill-rule="nonzero"/></g></g><g transform="translate(220.472440945 58.489454074)"><g transform="matrix(2.763782291 0 0 -0.01321554 0 0.094636482)"><use xlink:href="#gC332FE52893696B12EBDD5B945B5AE66" x="0" y="0" fill="#4d78ff" fill-rule="nonzero"/></g></g><g transform="translate(220.472440945 58.834090555)"><g transform="matrix(2.124093808 0 0 -0.01321554 0 0.094636482)"><use xlink:href="#g4BAB23A808A992CAAA4FBE755BACBC23" x="0" y="0" fill="#4d78ff" fill-rule="nonzero"/></g></g><g transform="translate(220.472440945 59.216090555)"><g transform="matrix(2.243948632 0 0 -0.012745654 0 0.092954055)"><use xlink:href="#g4FC30F1339117D02576C048DD8D5DD8A" x="0" y="0" fill="#f59116" fill-rule="nonzero"/></g></g><g transform="translate(220.472440945 59.560727037)"><g transform="matrix(2.732135929 0 0 -0.01321554 0 0.094636482)"><use xlink:href="#g76462530CF443880BAC9AE951AF166E9" x="0" y="0" fill="#bac1d2" fill-rule="nonzero"/></g></g><g transform="translate(220.472440945 59.905363518)"><g transform="matrix(2.498497778 0 0 -0.01321554 0 0.094636482)"><use xlink:href="#g299E107F8E293C761D775199AA0A8010" x="0" y="0" fill="#4d78ff" fill-rule="nonzero"/></g></g><g transform="translate(236.220472441)"><g transform="matrix(2.612480341 0 0 -8.378718056 0 60)"><use xlink:href="#g2A78A62D00879D5B71DD36D68D78AE17" x="0" y="0" fill="#ff07b8" fill-rule="nonzero"/></g></g><g transform="translate(251.968503937 41.35341811)"><g transform="matrix(2.732135929 0 0 -0.754004316 0 5.399424907)"><use xlink:href="#g76462530CF443880BAC9AE951AF166E9" x="0" y="0" fill="#bac1d2" fill-rule="nonzero"/></g></g><g transform="translate(251.968503937 47.002843017)"><g transform="matrix(2.726931861 0 0 -0.430859609 0 3.085385661)"><use xlink:href="#g5011A37DF7F6B8A06CC1AC0B2F129E79" x="0" y="0" fill="#bac1d2" fill-rule="nonzero"/></g></g><g transform="translate(251.968503937 50.338228678)"><g transform="matrix(4.756276501 0 0 -0.323144707 0 2.314039246)"><use xlink:href="#g5E642DDC4B5B96B6B96BB32B7B35A636" x="0" y="0" fill="#4d78ff" fill-rule="nonzero"/></g></g><g transform="translate(251.968503937 52.902267924)"><g transform="matrix(2.574890696 0 0 -0.107714902 0 0.771346415)"><use xlink:href="#g121D4D89741CBC8EE74AA1E08FA4E2AA" x="0" y="0" fill="#00c990" fill-rule="nonzero"/></g></g><g transform="translate(251.968503937 53.923614339)"><g transform="matrix(2.574890696 0 0 -0.103885039 0 0.75763359)"><use xlink:href="#g4C2A99F1EE03426ECE624E4E887A0064" x="0" y="0" fill="#00c990" fill-rule="nonzero"/></g></g><g transform="translate(251.968503937 56.164614339)"><g transform="matrix(2.093039805 0 0 -0.083083414 0 0.605927338)"><use xlink:href="#g99F7A5B9463B24346207D7827E6B3035" x="0" y="0" fill="#00c990" fill-rule="nonzero"/></g></g><g transform="translate(251.968503937 57.185960754)"><g transform="matrix(1.878791636 0 0 -0.107714902 0 0.771346415)"><use xlink:href="#gE1207787609A5CBBC607A037B6B2D099" x="0" y="0" fill="#4d78ff" fill-rule="nonzero"/></g></g><g transform="translate(251.968503937 58.207307169)"><g transform="matrix(2.763782291 0 0 -0.107714902 0 0.771346415)"><use xlink:href="#gC332FE52893696B12EBDD5B945B5AE66" x="0" y="0" fill="#4d78ff" fill-rule="nonzero"/></g></g><g transform="translate(251.968503937 59.228653585)"><g transform="matrix(2.459861215 0 0 -0.103885039 0 0.75763359)"><use xlink:href="#gD313BA69C0D48F5D3027C8CF7C587B9A" x="0" y="0" fill="#494e5b" fill-rule="nonzero"/></g></g><g transform="translate(267.716535433 39.366180389)"><g transform="matrix(2.763782291 0 0 -0.869106324 0 6.223670383)"><use xlink:href="#gC332FE52893696B12EBDD5B945B5AE66" x="0" y="0" fill="#4d78ff" fill-rule="nonzero"/></g></g><g transform="translate(267.716535433 45.839850772)"><g transform="matrix(2.459861215 0 0 -0.59871769 0 4.36644811)"><use xlink:href="#gD313BA69C0D48F5D3027C8CF7C587B9A" x="0" y="0" fill="#494e5b" fill-rule="nonzero"/></g></g><g transform="translate(267.716535433 50.535329617)"><g transform="matrix(2.124093808 0 0 -0.248316092 0 1.778191538)"><use xlink:href="#g4BAB23A808A992CAAA4FBE755BACBC23" x="0" y="0" fill="#4d78ff" fill-rule="nonzero"/></g></g><g transform="translate(267.716535433 52.563521155)"><g transform="matrix(2.243948632 0 0 -0.239487076 0 1.746579244)"><use xlink:href="#g4FC30F1339117D02576C048DD8D5DD8A" x="0" y="0" fill="#f59116" fill-rule="nonzero"/></g></g><g transform="translate(267.716535433 54.591712693)"><g transform="matrix(2.574890696 0 0 -0.124158046 0 0.889095769)"><use xlink:href="#g59E945FF00FA2E92A7739B56D389448C" x="0" y="0" fill="#4d78ff" fill-rule="nonzero"/></g></g><g transform="translate(267.716535433 56.832712693)"><g transform="matrix(2.093039805 0 0 -0.095766455 0 0.698424757)"><use xlink:href="#g99F7A5B9463B24346207D7827E6B3035" x="0" y="0" fill="#00c990" fill-rule="nonzero"/></g></g><g transform="translate(267.716535433 57.971808462)"><g transform="matrix(1.878791636 0 0 -0.124158046 0 0.889095769)"><use xlink:href="#gE1207787609A5CBBC607A037B6B2D099" x="0" y="0" fill="#4d78ff" fill-rule="nonzero"/></g></g><g transform="translate(267.716535433 59.110904231)"><g transform="matrix(2.498497778 0 0 -0.124158046 0 0.889095769)"><use xlink:href="#g299E107F8E293C761D775199AA0A8010" x="0" y="0" fill="#4d78ff" fill-rule="nonzero"/></g></g><g transform="translate(283.464566929 53.084665866)"><g transform="matrix(2.612480341 0 0 -0.116333868 0 0.833066827)"><use xlink:href="#g2A78A62D00879D5B71DD36D68D78AE17" x="0" y="0" fill="#ff07b8" fill-rule="nonzero"/></g></g><g transform="translate(283.464566929 54.167732693)"><g transform="matrix(1.760933858 0 0 -0.087250401 0 0.62480012)"><use xlink:href="#g16895E3248943340EE3D89A2B8356084" x="0" y="0" fill="#bac1d2" fill-rule="nonzero"/></g></g><g transform="translate(283.464566929 55.042532813)"><g transform="matrix(2.335463665 0 0 -0.058166934 0 0.416533413)"><use xlink:href="#gE176EFA5006630A06D33BDA271C8647" x="0" y="0" fill="#e44356" fill-rule="nonzero"/></g></g><g transform="translate(283.464566929 55.709066226)"><g transform="matrix(2.152840943 0 0 -0.058166934 0 0.416533413)"><use xlink:href="#gCE56F1DE108F514D8C8A0E6945120B44" x="0" y="0" fill="#00c990" fill-rule="nonzero"/></g></g><g transform="translate(283.464566929 56.37559964)"><g transform="matrix(2.243948632 0 0 -0.056098776 0 0.409128375)"><use xlink:href="#g4FC30F1339117D02576C048DD8D5DD8A" x="0" y="0" fill="#f59116" fill-rule="nonzero"/></g></g><g transform="translate(283.464566929 57.042133053)"><g transform="matrix(2.574890696 0 0 -0.029083467 0 0.208266707)"><use xlink:href="#g121D4D89741CBC8EE74AA1E08FA4E2AA" x="0" y="0" fill="#00c990" fill-rule="nonzero"/></g></g><g transform="translate(283.464566929 57.50039976)"><g transform="matrix(2.574890696 0 0 -0.028049388 0 0.204564187)"><use xlink:href="#g4C2A99F1EE03426ECE624E4E887A0064" x="0" y="0" fill="#00c990" fill-rule="nonzero"/></g></g><g transform="translate(283.464566929 57.958666467)"><g transform="matrix(1.878791636 0 0 -0.029083467 0 0.208266707)"><use xlink:href="#gE1207787609A5CBBC607A037B6B2D099" x="0" y="0" fill="#4d78ff" fill-rule="nonzero"/></g></g><g transform="translate(283.464566929 58.416933173)"><g transform="matrix(2.331659979 0 0 -0.029083467 0 0.208266707)"><use xlink:href="#gE5765198907F7711F508F04B639DE070" x="0" y="0" fill="#e44356" fill-rule="nonzero"/></g></g><g transform="translate(283.464566929 58.87519988)"><g transform="matrix(2.124093808 0 0 -0.029083467 0 0.208266707)"><use xlink:href="#g4BAB23A808A992CAAA4FBE755BACBC23" x="0" y="0" fill="#4d78ff" fill-rule="nonzero"/></g></g><g transform="translate(283.464566929 59.333466587)"><g transform="matrix(2.254549964 0 0 -0.029083467 0 0.208266707)"><use xlink:href="#gC989FCE3D905A8E717322010EEB7B642" x="0" y="0" fill="#ff07b8" fill-rule="nonzero"/></g></g><g transform="translate(283.464566929 59.791733293)"><g transform="matrix(2.498497778 0 0 -0.029083467 0 0.208266707)"><use xlink:href="#g299E107F8E293C761D775199AA0A8010" x="0" y="0" fill="#4d78ff" fill-rule="nonzero"/></g></g><g transform="translate(299.212598425 45.620197356)"><g transform="matrix(2.498497778 0 0 -0.464129629 0 3.323632275)"><use xlink:href="#g299E107F8E293C761D775199AA0A8010" x="0" y="0" fill="#4d78ff" fill-rule="nonzero"/></g></g><g transform="translate(299.212598425 49.193829631)"><g transform="matrix(2.732135929 0 0 -0.371303703 0 2.65890582)"><use xlink:href="#g76462530CF443880BAC9AE951AF166E9" x="0" y="0" fill="#bac1d2" fill-rule="nonzero"/></g></g><g transform="translate(299.212598425 52.10273545)"><g transform="matrix(2.574890696 0 0 -0.179050897 0 1.305818192)"><use xlink:href="#g4C2A99F1EE03426ECE624E4E887A0064" x="0" y="0" fill="#00c990" fill-rule="nonzero"/></g></g><g transform="translate(299.212598425 53.68218836)"><g transform="matrix(2.335463665 0 0 -0.185651852 0 1.32945291)"><use xlink:href="#gE176EFA5006630A06D33BDA271C8647" x="0" y="0" fill="#e44356" fill-rule="nonzero"/></g></g><g transform="translate(299.212598425 55.26164127)"><g transform="matrix(2.763782291 0 0 -0.185651852 0 1.32945291)"><use xlink:href="#gC332FE52893696B12EBDD5B945B5AE66" x="0" y="0" fill="#4d78ff" fill-rule="nonzero"/></g></g><g transform="translate(299.212598425 56.84109418)"><g transform="matrix(2.243948632 0 0 -0.179050897 0 1.305818192)"><use xlink:href="#g4FC30F1339117D02576C048DD8D5DD8A" x="0" y="0" fill="#f59116" fill-rule="nonzero"/></g></g><g transform="translate(299.212598425 58.42054709)"><g transform="matrix(2.574890696 0 0 -0.092825926 0 0.664726455)"><use xlink:href="#g59E945FF00FA2E92A7739B56D389448C" x="0" y="0" fill="#4d78ff" fill-rule="nonzero"/></g></g><g transform="translate(299.212598425 59.335273545)"><g transform="matrix(2.331659979 0 0 -0.092825926 0 0.664726455)"><use xlink:href="#gE5765198907F7711F508F04B639DE070" x="0" y="0" fill="#e44356" fill-rule="nonzero"/></g></g><g transform="translate(314.960629921 54.425728864)"><g transform="matrix(2.574890696 0 0 -0.092843769 0 0.664854227)"><use xlink:href="#g121D4D89741CBC8EE74AA1E08FA4E2AA" x="0" y="0" fill="#00c990" fill-rule="nonzero"/></g></g><g transform="translate(314.960629921 55.340583091)"><g transform="matrix(2.612480341 0 0 -0.092843769 0 0.664854227)"><use xlink:href="#g2A78A62D00879D5B71DD36D68D78AE17" x="0" y="0" fill="#ff07b8" fill-rule="nonzero"/></g></g><g transform="translate(314.960629921 56.255437318)"><g transform="matrix(2.574890696 0 0 -0.061895846 0 0.443236152)"><use xlink:href="#g59E945FF00FA2E92A7739B56D389448C" x="0" y="0" fill="#4d78ff" fill-rule="nonzero"/></g></g><g transform="translate(314.960629921 56.94867347)"><g transform="matrix(2.335463665 0 0 -0.030947923 0 0.221618076)"><use xlink:href="#gE176EFA5006630A06D33BDA271C8647" x="0" y="0" fill="#e44356" fill-rule="nonzero"/></g></g><g transform="translate(314.960629921 57.420291545)"><g transform="matrix(1.878791636 0 0 -0.030947923 0 0.221618076)"><use xlink:href="#gE1207787609A5CBBC607A037B6B2D099" x="0" y="0" fill="#4d78ff" fill-rule="nonzero"/></g></g><g transform="translate(314.960629921 57.891909621)"><g transform="matrix(2.331659979 0 0 -0.030947923 0 0.221618076)"><use xlink:href="#gE5765198907F7711F508F04B639DE070" x="0" y="0" fill="#e44356" fill-rule="nonzero"/></g></g><g transform="translate(314.960629921 58.363527697)"><g transform="matrix(2.243948632 0 0 -0.029847552 0 0.217678199)"><use xlink:href="#g4FC30F1339117D02576C048DD8D5DD8A" x="0" y="0" fill="#f59116" fill-rule="nonzero"/></g></g><g transform="translate(314.960629921 58.835145773)"><g transform="matrix(2.732135929 0 0 -0.030947923 0 0.221618076)"><use xlink:href="#g76462530CF443880BAC9AE951AF166E9" x="0" y="0" fill="#bac1d2" fill-rule="nonzero"/></g></g><g transform="translate(314.960629921 59.306763848)"><g transform="matrix(2.254549964 0 0 -0.030947923 0 0.221618076)"><use xlink:href="#gC989FCE3D905A8E717322010EEB7B642" x="0" y="0" fill="#ff07b8" fill-rule="nonzero"/></g></g><g transform="translate(314.960629921 59.778381924)"><g transform="matrix(2.498497778 0 0 -0.030947923 0 0.221618076)"><use xlink:href="#g299E107F8E293C761D775199AA0A8010" x="0" y="0" fill="#4d78ff" fill-rule="nonzero"/></g></g><g transform="translate(330.708661417 53.770337888)"><g transform="matrix(2.254549964 0 0 -0.047522223 0 0.340306641)"><use xlink:href="#gC989FCE3D905A8E717322010EEB7B642" x="0" y="0" fill="#ff07b8" fill-rule="nonzero"/></g></g><g transform="translate(330.708661417 54.360644529)"><g transform="matrix(2.40207924 0 0 -0.031681482 0 0.226871094)"><use xlink:href="#gEB136198160995B24917E13DCF0086D9" x="0" y="0" fill="#d9de09" fill-rule="nonzero"/></g></g><g transform="translate(330.708661417 54.837515624)"><g transform="matrix(2.612480341 0 0 -0.031681482 0 0.226871094)"><use xlink:href="#g2A78A62D00879D5B71DD36D68D78AE17" x="0" y="0" fill="#ff07b8" fill-rule="nonzero"/></g></g><g transform="translate(330.708661417 55.314386718)"><g transform="matrix(2.498497778 0 0 -0.031681482 0 0.226871094)"><use xlink:href="#g299E107F8E293C761D775199AA0A8010" x="0" y="0" fill="#4d78ff" fill-rule="nonzero"/></g></g><g transform="translate(330.708661417 55.791257812)"><g transform="matrix(2.726931861 0 0 -0.015840741 0 0.113435547)"><use xlink:href="#g5011A37DF7F6B8A06CC1AC0B2F129E79" x="0" y="0" fill="#bac1d2" fill-rule="nonzero"/></g></g><g transform="translate(330.708661417 56.154693359)"><g transform="matrix(2.574890696 0 0 -0.015840741 0 0.113435547)"><use xlink:href="#g121D4D89741CBC8EE74AA1E08FA4E2AA" x="0" y="0" fill="#00c990" fill-rule="nonzero"/></g></g><g transform="translate(330.708661417 56.536693359)"><g transform="matrix(2.574890696 0 0 -0.015277515 0 0.111418915)"><use xlink:href="#g4C2A99F1EE03426ECE624E4E887A0064" x="0" y="0" fill="#00c990" fill-rule="nonzero"/></g></g><g transform="translate(330.708661417 56.900128906)"><g transform="matrix(2.335463665 0 0 -0.015840741 0 0.113435547)"><use xlink:href="#gE176EFA5006630A06D33BDA271C8647" x="0" y="0" fill="#e44356" fill-rule="nonzero"/></g></g><g transform="translate(330.708661417 59.141128906)"><g transform="matrix(2.093039805 0 0 -0.012218392 0 0.08910873)"><use xlink:href="#g99F7A5B9463B24346207D7827E6B3035" x="0" y="0" fill="#00c990" fill-rule="nonzero"/></g></g><g transform="translate(330.708661417 59.504564453)"><g transform="matrix(2.124093808 0 0 -0.015840741 0 0.113435547)"><use xlink:href="#g4BAB23A808A992CAAA4FBE755BACBC23" x="0" y="0" fill="#4d78ff" fill-rule="nonzero"/></g></g><g transform="translate(330.708661417 59.886564453)"><g transform="matrix(2.243948632 0 0 -0.015277515 0 0.111418915)"><use xlink:href="#g4FC30F1339117D02576C048DD8D5DD8A" x="0" y="0" fill="#f59116" fill-rule="nonzero"/></g></g><g transform="translate(346.456692913 54.996160778)"><g transform="matrix(2.254549964 0 0 -0.061702832 0 0.44185398)"><use xlink:href="#gC989FCE3D905A8E717322010EEB7B642" x="0" y="0" fill="#ff07b8" fill-rule="nonzero"/></g></g><g transform="translate(346.456692913 55.688014758)"><g transform="matrix(2.335463665 0 0 -0.041135221 0 0.29456932)"><use xlink:href="#gE176EFA5006630A06D33BDA271C8647" x="0" y="0" fill="#e44356" fill-rule="nonzero"/></g></g><g transform="translate(346.456692913 56.232584078)"><g transform="matrix(2.763782291 0 0 -0.041135221 0 0.29456932)"><use xlink:href="#gC332FE52893696B12EBDD5B945B5AE66" x="0" y="0" fill="#4d78ff" fill-rule="nonzero"/></g></g><g transform="translate(346.456692913 56.777153399)"><g transform="matrix(2.459861215 0 0 -0.039672636 0 0.289332532)"><use xlink:href="#gD313BA69C0D48F5D3027C8CF7C587B9A" x="0" y="0" fill="#494e5b" fill-rule="nonzero"/></g></g><g transform="translate(346.456692913 57.321722719)"><g transform="matrix(2.498497778 0 0 -0.041135221 0 0.29456932)"><use xlink:href="#g299E107F8E293C761D775199AA0A8010" x="0" y="0" fill="#4d78ff" fill-rule="nonzero"/></g></g><g transform="translate(346.456692913 57.866292039)"><g transform="matrix(2.40207924 0 0 -0.020567611 0 0.14728466)"><use xlink:href="#gEB136198160995B24917E13DCF0086D9" x="0" y="0" fill="#d9de09" fill-rule="nonzero"/></g></g><g transform="translate(346.456692913 58.263576699)"><g transform="matrix(2.152840943 0 0 -0.020567611 0 0.14728466)"><use xlink:href="#gCE56F1DE108F514D8C8A0E6945120B44" x="0" y="0" fill="#00c990" fill-rule="nonzero"/></g></g><g transform="translate(346.456692913 58.660861359)"><g transform="matrix(1.878791636 0 0 -0.020567611 0 0.14728466)"><use xlink:href="#gE1207787609A5CBBC607A037B6B2D099" x="0" y="0" fill="#4d78ff" fill-rule="nonzero"/></g></g><g transform="translate(346.456692913 59.05814602)"><g transform="matrix(2.331659979 0 0 -0.020567611 0 0.14728466)"><use xlink:href="#gE5765198907F7711F508F04B639DE070" x="0" y="0" fill="#e44356" fill-rule="nonzero"/></g></g><g transform="translate(346.456692913 59.45543068)"><g transform="matrix(4.756276501 0 0 -0.020567611 0 0.14728466)"><use xlink:href="#g5E642DDC4B5B96B6B96BB32B7B35A636" x="0" y="0" fill="#4d78ff" fill-rule="nonzero"/></g></g><g transform="translate(346.456692913 59.85271534)"><g transform="matrix(2.612480341 0 0 -0.020567611 0 0.14728466)"><use xlink:href="#g2A78A62D00879D5B71DD36D68D78AE17" x="0" y="0" fill="#ff07b8" fill-rule="nonzero"/></g></g><g transform="translate(362.204724409 51.073685272)"><g transform="matrix(2.763782291 0 0 -0.316731054 0 2.26811108)"><use xlink:href="#gC332FE52893696B12EBDD5B945B5AE66" x="0" y="0" fill="#4d78ff" fill-rule="nonzero"/></g></g><g transform="translate(362.204724409 53.591796353)"><g transform="matrix(2.335463665 0 0 -0.105577018 0 0.756037027)"><use xlink:href="#gE176EFA5006630A06D33BDA271C8647" x="0" y="0" fill="#e44356" fill-rule="nonzero"/></g></g><g transform="translate(362.204724409 54.59783338)"><g transform="matrix(2.574890696 0 0 -0.052788509 0 0.378018513)"><use xlink:href="#g59E945FF00FA2E92A7739B56D389448C" x="0" y="0" fill="#4d78ff" fill-rule="nonzero"/></g></g><g transform="translate(362.204724409 55.225851893)"><g transform="matrix(2.574890696 0 0 -0.052788509 0 0.378018513)"><use xlink:href="#g121D4D89741CBC8EE74AA1E08FA4E2AA" x="0" y="0" fill="#00c990" fill-rule="nonzero"/></g></g><g transform="translate(362.204724409 55.853870406)"><g transform="matrix(2.574890696 0 0 -0.050911584 0 0.371298184)"><use xlink:href="#g4C2A99F1EE03426ECE624E4E887A0064" x="0" y="0" fill="#00c990" fill-rule="nonzero"/></g></g><g transform="translate(362.204724409 56.48188892)"><g transform="matrix(1.878791636 0 0 -0.052788509 0 0.378018513)"><use xlink:href="#gE1207787609A5CBBC607A037B6B2D099" x="0" y="0" fill="#4d78ff" fill-rule="nonzero"/></g></g><g transform="translate(362.204724409 57.109907433)"><g transform="matrix(4.756276501 0 0 -0.052788509 0 0.378018513)"><use xlink:href="#g5E642DDC4B5B96B6B96BB32B7B35A636" x="0" y="0" fill="#4d78ff" fill-rule="nonzero"/></g></g><g transform="translate(362.204724409 57.737925946)"><g transform="matrix(2.243948632 0 0 -0.050911584 0 0.371298184)"><use xlink:href="#g4FC30F1339117D02576C048DD8D5DD8A" x="0" y="0" fill="#f59116" fill-rule="nonzero"/></g></g><g transform="translate(362.204724409 58.36594446)"><g transform="matrix(2.732135929 0 0 -0.052788509 0 0.378018513)"><use xlink:href="#g76462530CF443880BAC9AE951AF166E9" x="0" y="0" fill="#bac1d2" fill-rule="nonzero"/></g></g><g transform="translate(362.204724409 58.993962973)"><g transform="matrix(2.254549964 0 0 -0.052788509 0 0.378018513)"><use xlink:href="#gC989FCE3D905A8E717322010EEB7B642" x="0" y="0" fill="#ff07b8" fill-rule="nonzero"/></g></g><g transform="translate(362.204724409 59.621981487)"><g transform="matrix(2.498497778 0 0 -0.052788509 0 0.378018513)"><use xlink:href="#g299E107F8E293C761D775199AA0A8010" x="0" y="0" fill="#4d78ff" fill-rule="nonzero"/></g></g><g transform="translate(377.952755906 48.599875826)"><g transform="matrix(2.763782291 0 0 -0.364634214 0 2.611145604)"><use xlink:href="#gC332FE52893696B12EBDD5B945B5AE66" x="0" y="0" fill="#4d78ff" fill-rule="nonzero"/></g></g><g transform="translate(377.952755906 51.46102143)"><g transform="matrix(1.878791636 0 0 -0.218780528 0 1.566687362)"><use xlink:href="#gE1207787609A5CBBC607A037B6B2D099" x="0" y="0" fill="#4d78ff" fill-rule="nonzero"/></g></g><g transform="translate(377.952755906 53.277708792)"><g transform="matrix(2.335463665 0 0 -0.145853685 0 1.044458242)"><use xlink:href="#gE176EFA5006630A06D33BDA271C8647" x="0" y="0" fill="#e44356" fill-rule="nonzero"/></g></g><g transform="translate(377.952755906 54.572167034)"><g transform="matrix(2.243948632 0 0 -0.140667777 0 1.025890095)"><use xlink:href="#g4FC30F1339117D02576C048DD8D5DD8A" x="0" y="0" fill="#f59116" fill-rule="nonzero"/></g></g><g transform="translate(377.952755906 55.866625275)"><g transform="matrix(2.254549964 0 0 -0.145853685 0 1.044458242)"><use xlink:href="#gC989FCE3D905A8E717322010EEB7B642" x="0" y="0" fill="#ff07b8" fill-rule="nonzero"/></g></g><g transform="translate(377.952755906 57.161083517)"><g transform="matrix(2.574890696 0 0 -0.072926843 0 0.522229121)"><use xlink:href="#g59E945FF00FA2E92A7739B56D389448C" x="0" y="0" fill="#4d78ff" fill-rule="nonzero"/></g></g><g transform="translate(377.952755906 57.933312638)"><g transform="matrix(2.574890696 0 0 -0.072926843 0 0.522229121)"><use xlink:href="#g121D4D89741CBC8EE74AA1E08FA4E2AA" x="0" y="0" fill="#00c990" fill-rule="nonzero"/></g></g><g transform="translate(377.952755906 58.705541758)"><g transform="matrix(2.152840943 0 0 -0.072926843 0 0.522229121)"><use xlink:href="#gCE56F1DE108F514D8C8A0E6945120B44" x="0" y="0" fill="#00c990" fill-rule="nonzero"/></g></g><g transform="translate(377.952755906 59.477770879)"><g transform="matrix(2.331659979 0 0 -0.072926843 0 0.522229121)"><use xlink:href="#gE5765198907F7711F508F04B639DE070" x="0" y="0" fill="#e44356" fill-rule="nonzero"/></g></g><g transform="translate(393.700787402 49.734211792)"><g transform="matrix(2.335463665 0 0 -0.271113958 0 1.941447052)"><use xlink:href="#gE176EFA5006630A06D33BDA271C8647" x="0" y="0" fill="#e44356" fill-rule="nonzero"/></g></g><g transform="translate(393.700787402 51.925658844)"><g transform="matrix(2.612480341 0 0 -0.162668375 0 1.164868231)"><use xlink:href="#g2A78A62D00879D5B71DD36D68D78AE17" x="0" y="0" fill="#ff07b8" fill-rule="nonzero"/></g></g><g transform="translate(393.700787402 53.340527075)"><g transform="matrix(2.254549964 0 0 -0.162668375 0 1.164868231)"><use xlink:href="#gC989FCE3D905A8E717322010EEB7B642" x="0" y="0" fill="#ff07b8" fill-rule="nonzero"/></g></g><g transform="translate(393.700787402 54.755395306)"><g transform="matrix(2.331659979 0 0 -0.108445583 0 0.776578821)"><use xlink:href="#gE5765198907F7711F508F04B639DE070" x="0" y="0" fill="#e44356" fill-rule="nonzero"/></g></g><g transform="translate(393.700787402 55.781974127)"><g transform="matrix(2.726931861 0 0 -0.054222792 0 0.38828941)"><use xlink:href="#g5011A37DF7F6B8A06CC1AC0B2F129E79" x="0" y="0" fill="#bac1d2" fill-rule="nonzero"/></g></g><g transform="translate(393.700787402 56.420263538)"><g transform="matrix(1.760933858 0 0 -0.054222792 0 0.38828941)"><use xlink:href="#g16895E3248943340EE3D89A2B8356084" x="0" y="0" fill="#bac1d2" fill-rule="nonzero"/></g></g><g transform="translate(393.700787402 57.058552948)"><g transform="matrix(2.574890696 0 0 -0.054222792 0 0.38828941)"><use xlink:href="#g121D4D89741CBC8EE74AA1E08FA4E2AA" x="0" y="0" fill="#00c990" fill-rule="nonzero"/></g></g><g transform="translate(393.700787402 57.696842358)"><g transform="matrix(2.40207924 0 0 -0.054222792 0 0.38828941)"><use xlink:href="#gEB136198160995B24917E13DCF0086D9" x="0" y="0" fill="#d9de09" fill-rule="nonzero"/></g></g><g transform="translate(393.700787402 58.335131769)"><g transform="matrix(2.152840943 0 0 -0.054222792 0 0.38828941)"><use xlink:href="#gCE56F1DE108F514D8C8A0E6945120B44" x="0" y="0" fill="#00c990" fill-rule="nonzero"/></g></g><g transform="translate(393.700787402 58.973421179)"><g transform="matrix(2.763782291 0 0 -0.054222792 0 0.38828941)"><use xlink:href="#gC332FE52893696B12EBDD5B945B5AE66" x="0" y="0" fill="#4d78ff" fill-rule="nonzero"/></g></g><g transform="translate(393.700787402 59.61171059)"><g transform="matrix(2.243948632 0 0 -0.05229487 0 0.381386488)"><use xlink:href="#g4FC30F1339117D02576C048DD8D5DD8A" x="0" y="0" fill="#f59116" fill-rule="nonzero"/></g></g><g transform="translate(409.448818898 43.545185043)"><g transform="matrix(2.763782291 0 0 -0.458029787 0 3.279951305)"><use xlink:href="#gC332FE52893696B12EBDD5B945B5AE66" x="0" y="0" fill="#4d78ff" fill-rule="nonzero"/></g></g><g transform="translate(409.448818898 47.075136347)"><g transform="matrix(2.612480341 0 0 -0.36642383 0 2.623961044)"><use xlink:href="#g2A78A62D00879D5B71DD36D68D78AE17" x="0" y="0" fill="#ff07b8" fill-rule="nonzero"/></g></g><g transform="translate(409.448818898 49.949097391)"><g transform="matrix(2.498497778 0 0 -0.36642383 0 2.623961044)"><use xlink:href="#g299E107F8E293C761D775199AA0A8010" x="0" y="0" fill="#4d78ff" fill-rule="nonzero"/></g></g><g transform="translate(409.448818898 52.823058434)"><g transform="matrix(2.254549964 0 0 -0.183211915 0 1.311980522)"><use xlink:href="#gC989FCE3D905A8E717322010EEB7B642" x="0" y="0" fill="#ff07b8" fill-rule="nonzero"/></g></g><g transform="translate(409.448818898 55.720048695)"><g transform="matrix(2.093039805 0 0 -0.07065815 0 0.515309885)"><use xlink:href="#g99F7A5B9463B24346207D7827E6B3035" x="0" y="0" fill="#00c990" fill-rule="nonzero"/></g></g><g transform="translate(409.448818898 56.626038956)"><g transform="matrix(2.152840943 0 0 -0.091605957 0 0.655990261)"><use xlink:href="#gCE56F1DE108F514D8C8A0E6945120B44" x="0" y="0" fill="#00c990" fill-rule="nonzero"/></g></g><g transform="translate(409.448818898 57.532029217)"><g transform="matrix(2.331659979 0 0 -0.091605957 0 0.655990261)"><use xlink:href="#gE5765198907F7711F508F04B639DE070" x="0" y="0" fill="#e44356" fill-rule="nonzero"/></g></g><g transform="translate(409.448818898 58.438019478)"><g transform="matrix(2.124093808 0 0 -0.091605957 0 0.655990261)"><use xlink:href="#g4BAB23A808A992CAAA4FBE755BACBC23" x="0" y="0" fill="#4d78ff" fill-rule="nonzero"/></g></g><g transform="translate(409.448818898 59.344009739)"><g transform="matrix(2.243948632 0 0 -0.088348857 0 0.644328212)"><use xlink:href="#g4FC30F1339117D02576C048DD8D5DD8A" x="0" y="0" fill="#f59116" fill-rule="nonzero"/></g></g><g transform="translate(425.196850394 38.159859035)"><g transform="matrix(2.732135929 0 0 -0.809169888 0 5.794465568)"><use xlink:href="#g76462530CF443880BAC9AE951AF166E9" x="0" y="0" fill="#bac1d2" fill-rule="nonzero"/></g></g><g transform="translate(425.196850394 44.204324603)"><g transform="matrix(2.763782291 0 0 -0.67430824 0 4.828721307)"><use xlink:href="#gC332FE52893696B12EBDD5B945B5AE66" x="0" y="0" fill="#4d78ff" fill-rule="nonzero"/></g></g><g transform="translate(425.196850394 49.28304591)"><g transform="matrix(2.574890696 0 0 -0.539446592 0 3.862977045)"><use xlink:href="#g59E945FF00FA2E92A7739B56D389448C" x="0" y="0" fill="#4d78ff" fill-rule="nonzero"/></g></g><g transform="translate(425.196850394 53.396022955)"><g transform="matrix(1.760933858 0 0 -0.269723296 0 1.931488523)"><use xlink:href="#g16895E3248943340EE3D89A2B8356084" x="0" y="0" fill="#bac1d2" fill-rule="nonzero"/></g></g><g transform="translate(425.196850394 55.577511477)"><g transform="matrix(2.726931861 0 0 -0.134861648 0 0.965744261)"><use xlink:href="#g5011A37DF7F6B8A06CC1AC0B2F129E79" x="0" y="0" fill="#bac1d2" fill-rule="nonzero"/></g></g><g transform="translate(425.196850394 57.818511477)"><g transform="matrix(2.093039805 0 0 -0.104022432 0 0.758635599)"><use xlink:href="#g99F7A5B9463B24346207D7827E6B3035" x="0" y="0" fill="#00c990" fill-rule="nonzero"/></g></g><g transform="translate(425.196850394 59.034255739)"><g transform="matrix(2.612480341 0 0 -0.134861648 0 0.965744261)"><use xlink:href="#g2A78A62D00879D5B71DD36D68D78AE17" x="0" y="0" fill="#ff07b8" fill-rule="nonzero"/></g></g><g transform="translate(440.94488189 49.008774493)"><g transform="matrix(2.335463665 0 0 -0.191100199 0 1.368468528)"><use xlink:href="#gE176EFA5006630A06D33BDA271C8647" x="0" y="0" fill="#e44356" fill-rule="nonzero"/></g></g><g transform="translate(440.94488189 50.627243021)"><g transform="matrix(2.612480341 0 0 -0.191100199 0 1.368468528)"><use xlink:href="#g2A78A62D00879D5B71DD36D68D78AE17" x="0" y="0" fill="#ff07b8" fill-rule="nonzero"/></g></g><g transform="translate(440.94488189 52.245711549)"><g transform="matrix(2.574890696 0 0 -0.092152763 0 0.672070099)"><use xlink:href="#g4C2A99F1EE03426ECE624E4E887A0064" x="0" y="0" fill="#00c990" fill-rule="nonzero"/></g></g><g transform="translate(440.94488189 53.179945812)"><g transform="matrix(2.763782291 0 0 -0.0955501 0 0.684234264)"><use xlink:href="#gC332FE52893696B12EBDD5B945B5AE66" x="0" y="0" fill="#4d78ff" fill-rule="nonzero"/></g></g><g transform="translate(440.94488189 54.114180076)"><g transform="matrix(2.254549964 0 0 -0.0955501 0 0.684234264)"><use xlink:href="#gC989FCE3D905A8E717322010EEB7B642" x="0" y="0" fill="#ff07b8" fill-rule="nonzero"/></g></g><g transform="translate(440.94488189 55.04841434)"><g transform="matrix(2.726931861 0 0 -0.04777505 0 0.342117132)"><use xlink:href="#g5011A37DF7F6B8A06CC1AC0B2F129E79" x="0" y="0" fill="#bac1d2" fill-rule="nonzero"/></g></g><g transform="translate(440.94488189 55.640531472)"><g transform="matrix(1.760933858 0 0 -0.04777505 0 0.342117132)"><use xlink:href="#g16895E3248943340EE3D89A2B8356084" x="0" y="0" fill="#bac1d2" fill-rule="nonzero"/></g></g><g transform="translate(440.94488189 56.232648604)"><g transform="matrix(2.574890696 0 0 -0.04777505 0 0.342117132)"><use xlink:href="#g59E945FF00FA2E92A7739B56D389448C" x="0" y="0" fill="#4d78ff" fill-rule="nonzero"/></g></g><g transform="translate(440.94488189 58.473648604)"><g transform="matrix(2.093039805 0 0 -0.036850187 0 0.268748411)"><use xlink:href="#g99F7A5B9463B24346207D7827E6B3035" x="0" y="0" fill="#00c990" fill-rule="nonzero"/></g></g><g transform="translate(440.94488189 59.065765736)"><g transform="matrix(2.331659979 0 0 -0.04777505 0 0.342117132)"><use xlink:href="#gE5765198907F7711F508F04B639DE070" x="0" y="0" fill="#e44356" fill-rule="nonzero"/></g></g><g transform="translate(440.94488189 59.657882868)"><g transform="matrix(2.498497778 0 0 -0.04777505 0 0.342117132)"><use xlink:href="#g299E107F8E293C761D775199AA0A8010" x="0" y="0" fill="#4d78ff" fill-rule="nonzero"/></g></g><g transform="translate(456.692913386 47.555547573)"><g transform="matrix(2.612480341 0 0 -0.254571907 0 1.822989428)"><use xlink:href="#g2A78A62D00879D5B71DD36D68D78AE17" x="0" y="0" fill="#ff07b8" fill-rule="nonzero"/></g></g><g transform="translate(456.692913386 49.628537001)"><g transform="matrix(2.254549964 0 0 -0.254571907 0 1.822989428)"><use xlink:href="#gC989FCE3D905A8E717322010EEB7B642" x="0" y="0" fill="#ff07b8" fill-rule="nonzero"/></g></g><g transform="translate(456.692913386 51.701526429)"><g transform="matrix(2.335463665 0 0 -0.19092893 0 1.367242071)"><use xlink:href="#gE176EFA5006630A06D33BDA271C8647" x="0" y="0" fill="#e44356" fill-rule="nonzero"/></g></g><g transform="translate(456.692913386 54.398273786)"><g transform="matrix(2.093039805 0 0 -0.098179095 0 0.716020137)"><use xlink:href="#g99F7A5B9463B24346207D7827E6B3035" x="0" y="0" fill="#00c990" fill-rule="nonzero"/></g></g><g transform="translate(456.692913386 55.5597685)"><g transform="matrix(2.331659979 0 0 -0.127285954 0 0.911494714)"><use xlink:href="#gE5765198907F7711F508F04B639DE070" x="0" y="0" fill="#e44356" fill-rule="nonzero"/></g></g><g transform="translate(456.692913386 56.721263215)"><g transform="matrix(2.574890696 0 0 -0.063642977 0 0.455747357)"><use xlink:href="#g121D4D89741CBC8EE74AA1E08FA4E2AA" x="0" y="0" fill="#00c990" fill-rule="nonzero"/></g></g><g transform="translate(456.692913386 57.427010572)"><g transform="matrix(2.152840943 0 0 -0.063642977 0 0.455747357)"><use xlink:href="#gCE56F1DE108F514D8C8A0E6945120B44" x="0" y="0" fill="#00c990" fill-rule="nonzero"/></g></g><g transform="translate(456.692913386 58.132757929)"><g transform="matrix(2.763782291 0 0 -0.063642977 0 0.455747357)"><use xlink:href="#gC332FE52893696B12EBDD5B945B5AE66" x="0" y="0" fill="#4d78ff" fill-rule="nonzero"/></g></g><g transform="translate(456.692913386 58.838505286)"><g transform="matrix(2.124093808 0 0 -0.063642977 0 0.455747357)"><use xlink:href="#g4BAB23A808A992CAAA4FBE755BACBC23" x="0" y="0" fill="#4d78ff" fill-rule="nonzero"/></g></g><g transform="translate(456.692913386 59.544252643)"><g transform="matrix(2.243948632 0 0 -0.061380115 0 0.447645182)"><use xlink:href="#g4FC30F1339117D02576C048DD8D5DD8A" x="0" y="0" fill="#f59116" fill-rule="nonzero"/></g></g><g transform="translate(472.440944882 34.753958843)"><g transform="matrix(2.726931861 0 0 -1.507920475 0 10.798218521)"><use xlink:href="#g5011A37DF7F6B8A06CC1AC0B2F129E79" x="0" y="0" fill="#bac1d2" fill-rule="nonzero"/></g></g><g transform="translate(472.440944882 45.802177364)"><g transform="matrix(2.335463665 0 0 -0.502640158 0 3.599406174)"><use xlink:href="#gE176EFA5006630A06D33BDA271C8647" x="0" y="0" fill="#e44356" fill-rule="nonzero"/></g></g><g transform="translate(472.440944882 49.651583537)"><g transform="matrix(2.763782291 0 0 -0.502640158 0 3.599406174)"><use xlink:href="#gC332FE52893696B12EBDD5B945B5AE66" x="0" y="0" fill="#4d78ff" fill-rule="nonzero"/></g></g><g transform="translate(472.440944882 53.500989711)"><g transform="matrix(2.732135929 0 0 -0.502640158 0 3.599406174)"><use xlink:href="#g76462530CF443880BAC9AE951AF166E9" x="0" y="0" fill="#bac1d2" fill-rule="nonzero"/></g></g><g transform="translate(472.440944882 57.350395884)"><g transform="matrix(1.878791636 0 0 -0.167546719 0 1.199802058)"><use xlink:href="#gE1207787609A5CBBC607A037B6B2D099" x="0" y="0" fill="#4d78ff" fill-rule="nonzero"/></g></g><g transform="translate(472.440944882 58.800197942)"><g transform="matrix(2.124093808 0 0 -0.167546719 0 1.199802058)"><use xlink:href="#g4BAB23A808A992CAAA4FBE755BACBC23" x="0" y="0" fill="#4d78ff" fill-rule="nonzero"/></g></g><g transform="translate(488.188976378 41.912835348)"><g transform="matrix(4.756276501 0 0 -0.684422482 0 4.901149396)"><use xlink:href="#g5E642DDC4B5B96B6B96BB32B7B35A636" x="0" y="0" fill="#4d78ff" fill-rule="nonzero"/></g></g><g transform="translate(488.188976378 47.063984744)"><g transform="matrix(2.574890696 0 0 -0.456281655 0 3.26743293)"><use xlink:href="#g59E945FF00FA2E92A7739B56D389448C" x="0" y="0" fill="#4d78ff" fill-rule="nonzero"/></g></g><g transform="translate(488.188976378 50.581417674)"><g transform="matrix(2.763782291 0 0 -0.456281655 0 3.26743293)"><use xlink:href="#gC332FE52893696B12EBDD5B945B5AE66" x="0" y="0" fill="#4d78ff" fill-rule="nonzero"/></g></g><g transform="translate(488.188976378 54.098850604)"><g transform="matrix(1.878791636 0 0 -0.228140827 0 1.633716465)"><use xlink:href="#gE1207787609A5CBBC607A037B6B2D099" x="0" y="0" fill="#4d78ff" fill-rule="nonzero"/></g></g><g transform="translate(488.188976378 55.98256707)"><g transform="matrix(1.760933858 0 0 -0.114070414 0 0.816858233)"><use xlink:href="#g16895E3248943340EE3D89A2B8356084" x="0" y="0" fill="#bac1d2" fill-rule="nonzero"/></g></g><g transform="translate(488.188976378 57.049425302)"><g transform="matrix(2.574890696 0 0 -0.114070414 0 0.816858233)"><use xlink:href="#g121D4D89741CBC8EE74AA1E08FA4E2AA" x="0" y="0" fill="#00c990" fill-rule="nonzero"/></g></g><g transform="translate(488.188976378 58.116283535)"><g transform="matrix(2.459861215 0 0 -0.110014577 0 0.802336308)"><use xlink:href="#gD313BA69C0D48F5D3027C8CF7C587B9A" x="0" y="0" fill="#494e5b" fill-rule="nonzero"/></g></g><g transform="translate(488.188976378 59.183141767)"><g transform="matrix(2.498497778 0 0 -0.114070414 0 0.816858233)"><use xlink:href="#g299E107F8E293C761D775199AA0A8010" x="0" y="0" fill="#4d78ff" fill-rule="nonzero"/></g></g><g transform="translate(503.937007874 50.099279649)"><g transform="matrix(2.763782291 0 0 -0.239734545 0 1.716739077)"><use xlink:href="#gC332FE52893696B12EBDD5B945B5AE66" x="0" y="0" fill="#4d78ff" fill-rule="nonzero"/></g></g><g transform="translate(503.937007874 52.066018726)"><g transform="matrix(2.726931861 0 0 -0.034247792 0 0.24524844)"><use xlink:href="#g5011A37DF7F6B8A06CC1AC0B2F129E79" x="0" y="0" fill="#bac1d2" fill-rule="nonzero"/></g></g><g transform="translate(503.937007874 52.561267165)"><g transform="matrix(1.760933858 0 0 -0.034247792 0 0.24524844)"><use xlink:href="#g16895E3248943340EE3D89A2B8356084" x="0" y="0" fill="#bac1d2" fill-rule="nonzero"/></g></g><g transform="translate(503.937007874 53.056515605)"><g transform="matrix(2.574890696 0 0 -0.034247792 0 0.24524844)"><use xlink:href="#g59E945FF00FA2E92A7739B56D389448C" x="0" y="0" fill="#4d78ff" fill-rule="nonzero"/></g></g><g transform="translate(503.937007874 53.551764044)"><g transform="matrix(2.574890696 0 0 -0.034247792 0 0.24524844)"><use xlink:href="#g121D4D89741CBC8EE74AA1E08FA4E2AA" x="0" y="0" fill="#00c990" fill-rule="nonzero"/></g></g><g transform="translate(503.937007874 54.047012484)"><g transform="matrix(2.335463665 0 0 -0.034247792 0 0.24524844)"><use xlink:href="#gE176EFA5006630A06D33BDA271C8647" x="0" y="0" fill="#e44356" fill-rule="nonzero"/></g></g><g transform="translate(503.937007874 56.288012484)"><g transform="matrix(2.093039805 0 0 -0.026416247 0 0.192653691)"><use xlink:href="#g99F7A5B9463B24346207D7827E6B3035" x="0" y="0" fill="#00c990" fill-rule="nonzero"/></g></g><g transform="translate(503.937007874 56.783260923)"><g transform="matrix(2.152840943 0 0 -0.034247792 0 0.24524844)"><use xlink:href="#gCE56F1DE108F514D8C8A0E6945120B44" x="0" y="0" fill="#00c990" fill-rule="nonzero"/></g></g><g transform="translate(503.937007874 57.278509363)"><g transform="matrix(1.878791636 0 0 -0.034247792 0 0.24524844)"><use xlink:href="#gE1207787609A5CBBC607A037B6B2D099" x="0" y="0" fill="#4d78ff" fill-rule="nonzero"/></g></g><g transform="translate(503.937007874 57.773757802)"><g transform="matrix(4.756276501 0 0 -0.034247792 0 0.24524844)"><use xlink:href="#g5E642DDC4B5B96B6B96BB32B7B35A636" x="0" y="0" fill="#4d78ff" fill-rule="nonzero"/></g></g><g transform="translate(503.937007874 58.269006242)"><g transform="matrix(2.732135929 0 0 -0.034247792 0 0.24524844)"><use xlink:href="#g76462530CF443880BAC9AE951AF166E9" x="0" y="0" fill="#bac1d2" fill-rule="nonzero"/></g></g><g transform="translate(503.937007874 58.764254681)"><g transform="matrix(2.612480341 0 0 -0.034247792 0 0.24524844)"><use xlink:href="#g2A78A62D00879D5B71DD36D68D78AE17" x="0" y="0" fill="#ff07b8" fill-rule="nonzero"/></g></g><g transform="translate(503.937007874 59.259503121)"><g transform="matrix(2.254549964 0 0 -0.034247792 0 0.24524844)"><use xlink:href="#gC989FCE3D905A8E717322010EEB7B642" x="0" y="0" fill="#ff07b8" fill-rule="nonzero"/></g></g><g transform="translate(503.937007874 59.75475156)"><g transform="matrix(2.498497778 0 0 -0.034247792 0 0.24524844)"><use xlink:href="#g299E107F8E293C761D775199AA0A8010" x="0" y="0" fill="#4d78ff" fill-rule="nonzero"/></g></g><g transform="translate(519.68503937 49.257786358)"><g transform="matrix(2.726931861 0 0 -0.237179546 0 1.698442728)"><use xlink:href="#g5011A37DF7F6B8A06CC1AC0B2F129E79" x="0" y="0" fill="#bac1d2" fill-rule="nonzero"/></g></g><g transform="translate(519.68503937 51.206229087)"><g transform="matrix(2.574890696 0 0 -0.237179546 0 1.698442728)"><use xlink:href="#g59E945FF00FA2E92A7739B56D389448C" x="0" y="0" fill="#4d78ff" fill-rule="nonzero"/></g></g><g transform="translate(519.68503937 53.154671815)"><g transform="matrix(2.335463665 0 0 -0.118589773 0 0.849221364)"><use xlink:href="#gE176EFA5006630A06D33BDA271C8647" x="0" y="0" fill="#e44356" fill-rule="nonzero"/></g></g><g transform="translate(519.68503937 54.253893179)"><g transform="matrix(4.756276501 0 0 -0.118589773 0 0.849221364)"><use xlink:href="#g5E642DDC4B5B96B6B96BB32B7B35A636" x="0" y="0" fill="#4d78ff" fill-rule="nonzero"/></g></g><g transform="translate(519.68503937 55.353114543)"><g transform="matrix(2.732135929 0 0 -0.118589773 0 0.849221364)"><use xlink:href="#g76462530CF443880BAC9AE951AF166E9" x="0" y="0" fill="#bac1d2" fill-rule="nonzero"/></g></g><g transform="translate(519.68503937 56.452335908)"><g transform="matrix(2.498497778 0 0 -0.118589773 0 0.849221364)"><use xlink:href="#g299E107F8E293C761D775199AA0A8010" x="0" y="0" fill="#4d78ff" fill-rule="nonzero"/></g></g><g transform="translate(519.68503937 57.551557272)"><g transform="matrix(1.760933858 0 0 -0.059294886 0 0.424610682)"><use xlink:href="#g16895E3248943340EE3D89A2B8356084" x="0" y="0" fill="#bac1d2" fill-rule="nonzero"/></g></g><g transform="translate(519.68503937 58.226167954)"><g transform="matrix(2.152840943 0 0 -0.059294886 0 0.424610682)"><use xlink:href="#gCE56F1DE108F514D8C8A0E6945120B44" x="0" y="0" fill="#00c990" fill-rule="nonzero"/></g></g><g transform="translate(519.68503937 58.900778636)"><g transform="matrix(2.763782291 0 0 -0.059294886 0 0.424610682)"><use xlink:href="#gC332FE52893696B12EBDD5B945B5AE66" x="0" y="0" fill="#4d78ff" fill-rule="nonzero"/></g></g><g transform="translate(519.68503937 59.575389318)"><g transform="matrix(2.254549964 0 0 -0.059294886 0 0.424610682)"><use xlink:href="#gC989FCE3D905A8E717322010EEB7B642" x="0" y="0" fill="#ff07b8" fill-rule="nonzero"/></g></g><g transform="translate(535.433070866)"><g transform="matrix(2.243948632 0 0 -8.080808081 0 58.933333333)"><use xlink:href="#g4FC30F1339117D02576C048DD8D5DD8A" x="0" y="0" fill="#f59116" fill-rule="nonzero"/></g></g><g transform="translate(551.181102362 7.487822302)"><g transform="matrix(2.243948632 0 0 -6.334809418 0 46.199765085)"><use xlink:href="#g4FC30F1339117D02576C048DD8D5DD8A" x="0" y="0" fill="#f59116" fill-rule="nonzero"/></g></g><g transform="translate(551.181102362 54.77378223)"><g transform="matrix(2.574890696 0 0 -0.703867713 0 5.133307232)"><use xlink:href="#g4C2A99F1EE03426ECE624E4E887A0064" x="0" y="0" fill="#00c990" fill-rule="nonzero"/></g></g></g><defs><symbol id="g299E107F8E293C761D775199AA0A8010" overflow="visible"><path d="M 0 0m -0.071249929 0l 2.250656485 7.169375549h 1.939249512l 2.250656128 -7.169375549h -1.711374146l -0.939938049 3.631000366q -0.151374878 0.541218597 -0.295484344 1.146218597q -0.144109467 0.605 -0.285796906 1.168218597h -0.044q -0.124531494 -0.568061981 -0.268640961 -1.170640289q -0.144109299 -0.602578308 -0.295484344 -1.143796906l -0.944781433 -3.631000366h -1.655061941Z m 1.484499838 1.70690657v 1.259561935h 3.449562469v -1.259561935h -3.449562469Z "/></symbol><symbol id="g59E945FF00FA2E92A7739B56D389448C" overflow="visible"><path d="M 0 0m 2.043255371 0l -2.122253418 7.169376221h 1.715231934l 0.820257324 -3.341013672q 0.09768811 -0.389500977 0.187938599 -0.769969788q 0.090250488 -0.380468811 0.185032166 -0.755437622q 0.094781677 -0.374968811 0.201532166 -0.771594543h 0.044q 0.106750488 0.396625732 0.196032166 0.771594543q 0.089281677 0.374968811 0.184063354 0.755437622q 0.094781677 0.380468811 0.19440741 0.769969788l 0.890132568 3.341013672h 1.656982422l -2.206378174 -7.169376221h -1.946978516Z "/></symbol><symbol id="g121D4D89741CBC8EE74AA1E08FA4E2AA" overflow="visible"><path d="M 0 0m 2.248031342 0v 5.808187988h -1.974343819v 1.361187561h 5.569437416v -1.361187561h -1.974343903v -5.808187988h -1.620749695Z "/></symbol><symbol id="g4C2A99F1EE03426ECE624E4E887A0064" overflow="visible"><path d="M 0 0m 3.038623779 -0.132q -0.721438599 0 -1.411562378 0.259125732q -0.690123779 0.259125732 -1.244059448 0.7865l 0.858241699 1.05373877q 0.385 -0.333189087 0.874469788 -0.516596497q 0.489469788 -0.18340741 0.959159851 -0.18340741q 0.508442505 0 0.758102356 0.185284607q 0.249659851 0.185284607 0.249659851 0.506727112q 0 0.230253418 -0.128094543 0.367692993q -0.128094543 0.137439575 -0.35809552 0.247409363q -0.230000977 0.109969788 -0.547689087 0.238720276l -0.931690063 0.388189087q -0.373374268 0.161124756 -0.70531189 0.420936646q -0.331937622 0.25981189 -0.536719299 0.64159259q -0.204781677 0.381780701 -0.204781677 0.900718323q 0 0.598561401 0.327436646 1.079685181q 0.327436646 0.481123779 0.90271637 0.769091614q 0.575279724 0.287967834 1.323340149 0.287967834q 0.650937622 0 1.25209259 -0.231312866q 0.601154968 -0.231312866 1.054153015 -0.662936646l -0.850491211 -1.05373877q -0.357187134 0.266563354 -0.72468811 0.40759552q -0.367500977 0.141032166 -0.731066284 0.141032166q -0.414629639 0 -0.664632568 -0.166534119q -0.25000293 -0.166534119 -0.25000293 -0.476350891q 0 -0.215378174 0.141032166 -0.359942505q 0.141032166 -0.144564331 0.393689087 -0.251627686q 0.252656921 -0.107063354 0.560031189 -0.237125732l 0.913565308 -0.370064331q 0.445187134 -0.177937622 0.760937622 -0.440655945q 0.315750488 -0.262718323 0.488500977 -0.632843079q 0.172750488 -0.370124756 0.172750488 -0.876750488q 0 -0.59531189 -0.315780701 -1.102310913q -0.315780701 -0.506999023 -0.922435669 -0.81340448q -0.606654968 -0.306405457 -1.462777771 -0.306405457Z "/></symbol><symbol id="gEB136198160995B24917E13DCF0086D9" overflow="visible"><path d="M 0 0m 0.846253418 0v 7.169376221h 2.462990234q 0.788750488 0 1.434218323 -0.215155945q 0.645467834 -0.215155945 1.030498047 -0.717623779q 0.385030212 -0.502467834 0.385030212 -1.373465881q 0 -0.837998047 -0.38309259 -1.376059448q -0.38309259 -0.538061401 -1.023060425 -0.796248535q -0.639967834 -0.258187134 -1.399593567 -0.258187134h -0.886257324v -2.432635498h -1.62073291Z m 1.62073291 3.719372314h 0.790506836q 0.669506836 0 0.991322632 0.294689087q 0.321815796 0.294689087 0.321815796 0.849069214q 0 0.567317749 -0.347378174 0.793413269q -0.347378174 0.22609552 -1.009760254 0.22609552h -0.746506836v -2.16326709Z "/></symbol><symbol id="gE176EFA5006630A06D33BDA271C8647" overflow="visible"><path d="M 0 0m 0.846253418 0v 7.169376221h 2.581992188q 0.76031189 0 1.387029236 -0.200593567q 0.626717346 -0.200593567 1.003341125 -0.690123779q 0.376623779 -0.489530212 0.376623779 -1.341777771q 0 -0.819247559 -0.376623779 -1.339840149q -0.376623779 -0.52059259 -1.003341125 -0.768748535q -0.626717346 -0.248155945 -1.387029236 -0.248155945h -0.961259277v -2.580136475h -1.62073291Z m 1.62073291 3.866873291h 0.829259277q 0.640442505 0 0.975539001 0.271064331q 0.335096497 0.271064331 0.335096497 0.798943481q 0 0.531754395 -0.335096497 0.738756348q -0.335096497 0.207001953 -0.975539001 0.207001953h -0.829259277v -2.015766113Z m 2.260269043 -3.866873291l -1.595444458 3.007319702l 1.120990234 1.036986328l 2.288060425 -4.04430603h -1.813606201Z "/></symbol><symbol id="g4FC30F1339117D02576C048DD8D5DD8A" overflow="visible"><path d="M 0 0m 4.018370361 -0.132q -0.987436646 0 -1.783685181 0.413125732q -0.796248535 0.413125732 -1.261841125 1.23390741q -0.46559259 0.820781677 -0.46559259 2.028218323q 0 0.894249512 0.275343079 1.59081189q 0.275343079 0.696562378 0.756779724 1.1825q 0.481436646 0.485937622 1.114279724 0.735375244q 0.632843079 0.249437622 1.347843079 0.249437622q 0.780374268 0 1.343029236 -0.275968811q 0.562654968 -0.275968811 0.91921637 -0.654530212l -0.854366455 -0.98511499q -0.265937622 0.246500977 -0.578751465 0.381377197q -0.312813843 0.134876221 -0.774753418 0.134876221q -0.551816772 0 -0.979444458 -0.277533142q -0.427627686 -0.277533142 -0.667972717 -0.792817749q -0.240345032 -0.515284607 -0.240345032 -1.234039001q 0 -0.73687915 0.224813843 -1.258632568q 0.224813843 -0.521753418 0.671222229 -0.796692993q 0.446408386 -0.274939575 1.121223206 -0.274939575q 0.21987915 0 0.42457019 0.055282654q 0.20469104 0.055282654 0.334692993 0.158097473v 1.238015625h -1.187758301v 1.322986328h 2.627243652v -3.305368408q -0.366249512 -0.363 -0.990373291 -0.615687134q -0.624123779 -0.252687134 -1.375373291 -0.252687134Z "/></symbol><symbol id="g2A78A62D00879D5B71DD36D68D78AE17" overflow="visible"><path d="M 0 0m 0.846253418 0v 7.169376221h 4.492116943v -1.35923584h -2.871384033v -1.43977002h 2.44438208v -1.35923584h -2.44438208v -1.651898682h 2.981384033v -1.35923584h -4.602116943Z "/></symbol><symbol id="g5011A37DF7F6B8A06CC1AC0B2F129E79" overflow="visible"><path d="M 0 0m 2.075062653 0v 2.556031677l -2.156000094 4.613343872h 1.733374408l 0.639406387 -1.646156982q 0.141687607 -0.407 0.283375214 -0.789578308q 0.141687439 -0.382577972 0.299218597 -0.800577972h 0.044q 0.157531494 0.418 0.307140961 0.800577972q 0.149609467 0.382578308 0.29745285 0.789578308l 0.639406555 1.646156982h 1.694218536l -2.160844055 -4.613343872v -2.556031677h -1.620749359Z "/></symbol><symbol id="g5E642DDC4B5B96B6B96BB32B7B35A636" overflow="visible"><path d="M 0 0m 0.845281334 0v 7.169375549h 1.620749443v -7.169375549h -1.620749443Z "/></symbol><symbol id="gE1207787609A5CBBC607A037B6B2D099" overflow="visible"><path d="M 0 0m 0.845281334 0v 7.169375549h 1.806030861l 1.145812744 -3.187563538q 0.108687103 -0.316374878 0.201530823 -0.642640625q 0.092844055 -0.326265747 0.191844055 -0.679171951h 0.044q 0.099 0.352906204 0.189421692 0.679171951q 0.090422028 0.326265747 0.194265747 0.642640625l 1.121188293 3.187563538h 1.80118689v -7.169375549h -1.478656067v 2.625438629q 0 0.353312225 0.036734253 0.833327881q 0.036734253 0.480015656 0.086890869 0.957609283q 0.050155945 0.477593292 0.094155945 0.826062134h -0.044l -0.58431189 -1.887562134l -1.005938385 -2.737969505h -0.944187256l -1.005937714 2.737969505l -0.562312561 1.887562134h -0.044q 0.044000168 -0.348468842 0.091734589 -0.826062134q 0.047734253 -0.477593628 0.084468506 -0.957609283q 0.036734421 -0.480015656 0.036734421 -0.833327881v -2.625438629h -1.456655815Z "/></symbol><symbol id="gC332FE52893696B12EBDD5B945B5AE66" overflow="visible"><path d="M 0 0m 0.845281334 0v 7.169375549h 1.620749443v -5.808188492h 2.831937546v -1.361187057h -4.452686989Z "/></symbol><symbol id="gE5765198907F7711F508F04B639DE070" overflow="visible"><path d="M 0 0m 0.846253418 0v 7.169376221h 1.62073291v -2.929391846h 0.040124756l 2.137270996 2.929391846h 1.781231934l -2.168877197 -2.861372314l 2.567500977 -4.308003906h -1.777356689l -1.74288501 3.029017578l -0.837009766 -1.107508789v -1.921508789h -1.62073291Z "/></symbol><symbol id="g4BAB23A808A992CAAA4FBE755BACBC23" overflow="visible"><path d="M 0 0m 0.845281334 0v 7.169375549h 1.620749443v -2.763719452h 2.477907272v 2.763719452h 1.620749695v -7.169375549h -1.620749695v 2.993000366h -2.477907272v -2.993000366h -1.620749443Z "/></symbol><symbol id="g76462530CF443880BAC9AE951AF166E9" overflow="visible"><path d="M 0 0m 0.846253418 0v 7.169376221h 4.524491211v -1.35923584h -2.903758301v -1.662393799h 2.480631592v -1.35923584h -2.480631592v -2.788510742h -1.62073291Z "/></symbol><symbol id="gC989FCE3D905A8E717322010EEB7B642" overflow="visible"><path d="M 0 0m 0.845281334 0v 7.169375549h 2.029656013q 1.093843719 0 1.902546814 -0.374453186q 0.808703094 -0.374453857 1.251328217 -1.160297241q 0.442625122 -0.785844055 0.442625122 -2.016937683q 0 -1.231093628 -0.44020343 -2.033437347q -0.440203094 -0.802343719 -1.228671936 -1.193296906q -0.788468506 -0.390953186 -1.836999664 -0.390953186h -2.120281136Z m 1.620749443 1.30487458h 0.308594177q 0.609031174 0 1.068203293 0.222015755q 0.459171783 0.222015671 0.713937866 0.726296921q 0.254765747 0.504281418 0.254765747 1.364500183q 0 0.855375214 -0.254765747 1.345578491q -0.254766083 0.490203278 -0.713937866 0.695719116q -0.459172119 0.205515503 -1.068203293 0.205515503h -0.308594177v -4.559625969Z "/></symbol><symbol id="gCE56F1DE108F514D8C8A0E6945120B44" overflow="visible"><path d="M 0 0m 0.845281334 0v 7.169375549h 1.698655815l 1.835875595 -3.529063721q 0.191843384 -0.363 0.364109131 -0.777921692q 0.172265747 -0.414922028 0.337265747 -0.837765747h 0.044q -0.056312561 0.583 -0.129781067 1.277062134q -0.073468842 0.694062469 -0.073468842 1.324999817v 2.542689209h 1.547280853v -7.169375549h -1.698655731l -1.835875763 3.529063049q -0.185687271 0.363 -0.365874878 0.781q -0.180187439 0.418 -0.345187607 0.834687775h -0.044q 0.066 -0.585625122 0.139468674 -1.273531311q 0.073468842 -0.687906189 0.073468842 -1.328531143v -2.54268837h -1.547280769Z "/></symbol><symbol id="g16895E3248943340EE3D89A2B8356084" overflow="visible"><path d="M 0 0m 1.448562668 0l -1.299812597 7.169375549h 1.684124594l 0.480562668 -3.346813446q 0.069531158 -0.565843719 0.140375046 -1.134109467q 0.070843719 -0.568265747 0.130687439 -1.158328064h 0.044q 0.099 0.590062317 0.202843719 1.161406204q 0.103843719 0.571343887 0.212531494 1.131031326l 0.762124969 3.346813446h 1.438687073l 0.727812744 -3.346813446q 0.108687439 -0.548687439 0.217374878 -1.122453186q 0.108687439 -0.573765747 0.207687439 -1.169984344h 0.044q 0.059844055 0.596218597 0.133109802 1.167562485q 0.073265747 0.571343887 0.137953186 1.124875046l 0.505187622 3.346813446h 1.58118689l -1.287499512 -7.169375549h -2.088000275l -0.666249939 3.254563232q -0.077 0.408312561 -0.145422028 0.834890869q -0.068421692 0.426578308 -0.128265411 0.866171783h -0.044q -0.050156281 -0.439593475 -0.113077972 -0.866171783q -0.062922028 -0.426578308 -0.150922028 -0.834890869l -0.663625153 -3.254563232h -2.063374649Z "/></symbol><symbol id="g99F7A5B9463B24346207D7827E6B3035" overflow="visible"><path d="M 0 0m 3.763372314 -0.132q -0.966748535 0 -1.70021637 0.449375244q -0.733467834 0.449375244 -1.144686157 1.288281677q -0.411218323 0.838906433 -0.411218323 2.010093567q 0 1.171187134 0.411218323 1.994562378q 0.411218323 0.823375244 1.144686157 1.257219299q 0.733467834 0.433844055 1.70021637 0.433844055q 0.966748535 0 1.70021637 -0.433844055q 0.733467834 -0.433844055 1.144686157 -1.257219299q 0.411218323 -0.823375244 0.411218323 -1.994562378q 0 -1.171187134 -0.411218323 -2.010093567q -0.411218323 -0.838906433 -1.144686157 -1.288281677q -0.733467834 -0.449375244 -1.70021637 -0.449375244Z m 0 1.322986328q 0.489066284 0 0.849069214 0.289501953q 0.36000293 0.289501953 0.55309845 0.830348938q 0.19309552 0.540846985 0.19309552 1.304913269q 0 0.718754395 -0.19309552 1.229507812q -0.19309552 0.510753418 -0.55309845 0.783755371q -0.36000293 0.273001953 -0.849069214 0.273001953q -0.489066284 0 -0.849069214 -0.273001953q -0.36000293 -0.273001953 -0.55309845 -0.783755371q -0.19309552 -0.510753418 -0.19309552 -1.229507812q 0 -0.764066284 0.19309552 -1.304913269q 0.19309552 -0.540846985 0.55309845 -0.830348938q 0.36000293 -0.289501953 0.849069214 -0.289501953Z m 2.361871338 -3.189231934q -1.177746582 0 -1.981150085 0.583686157q -0.803403503 0.583686157 -1.170339172 1.468933716l 1.646608154 0.163122803q 0.135875244 -0.336438599 0.406344055 -0.53828363q 0.270468811 -0.201845032 0.606594543 -0.292408386q 0.336125732 -0.090563354 0.677065308 -0.090563354q 0.234875244 0 0.437093567 0.032031189q 0.202218323 0.032031189 0.361405457 0.074093567l 0.287372314 -1.159863525q -0.195436646 -0.098374268 -0.525153992 -0.169561401q -0.329717346 -0.071187134 -0.745840149 -0.071187134Z "/></symbol><symbol id="gD313BA69C0D48F5D3027C8CF7C587B9A" overflow="visible"><path d="M 0 0m 3.879874695 -0.132q -0.919155945 0 -1.686281067 0.413609425q -0.767124954 0.413609425 -1.226249908 1.23487492q -0.459124954 0.821265747 -0.459124954 2.027734253q 0 0.892312561 0.268390617 1.590812225q 0.268390617 0.6985 0.743359291 1.1825q 0.474968674 0.484 1.084359375 0.733922363q 0.609390701 0.249922363 1.285234421 0.249922363q 0.700468506 0 1.250015656 -0.272578308q 0.549546814 -0.272578308 0.909015991 -0.658890869l -0.854375519 -0.98415625q -0.268843719 0.255218933 -0.573562653 0.385250427q -0.304718597 0.130031494 -0.691937195 0.130031494q -0.479656464 0 -0.880750275 -0.282062653q -0.401093811 -0.282062653 -0.640468857 -0.797343903q -0.239375046 -0.515281586 -0.239375046 -1.225937714q 0 -0.738812744 0.228375046 -1.259594162q 0.228375046 -0.520781418 0.641125137 -0.794265762q 0.412750092 -0.273484512 0.954875061 -0.273484512q 0.418906372 0 0.751125305 0.171609299q 0.332218933 0.171609467 0.579968689 0.424203278l 0.815218567 -0.962155914q -0.458468506 -0.518312477 -1.023859375 -0.776156239q -0.565390533 -0.257843761 -1.235078308 -0.257843761Z "/></symbol></defs></svg>