<svg viewBox="0 0 566.929133858 36.3" width="566.929133858pt" height="36.3pt" xmlns="http://www.w3.org/2000/svg" xmlns:xlink="http://www.w3.org/1999/xlink" xmlns:h5="http://www.w3.org/1999/xhtml"><g transform="translate(257.526566929)"><g><g transform="matrix(1 0 0 -1 1.3365 8.305)"><use xlink:href="#g47D4E1F3A9990FB2791748D947D5330F" x="0" y="0" fill="#000000" fill-rule="nonzero"/></g></g><g transform="translate(8.646)"><g transform="matrix(1 0 0 -1 1.3365 8.305)"><use xlink:href="#g47D4E1F3A9990FB2791748D947D5330F" x="0" y="0" fill="#000000" fill-rule="nonzero"/></g></g><g transform="translate(17.292)"><g transform="matrix(1 0 0 -1 1.683 8.305)"><use xlink:href="#gD186943C5E1E9B8DAFE41D259AF6692C" x="0" y="0" fill="#000000" fill-rule="nonzero"/></g></g><g transform="translate(25.938)"><g transform="matrix(1 0 0 -1 1.375 8.305)"><use xlink:href="#g4890D0ED16E36833201DAAB03748AE4" x="0" y="0" fill="#000000" fill-rule="nonzero"/></g></g><g transform="translate(34.584)"><g transform="matrix(1 0 0 -1 3.223 8.305)"/></g><g transform="translate(43.23)"><g transform="matrix(1 0 0 -1 3.223 8.305)"/></g><g transform="translate(0 9.35)"><g transform="matrix(1 0 0 -1 -1.177 12.771923828)"><use xlink:href="#gB7CE9DFC66808AB258E4EABC11176BA7" x="0" y="0" fill="#000000" fill-rule="nonzero"/></g></g><g transform="translate(8.646 9.35)"><g transform="matrix(1 0 0 -1 -1.177 12.771923828)"><use xlink:href="#gB7CE9DFC66808AB258E4EABC11176BA7" x="0" y="0" fill="#000000" fill-rule="nonzero"/></g></g><g transform="translate(17.292 9.35)"><g transform="matrix(1 0 0 -1 3.223 12.43)"/></g><g transform="translate(25.938 9.35)"><g transform="matrix(1 0 0 -1 -1.177 12.771923828)"><use xlink:href="#gB7CE9DFC66808AB258E4EABC11176BA7" x="0" y="0" fill="#000000" fill-rule="nonzero"/></g></g><g transform="translate(34.584 9.35)"><g transform="matrix(1 0 0 -1 3.223 12.43)"/></g><g transform="translate(43.23 9.35)"><g transform="matrix(1 0 0 -1 3.223 12.43)"/></g><g transform="translate(0 26.95)"><g transform="matrix(1 0 0 -1 1.3365 8.305)"><use xlink:href="#g47D4E1F3A9990FB2791748D947D5330F" x="0" y="0" fill="#000000" fill-rule="nonzero"/></g></g><g transform="translate(8.646 26.95)"><g transform="matrix(1 0 0 -1 1.3365 8.305)"><use xlink:href="#g47D4E1F3A9990FB2791748D947D5330F" x="0" y="0" fill="#000000" fill-rule="nonzero"/></g></g><g transform="translate(17.292 26.95)"><g transform="matrix(1 0 0 -1 1.1825 8.305)"><use xlink:href="#gB2BFE205DB15B7DE8EA5F3701354060A" x="0" y="0" fill="#000000" fill-rule="nonzero"/></g></g><g transform="translate(25.938 26.95)"><g transform="matrix(1 0 0 -1 1.375 8.305)"><use xlink:href="#g4890D0ED16E36833201DAAB03748AE4" x="0" y="0" fill="#000000" fill-rule="nonzero"/></g></g><g transform="translate(34.584 26.95)"><g transform="matrix(1 0 0 -1 1.375 8.305)"><use xlink:href="#g4890D0ED16E36833201DAAB03748AE4" x="0" y="0" fill="#000000" fill-rule="nonzero"/></g></g><g transform="translate(43.23 26.95)"><g transform="matrix(1 0 0 -1 0.9295 8.305)"><use xlink:href="#g58DFE4D8A4C58C49D61B3839CE22F2E1" x="0" y="0" fill="#000000" fill-rule="nonzero"/></g></g></g><defs><symbol id="g47D4E1F3A9990FB2791748D947D5330F" overflow="visible"><path d="M 0 0m 0.029040895 0l 2.440828367 7.219520752h 1.036631836l 2.44082843 -7.219520752h -0.96769989l -1.261629639 4.032163666q -0.197267181 0.606027222 -0.373780792 1.208900604q -0.176513611 0.602873047 -0.347527222 1.226647034h -0.044q -0.164267014 -0.630520752 -0.340780624 -1.230020752q -0.176513611 -0.599499664 -0.373780624 -1.205526886l -1.276882874 -4.032163666h -0.932206968Z m 1.283918188 2.197951096v 0.733035294h 3.324198875v -0.733035294h -3.324198875Z "/></symbol><symbol id="gD186943C5E1E9B8DAFE41D259AF6692C" overflow="visible"><path d="M 0 0m 0.456191162 2.450279541v 0.631823242h 4.367617676v -0.631823242h -4.367617676Z "/></symbol><symbol id="g4890D0ED16E36833201DAAB03748AE4" overflow="visible"><path d="M 0 0m 2.488348846 0v 6.439259277h -2.185335215v 0.780261475h 5.289383951v -0.780261475h -2.1853349v -6.439259277h -0.918713837Z "/></symbol><symbol id="gB7CE9DFC66808AB258E4EABC11176BA7" overflow="visible"><path d="M 0 0m 5.134765625 -2.75v 11h 0.725097656v -11h -0.725097656Z "/></symbol><symbol id="gB2BFE205DB15B7DE8EA5F3701354060A" overflow="visible"><path d="M 0 0m 3.729438751 -0.132q -0.904493195 0 -1.621472778 0.443886909q -0.716979584 0.443886909 -1.128085869 1.282893715q -0.411106243 0.839006805 -0.411106243 2.009993362q 0 0.871493195 0.238113049 1.565739624q 0.238113091 0.694246765 0.675472862 1.1825q 0.437359604 0.488253235 1.018599396 0.743380188q 0.581239624 0.255126953 1.267493195 0.255126953q 0.656479584 0 1.16533902 -0.263120483q 0.508859772 -0.263119812 0.824339355 -0.628612671l -0.50335675 -0.564076294q -0.283506805 0.311520752 -0.65090741 0.479160645q -0.367400604 0.167640564 -0.815174591 0.167640564q -0.674081665 0 -1.185876068 -0.357280457q -0.511794235 -0.357281128 -0.799187866 -1.010462524q -0.287393799 -0.653181061 -0.287393799 -1.54975592q 0 -0.910068054 0.278520416 -1.570876068q 0.278520416 -0.66080793 0.791561249 -1.018968742q 0.513040833 -0.35816077 1.205602417 -0.35816077q 0.508787262 0 0.907941101 0.197633549q 0.399154175 0.197633507 0.738688202 0.565181145l 0.478863556 -0.537822723q -0.427239624 -0.493239792 -0.95809906 -0.763619896q -0.530859772 -0.270380104 -1.229873383 -0.270380104Z "/></symbol><symbol id="g58DFE4D8A4C58C49D61B3839CE22F2E1" overflow="visible"><path d="M 0 0m 3.82781604 -0.132q -0.952334534 0 -1.68840802 0.443213257q -0.736073486 0.443213257 -1.154027496 1.28154599q -0.41795401 0.838332733 -0.41795401 2.010667267q 0 0.874191162 0.247762848 1.565738953q 0.247762848 0.691547791 0.694097382 1.1825q 0.446334534 0.490952209 1.051597382 0.745404419q 0.605262848 0.254452209 1.320262848 0.254452209q 0.750286743 0 1.260288544 -0.27847644q 0.510001801 -0.278475769 0.821431915 -0.611905884l -0.503345337 -0.573918823q -0.270952209 0.286617676 -0.638926514 0.471639771q -0.367974304 0.185022095 -0.915161865 0.185022095q -0.727327332 0 -1.26527594 -0.355258911q -0.537948608 -0.355259583 -0.830946808 -1.008445343q -0.292998199 -0.65318576 -0.292998199 -1.552465302q 0 -0.907375122 0.279974304 -1.569536987q 0.279974304 -0.662161865 0.81413797 -1.022349426q 0.534163666 -0.360187561 1.304255646 -0.360187561q 0.390375122 0 0.740489197 0.112950409q 0.350114075 0.112950409 0.560349426 0.311042389v 1.879882813h -1.528750244v 0.761352539h 2.366485107v -3.034580688q -0.346191162 -0.363 -0.920169067 -0.600643372q -0.573977905 -0.237643372 -1.305169067 -0.237643372Z "/></symbol></defs></svg>